<svg width="50" height="50" viewBox="0 0 50 50" fill="none" xmlns="http://www.w3.org/2000/svg">
<circle cx="25" cy="25" r="24.5" stroke="white"/>
<path d="M31.5 17.2857C31.5 16.5757 30.9179 16 30.2 16H13.3C12.5821 16 12 16.5757 12 17.2857C12 17.9958 12.5821 18.5714 13.3 18.5714H30.2C30.9179 18.5714 31.5 17.9957 31.5 17.2857ZM13.3 23.7143H36.7C37.4179 23.7143 38 24.29 38 25C38 25.7101 37.4179 26.2857 36.7 26.2857H13.3C12.5821 26.2857 12 25.7101 12 25C12 24.29 12.5821 23.7143 13.3 23.7143ZM13.3 31.4286H25C25.7179 31.4286 26.3 32.0042 26.3 32.7143C26.3 33.4243 25.7179 34 25 34H13.3C12.5821 34 12 33.4243 12 32.7143C12 32.0042 12.5821 31.4286 13.3 31.4286Z" fill="white"/>
</svg>
