<svg width="213" height="55" viewBox="0 0 213 55" fill="none" xmlns="http://www.w3.org/2000/svg">
<path d="M59.3611 11.6888L57.368 11.3015C56.1472 11.0643 54.8882 11.2159 53.7643 11.7253C48.6793 4.36467 40.4 0 31.4131 0C24.1575 0 17.336 2.82556 12.2054 7.95604C7.07491 13.0868 4.24935 19.9081 4.24935 27.1639C4.24935 28.8076 4.39586 30.4285 4.67981 32.0131C0.732951 35.5529 -0.820636 39.0604 0.414896 41.683C1.37115 43.7126 3.82884 44.8076 7.38242 44.8075C7.67004 44.8075 7.96552 44.8003 8.26738 44.7858C9.00018 44.7507 9.7628 44.6723 10.5465 44.5561C11.0696 45.1815 11.6218 45.7881 12.2054 46.3716C17.336 51.5023 24.1574 54.3277 31.4131 54.3277C38.6689 54.3277 45.4904 51.5021 50.6209 46.3716C55.7515 41.241 58.577 34.4197 58.577 27.1639C58.577 25.1494 58.3551 23.1459 57.9182 21.1961L60.6851 19.5986C61.7875 18.962 62.5446 17.8777 62.7626 16.6233C63.1582 14.3438 61.6324 12.1302 59.3611 11.6888ZM8.15007 42.3345C5.26315 42.4731 3.20095 41.8381 2.63515 40.6371C2.01069 39.3117 3.05493 37.1042 5.32954 34.7853C6.10357 37.4484 7.28351 39.9748 8.84029 42.2879C8.60727 42.3075 8.37671 42.3237 8.15007 42.3345ZM46.7502 46.5234C44.828 43.5418 42.3435 40.9569 39.4433 38.9227C37.6702 37.6792 35.2656 37.8566 33.6837 39.3357C33.247 39.744 32.6714 39.9712 32.0735 39.9712C29.7073 39.9712 27.8305 41.9656 27.9744 44.3276C28.1064 46.4947 29.9024 48.1846 32.0735 48.1846C32.9789 48.1846 33.7128 48.9185 33.7128 49.8239V50.6855C33.7128 50.883 33.7843 51.0698 33.8967 51.2321C34.0057 51.3895 34.0545 51.5624 34.0562 51.7318C33.1876 51.8246 32.306 51.8734 31.413 51.8734C24.2868 51.8734 17.8568 48.8399 13.3429 43.9978C15.6884 43.4147 18.1526 42.5298 20.5883 41.3823C22.7467 40.3653 24.7604 39.2023 26.5731 37.9255C27.1271 37.5353 27.26 36.7697 26.8697 36.2157C26.4794 35.6616 25.7138 35.5288 25.1599 35.9191C23.4627 37.1145 21.5727 38.2057 19.5423 39.1623C16.8304 40.44 14.0991 41.3678 11.5787 41.8839C8.51733 37.7696 6.70336 32.6747 6.70336 27.1639C6.70336 24.5808 7.10252 22.0895 7.84109 19.7473H13.7428C14.7244 19.7473 15.5874 19.0969 15.8579 18.1532L17.7667 11.4937C17.9041 11.0144 18.5056 10.8588 18.8582 11.2113L22.9618 15.315C23.9756 16.3288 25.6728 16.1177 26.4073 14.8863C26.7664 14.2844 27.3907 13.8895 28.0884 13.823L29.6106 13.6781C30.8828 13.557 31.7844 12.3811 31.5714 11.121L30.6701 5.78819C30.5512 5.08471 30.7808 4.36737 31.286 3.86354L32.6655 2.48787C40.276 2.86765 47.2164 6.69217 51.613 12.9333L47.3214 15.411L39.1596 12.4485C38.8191 12.3248 38.4413 12.3578 38.1274 12.5393L32.4314 15.8278C32.045 16.0509 31.8101 16.4662 31.8181 16.9123C31.8259 17.3584 32.0755 17.7651 32.4698 17.9743L37.8949 20.8535L31.9486 24.2866L24.0799 21.26C23.734 21.127 23.3467 21.1573 23.0259 21.3426L19.2248 23.5372C18.8955 23.7273 18.6729 24.0593 18.6222 24.4361C18.5715 24.813 18.6984 25.192 18.9657 25.4625C18.9657 25.4625 25.2095 31.7681 25.2664 31.8087C26.5581 32.9439 28.2242 33.5754 29.947 33.5754C30.0621 33.5754 30.1776 33.5726 30.2931 33.567C34.7239 33.3498 39.0966 32.0626 42.9387 29.8444L44.5811 28.8962L44.2978 36.8332C44.2819 37.2791 44.5092 37.6985 44.8917 37.9286C45.0861 38.0455 45.305 38.104 45.524 38.104C45.7358 38.104 45.9476 38.0493 46.1375 37.9396L50.964 35.1532C51.2778 34.9721 51.4954 34.6615 51.5587 34.3047L53.4219 23.7922L55.6803 22.4883C55.9738 24.0226 56.1229 25.5895 56.1229 27.164C56.1229 34.999 52.4566 41.9932 46.7502 46.5234ZM44.5451 17.014L40.4021 19.4059L35.5773 16.8453L38.8596 14.9503L44.5451 17.014ZM29.2152 25.8647L25.1398 28.2176L21.8284 24.8678L23.7456 23.7609L29.2152 25.8647ZM46.8294 34.7066L47.1501 25.72L50.9797 23.5091L49.2419 33.3136L46.8294 34.7066ZM60.3445 16.2036C60.2515 16.7389 59.9284 17.2016 59.458 17.4733L53.8067 20.7361C53.7245 20.4937 53.5698 20.2771 53.3517 20.1244C52.961 19.8506 52.4472 19.8279 52.034 20.0666L45.3344 23.9345C44.9684 24.1459 44.7367 24.5309 44.7218 24.9534L44.6843 26.0029L41.7115 27.7192C38.2059 29.7431 34.2159 30.9176 30.1728 31.1159C28.9904 31.174 27.8323 30.775 26.9383 30.013L54.4703 14.1174C55.2048 13.6933 56.0679 13.549 56.8999 13.7107L58.893 14.098C59.8623 14.2862 60.5134 15.2309 60.3445 16.2036Z" fill="white"/>
<path d="M71 6.71023V1H95.5881V6.71023H86.767V30.0909H79.8352V6.71023H71Z" fill="white"/>
<path d="M110.13 20.6735V8.27295H117.062V30.0911H110.442V26.0286H110.215C109.732 27.3638 108.908 28.4244 107.744 29.2104C106.588 29.9869 105.192 30.3752 103.553 30.3752C102.067 30.3752 100.76 30.0343 99.6328 29.3525C98.5059 28.6707 97.63 27.719 97.005 26.4974C96.38 25.2663 96.0627 23.8269 96.0533 22.1792V8.27295H102.999V20.8155C103.009 21.9993 103.321 22.932 103.937 23.6138C104.552 24.2957 105.39 24.6366 106.451 24.6366C107.142 24.6366 107.763 24.485 108.312 24.182C108.871 23.8695 109.311 23.4197 109.633 22.8326C109.964 22.236 110.13 21.5163 110.13 20.6735Z" fill="white"/>
<path d="M121.483 30.0911V8.27291H128.23V12.2502H128.457C128.855 10.8108 129.504 9.74071 130.403 9.03995C131.303 8.32973 132.349 7.97461 133.543 7.97461C133.865 7.97461 134.196 7.99829 134.537 8.04563C134.878 8.08351 135.195 8.14507 135.489 8.23029V14.2672C135.157 14.1536 134.722 14.0636 134.182 13.9974C133.652 13.9311 133.178 13.8979 132.761 13.8979C131.938 13.8979 131.194 14.0826 130.531 14.4519C129.878 14.8118 129.362 15.3184 128.983 15.9718C128.614 16.6157 128.429 17.3733 128.429 18.2445V30.0911H121.483Z" fill="white"/>
<path d="M138.319 30.091V8.27286H144.924V12.2785H145.165C145.62 10.9528 146.387 9.90638 147.467 9.13933C148.546 8.37229 149.834 7.98877 151.33 7.98877C152.845 7.98877 154.143 8.37702 155.222 9.15354C156.302 9.93005 156.988 10.9717 157.282 12.2785H157.509C157.916 10.9812 158.712 9.94426 159.896 9.16774C161.079 8.38176 162.476 7.98877 164.086 7.98877C166.15 7.98877 167.826 8.65165 169.114 9.9774C170.402 11.2937 171.046 13.1024 171.046 15.4035V30.091H164.1V16.9944C164.1 15.9054 163.821 15.0768 163.262 14.5086C162.703 13.931 161.979 13.6421 161.089 13.6421C160.132 13.6421 159.38 13.9546 158.83 14.5796C158.29 15.1952 158.021 16.0238 158.021 17.0654V30.091H151.344V16.9234C151.344 15.9101 151.07 15.1099 150.521 14.5228C149.971 13.9357 149.247 13.6421 148.347 13.6421C147.741 13.6421 147.206 13.7889 146.742 14.0825C146.278 14.3666 145.914 14.7738 145.648 15.3041C145.393 15.8344 145.265 16.4594 145.265 17.1791V30.091H138.319Z" fill="white"/>
<path d="M185.549 30.5029C183.267 30.5029 181.297 30.0531 179.64 29.1535C177.992 28.2444 176.723 26.9518 175.833 25.2757C174.952 23.5901 174.512 21.5872 174.512 19.2671C174.512 17.0134 174.957 15.0437 175.847 13.3581C176.737 11.663 177.992 10.3467 179.612 9.40922C181.231 8.46225 183.139 7.98877 185.336 7.98877C186.889 7.98877 188.309 8.23024 189.597 8.7132C190.885 9.19615 191.998 9.91111 192.935 10.8581C193.873 11.805 194.602 12.9745 195.123 14.3666C195.644 15.7492 195.904 17.3353 195.904 19.1251V20.8581H176.941V16.824H189.441C189.432 16.0853 189.256 15.4272 188.915 14.8495C188.575 14.2719 188.106 13.8221 187.509 13.5001C186.922 13.1687 186.245 13.0029 185.478 13.0029C184.701 13.0029 184.005 13.1781 183.39 13.5285C182.774 13.8694 182.287 14.3382 181.927 14.9348C181.567 15.5219 181.378 16.1895 181.359 16.9376V21.0427C181.359 21.9329 181.534 22.7141 181.884 23.3865C182.235 24.0493 182.732 24.5654 183.376 24.9348C184.02 25.3041 184.787 25.4887 185.677 25.4887C186.292 25.4887 186.851 25.4035 187.353 25.2331C187.855 25.0626 188.286 24.8117 188.646 24.4802C189.005 24.1488 189.275 23.7416 189.455 23.2586L195.833 23.4433C195.568 24.8732 194.986 26.1185 194.086 27.1791C193.196 28.2302 192.026 29.0493 190.577 29.6365C189.129 30.2141 187.452 30.5029 185.549 30.5029Z" fill="white"/>
<path d="M211.767 8.27269V13.3864H198.003V8.27269H211.767ZM200.886 3.04541H207.832V23.2301C207.832 23.6563 207.899 24.0019 208.031 24.267C208.173 24.5227 208.377 24.7074 208.642 24.821C208.907 24.9252 209.224 24.9773 209.594 24.9773C209.859 24.9773 210.138 24.9536 210.432 24.9062C210.735 24.8494 210.962 24.8021 211.114 24.7642L212.165 29.7784C211.833 29.8731 211.365 29.9915 210.759 30.1335C210.162 30.2756 209.447 30.3655 208.614 30.4034C206.985 30.4792 205.588 30.2898 204.423 29.8352C203.268 29.3712 202.383 28.6515 201.767 27.6761C201.161 26.7008 200.867 25.4744 200.886 23.9972V3.04541Z" fill="white"/>
<path d="M71 50.314V40.4395H78.3287V41.5003H72.4705V44.8368H77.9492V45.8975H72.4705V49.2533H78.4236V50.314H71Z" fill="white"/>
<path d="M81.8325 42.9082L84.0145 45.9361L86.1965 42.9082H87.8093L84.8684 46.6111L87.8093 50.314H86.1965L84.0145 47.4404L81.8325 50.314H80.2197L83.1133 46.6111L80.2197 42.9082H81.8325Z" fill="white"/>
<path d="M89.8057 53.091V42.908H91.1575V44.0844H91.3236C91.4263 43.9558 91.5687 43.7919 91.7505 43.5926C91.9363 43.3901 92.2012 43.2101 92.545 43.0526C92.8929 42.8919 93.3633 42.8115 93.9562 42.8115C94.7231 42.8115 95.3991 42.9674 95.9841 43.2792C96.5691 43.591 97.0256 44.033 97.3538 44.6051C97.6818 45.1773 97.8458 45.8523 97.8458 46.6302C97.8458 47.4145 97.6818 48.0943 97.3538 48.6697C97.0256 49.2418 96.5711 49.6854 95.99 50.0004C95.4089 50.3122 94.7389 50.4681 93.98 50.4681C93.395 50.4681 92.9266 50.3893 92.5747 50.2318C92.2229 50.0711 91.9521 49.8895 91.7624 49.687C91.5727 49.4813 91.4263 49.3109 91.3236 49.1759H91.2051V53.091H89.8057ZM91.1813 46.6109C91.1813 47.1702 91.2821 47.6636 91.4837 48.0911C91.6853 48.5154 91.9798 48.8481 92.3672 49.0891C92.7546 49.327 93.2289 49.4459 93.7902 49.4459C94.3753 49.4459 94.8635 49.3206 95.2547 49.0699C95.6501 48.8159 95.9465 48.4752 96.1442 48.0477C96.3458 47.617 96.4466 47.138 96.4466 46.6109C96.4466 46.0902 96.3478 45.6209 96.1501 45.203C95.9564 44.7819 95.6619 44.4492 95.2667 44.2049C94.8753 43.9574 94.3831 43.8337 93.7902 43.8337C93.221 43.8337 92.7427 43.951 92.3553 44.1857C91.9679 44.4171 91.6754 44.7417 91.4777 45.1596C91.2801 45.5743 91.1813 46.058 91.1813 46.6109Z" fill="white"/>
<path d="M101.38 40.4395V50.314H99.9805V40.4395H101.38Z" fill="white"/>
<path d="M107.643 50.4681C106.821 50.4681 106.1 50.309 105.479 49.9908C104.863 49.6725 104.38 49.2274 104.033 48.6552C103.688 48.0831 103.517 47.4145 103.517 46.6495C103.517 45.878 103.688 45.2046 104.033 44.6292C104.38 44.0539 104.863 43.6071 105.479 43.2889C106.1 42.9706 106.821 42.8115 107.643 42.8115C108.466 42.8115 109.185 42.9706 109.801 43.2889C110.422 43.6071 110.905 44.0539 111.248 44.6292C111.596 45.2046 111.77 45.878 111.77 46.6495C111.77 47.4145 111.596 48.0831 111.248 48.6552C110.905 49.2274 110.422 49.6725 109.801 49.9908C109.185 50.309 108.466 50.4681 107.643 50.4681ZM107.643 49.4459C108.268 49.4459 108.782 49.3158 109.185 49.0554C109.588 48.795 109.886 48.4527 110.081 48.0284C110.274 47.6041 110.371 47.1445 110.371 46.6495C110.371 46.1544 110.274 45.6932 110.081 45.2657C109.886 44.8382 109.588 44.4926 109.185 44.2291C108.782 43.9655 108.268 43.8337 107.643 43.8337C107.019 43.8337 106.505 43.9655 106.102 44.2291C105.698 44.4926 105.4 44.8382 105.206 45.2657C105.012 45.6932 104.916 46.1544 104.916 46.6495C104.916 47.1445 105.012 47.6041 105.206 48.0284C105.4 48.4527 105.698 48.795 106.102 49.0554C106.505 49.3158 107.019 49.4459 107.643 49.4459Z" fill="white"/>
<path d="M113.906 50.3136V42.9078H115.258V44.0263H115.353C115.518 43.6599 115.819 43.3626 116.254 43.1344C116.689 42.9062 117.178 42.792 117.725 42.792C117.827 42.792 117.955 42.7936 118.11 42.7969C118.264 42.8001 118.38 42.8049 118.46 42.8113V43.9685C118.413 43.9588 118.304 43.9444 118.133 43.9251C117.968 43.9026 117.792 43.8913 117.605 43.8913C117.163 43.8913 116.768 43.9669 116.42 44.118C116.076 44.2658 115.803 44.4715 115.602 44.7351C115.404 44.9955 115.305 45.2928 115.305 45.6271V50.3136H113.906Z" fill="white"/>
<path d="M123.66 50.4681C122.781 50.4681 122.025 50.3106 121.388 49.9956C120.756 49.6774 120.268 49.2338 119.924 48.6648C119.584 48.0927 119.414 47.4273 119.414 46.6687C119.414 45.9102 119.584 45.2416 119.924 44.663C120.268 44.0812 120.747 43.628 121.359 43.3033C121.975 42.9755 122.695 42.8115 123.517 42.8115C123.992 42.8115 124.459 42.8758 124.922 43.0044C125.385 43.133 125.806 43.3419 126.185 43.6312C126.564 43.9173 126.867 44.2966 127.093 44.7691C127.318 45.2416 127.43 45.8234 127.43 46.5145V46.9966H120.411V46.013H126.008C126.008 45.5951 125.905 45.2223 125.699 44.8944C125.498 44.5666 125.209 44.3078 124.833 44.1182C124.461 43.9285 124.023 43.8337 123.517 43.8337C122.959 43.8337 122.478 43.9462 122.071 44.1712C121.667 44.393 121.357 44.6823 121.139 45.0391C120.922 45.3959 120.814 45.7784 120.814 46.1866V46.8423C120.814 47.4016 120.932 47.8757 121.169 48.2647C121.41 48.6504 121.744 48.9445 122.171 49.147C122.598 49.3463 123.094 49.4459 123.66 49.4459C124.027 49.4459 124.359 49.4041 124.655 49.3206C124.956 49.2338 125.215 49.1052 125.432 48.9349C125.65 48.7613 125.818 48.5459 125.936 48.2888L127.288 48.5973C127.146 48.9702 126.907 49.2981 126.571 49.5809C126.235 49.8606 125.82 50.0792 125.325 50.2367C124.831 50.3909 124.276 50.4681 123.66 50.4681Z" fill="white"/>
<path d="M133.781 41.5003V40.4395H142.889V41.5003H139.07V50.314H137.6V41.5003H133.781Z" fill="white"/>
<path d="M146.368 45.8589V50.314H144.969V40.4395H146.368V44.0653H146.487C146.7 43.6828 147.02 43.3791 147.446 43.1541C147.878 42.9258 148.451 42.8117 149.166 42.8117C149.787 42.8117 150.33 42.913 150.797 43.1155C151.264 43.3148 151.625 43.6217 151.883 44.0364C152.143 44.4478 152.273 44.9718 152.273 45.6082V50.314H150.875V45.6854C150.875 45.0971 150.686 44.6423 150.31 44.3209C149.939 43.9962 149.424 43.8339 148.763 43.8339C148.305 43.8339 147.893 43.9126 147.53 44.0701C147.17 44.2276 146.885 44.4575 146.676 44.7596C146.471 45.0618 146.368 45.4282 146.368 45.8589Z" fill="white"/>
<path d="M158.652 50.4681C157.775 50.4681 157.018 50.3106 156.381 49.9956C155.748 49.6774 155.26 49.2338 154.916 48.6648C154.577 48.0927 154.406 47.4273 154.406 46.6687C154.406 45.9102 154.577 45.2416 154.916 44.663C155.26 44.0812 155.739 43.628 156.351 43.3033C156.968 42.9755 157.688 42.8115 158.51 42.8115C158.984 42.8115 159.453 42.8758 159.915 43.0044C160.377 43.133 160.799 43.3419 161.178 43.6312C161.558 43.9173 161.86 44.2966 162.085 44.7691C162.31 45.2416 162.423 45.8234 162.423 46.5145V46.9966H155.403V46.013H161C161 45.5951 160.897 45.2223 160.692 44.8944C160.49 44.5666 160.201 44.3078 159.826 44.1182C159.455 43.9285 159.015 43.8337 158.51 43.8337C157.953 43.8337 157.47 43.9462 157.063 44.1712C156.66 44.393 156.349 44.6823 156.132 45.0391C155.915 45.3959 155.806 45.7784 155.806 46.1866V46.8423C155.806 47.4016 155.924 47.8757 156.162 48.2647C156.402 48.6504 156.736 48.9445 157.163 49.147C157.59 49.3463 158.087 49.4459 158.652 49.4459C159.019 49.4459 159.351 49.4041 159.648 49.3206C159.949 49.2338 160.207 49.1052 160.425 48.9349C160.642 48.7613 160.81 48.5459 160.929 48.2888L162.281 48.5973C162.139 48.9702 161.899 49.2981 161.563 49.5809C161.227 49.8606 160.812 50.0792 160.318 50.2367C159.824 50.3909 159.268 50.4681 158.652 50.4681Z" fill="white"/>
<path d="M171.644 50.314L168.323 40.4395H169.817L172.355 48.4818H172.474L175.059 40.4395H176.719L179.305 48.4818H179.423L181.96 40.4395H183.455L180.135 50.314H178.617L175.936 42.4453H175.842L173.161 50.314H171.644Z" fill="white"/>
<path d="M187.95 50.4681C187.127 50.4681 186.406 50.309 185.785 49.9908C185.168 49.6725 184.686 49.2274 184.338 48.6552C183.994 48.0831 183.822 47.4145 183.822 46.6495C183.822 45.878 183.994 45.2046 184.338 44.6292C184.686 44.0539 185.168 43.6071 185.785 43.2889C186.406 42.9706 187.127 42.8115 187.95 42.8115C188.771 42.8115 189.49 42.9706 190.107 43.2889C190.728 43.6071 191.21 44.0539 191.555 44.6292C191.902 45.2046 192.076 45.878 192.076 46.6495C192.076 47.4145 191.902 48.0831 191.555 48.6552C191.21 49.2274 190.728 49.6725 190.107 49.9908C189.49 50.309 188.771 50.4681 187.95 50.4681ZM187.95 49.4459C188.573 49.4459 189.087 49.3158 189.49 49.0554C189.894 48.795 190.193 48.4527 190.386 48.0284C190.58 47.6041 190.676 47.1445 190.676 46.6495C190.676 46.1544 190.58 45.6932 190.386 45.2657C190.193 44.8382 189.894 44.4926 189.49 44.2291C189.087 43.9655 188.573 43.8337 187.95 43.8337C187.325 43.8337 186.811 43.9655 186.408 44.2291C186.005 44.4926 185.706 44.8382 185.512 45.2657C185.318 45.6932 185.222 46.1544 185.222 46.6495C185.222 47.1445 185.318 47.6041 185.512 48.0284C185.706 48.4527 186.005 48.795 186.408 49.0554C186.811 49.3158 187.325 49.4459 187.95 49.4459Z" fill="white"/>
<path d="M194.212 50.3136V42.9078H195.563V44.0263H195.659C195.825 43.6599 196.125 43.3626 196.56 43.1344C196.994 42.9062 197.485 42.792 198.03 42.792C198.133 42.792 198.262 42.7936 198.416 42.7969C198.57 42.8001 198.687 42.8049 198.765 42.8113V43.9685C198.718 43.9588 198.609 43.9444 198.44 43.9251C198.273 43.9026 198.097 43.8913 197.911 43.8913C197.468 43.8913 197.074 43.9669 196.726 44.118C196.382 44.2658 196.109 44.4715 195.908 44.7351C195.71 44.9955 195.611 45.2928 195.611 45.6271V50.3136H194.212Z" fill="white"/>
<path d="M201.824 40.4395V50.314H200.425V40.4395H201.824Z" fill="white"/>
<path d="M207.827 50.4683C207.067 50.4683 206.397 50.3124 205.816 50.0006C205.235 49.6856 204.781 49.242 204.452 48.6699C204.124 48.0945 203.96 47.4147 203.96 46.6304C203.96 45.8525 204.124 45.1775 204.452 44.6053C204.781 44.0332 205.237 43.5912 205.822 43.2794C206.407 42.9676 207.083 42.8117 207.85 42.8117C208.443 42.8117 208.911 42.8921 209.255 43.0528C209.603 43.2103 209.868 43.3903 210.05 43.5928C210.235 43.7921 210.38 43.956 210.482 44.0846H210.602V40.4395H212V50.314H210.649V49.1761H210.482C210.38 49.3111 210.233 49.4815 210.044 49.6872C209.854 49.8897 209.583 50.0713 209.231 50.232C208.88 50.3895 208.411 50.4683 207.827 50.4683ZM208.016 49.4461C208.577 49.4461 209.051 49.3272 209.439 49.0893C209.826 48.8483 210.121 48.5156 210.322 48.0913C210.524 47.6638 210.625 47.1704 210.625 46.6111C210.625 46.0582 210.526 45.5745 210.328 45.1598C210.131 44.7419 209.839 44.4173 209.451 44.1859C209.064 43.9512 208.586 43.8339 208.016 43.8339C207.423 43.8339 206.929 43.9576 206.534 44.2051C206.142 44.4494 205.847 44.7821 205.65 45.2032C205.457 45.6211 205.359 46.0904 205.359 46.6111C205.359 47.1382 205.459 47.6172 205.656 48.0479C205.858 48.4754 206.154 48.8161 206.545 49.0701C206.941 49.3208 207.431 49.4461 208.016 49.4461Z" fill="white"/>
</svg>
