<svg width="46" height="40" viewBox="0 0 46 40" fill="none" xmlns="http://www.w3.org/2000/svg">
<path fill-rule="evenodd" clip-rule="evenodd" d="M31.5373 35.3787C31.5373 35.7664 31.226 36.0807 30.8403 36.0807H14.6561C14.2706 36.0807 13.9591 35.7665 13.9591 35.3787C13.9591 34.9915 14.2706 34.6767 14.6561 34.6767H30.8405C31.226 34.6768 31.5373 34.9915 31.5373 35.3787ZM27.4912 39.2975C27.4912 39.6853 27.1793 40 26.7943 40H18.7021C18.3172 40 18.0052 39.6852 18.0052 39.2975C18.0052 38.9103 18.3172 38.5955 18.7021 38.5955H26.7943C27.1793 38.5956 27.4912 38.9104 27.4912 39.2975ZM37.1356 25.9634C37.7331 24.9171 39.3013 25.1179 39.6137 26.2918C39.9251 27.4627 38.6723 28.4308 37.6306 27.8256C36.9837 27.4497 36.7618 26.6144 37.1356 25.9634ZM35.9283 25.2614C34.8648 27.1168 36.2187 29.4126 38.3028 29.4126C40.1032 29.4126 41.4309 27.6962 40.9604 25.9289C40.327 23.5503 37.1464 23.1346 35.9283 25.2614ZM39.4476 31.4669L43.0234 25.2288L37.1662 21.8228L33.5904 28.0609L39.4476 31.4669ZM32.4844 31.2642C32.4703 31.2553 32.4556 31.247 32.4415 31.2387L33.3979 29.5698L38.2457 32.3901L36.8436 34.8368C35.5757 33.4424 34.1078 32.2347 32.4844 31.2642ZM19.3519 28.8874C19.8546 27.1805 20.322 25.7191 22.1337 25.2436C22.5486 25.1351 22.9842 25.1351 23.3997 25.2447C25.295 25.7404 25.9672 27.5735 26.338 28.923C24.0288 28.481 21.6663 28.4669 19.3519 28.8874ZM7.28137 36.5306L3.75269 30.3749C3.63682 30.1722 3.70773 29.9077 3.90861 29.7897L10.2037 26.1294C10.4033 26.0132 10.6693 26.085 10.7847 26.2853L13.4564 30.9459L13.4016 31.0384C13.2703 31.1125 13.1415 31.1872 13.012 31.2643C10.7635 32.6083 8.81177 34.4082 7.28137 36.5306ZM3.3636 24.0336L5.27778 27.3733L7.44148 26.114L5.52668 22.7756L3.61251 21.9515L3.3636 24.0336ZM18.4054 24.3414C17.7209 26.117 16.8433 27.9163 15.6708 29.9469C16.363 29.6694 17.0711 29.4334 17.7916 29.2384C18.4404 27.1185 18.9145 24.6376 21.7829 23.8854C22.4268 23.7164 23.1061 23.7164 23.7512 23.8854C26.7727 24.6772 27.4772 27.7734 27.875 29.2852C28.5748 29.4809 29.2623 29.7169 29.9352 29.9913C28.1747 26.6399 27.3183 25.3671 26.1746 21.5453H19.3584C19.0712 22.5052 18.7551 23.4336 18.4054 24.3414ZM20.2461 18.0551C20.5339 16.6981 20.7623 15.334 20.9471 14.0539H24.5853C24.8805 16.0917 25.2499 18.1109 25.7825 20.1415H19.7516C19.9276 19.4638 20.0936 18.7713 20.2461 18.0551ZM21.3673 10.7535C21.6521 8.25663 21.8727 5.83955 22.1537 3.34209H23.3803C23.7299 6.47619 23.9911 9.51272 24.3939 12.6501H21.1389C21.226 11.9759 21.3014 11.3374 21.3673 10.7535ZM40.5024 19.5367L43.3206 21.176L43.3541 23.4781L43.2158 23.7188L38.3675 20.8997L38.5058 20.659L40.5024 19.5367ZM44.6032 15.6611L42.3095 16.9915L41.4601 18.4725L43.7574 19.8082L44.6062 18.3278L44.6032 15.6611ZM46 18.5147L45.9959 14.4458C45.9956 13.9073 45.4149 13.5693 44.9518 13.8387L41.4513 15.8692C41.3453 15.9302 41.2571 16.0193 41.1952 16.126L40.0015 18.2106L37.6588 19.5273C37.424 19.6596 37.3057 19.945 37.1556 20.2072C36.8419 20.088 36.4804 20.2108 36.3074 20.512L32.0347 27.9667C31.8617 28.269 31.937 28.6449 32.1965 28.8596L31.5262 30.0276C30.4762 27.9125 29.2951 26.0831 28.4271 23.8333C28.1393 23.088 27.8762 22.3274 27.6325 21.5454H28.2777C28.662 21.5454 28.9746 21.2312 28.9746 20.8434C28.9746 20.4557 28.662 20.1416 28.2777 20.1416H27.224C26.6753 18.1182 26.298 16.1071 25.9944 14.054H26.5083C26.8932 14.054 27.2052 13.7392 27.2052 13.352C27.2052 12.9643 26.8933 12.6501 26.5083 12.6501H25.799C25.3556 9.25821 25.0869 5.9543 24.6941 2.55952C24.6529 2.20621 24.3551 1.93821 24.002 1.93821H23.4451V0.701989C23.4451 0.314202 23.1332 0 22.7483 0C22.3639 0 22.0513 0.314202 22.0513 0.701989V1.93811H21.5315C21.1778 1.93811 20.8793 2.2061 20.8393 2.55942C20.4522 5.95636 20.1741 9.26161 19.7338 12.65H18.9881C18.6037 12.65 18.2911 12.9642 18.2911 13.3519C18.2911 13.7391 18.6037 14.0539 18.9881 14.0539H19.5384C19.2383 16.0964 18.8544 18.1279 18.3099 20.1415H17.2187C16.8343 20.1415 16.5217 20.4557 16.5217 20.8433C16.5217 21.2311 16.8343 21.5453 17.2187 21.5453H17.9003C17.0139 24.3897 15.9542 26.7049 14.2757 29.5679L11.9918 25.5832C11.4909 24.7094 10.3755 24.4076 9.50667 24.9134L8.64788 25.412L6.61773 21.8714C6.54242 21.7391 6.42707 21.636 6.28872 21.5761L3.51932 20.3851L1.30086 16.5154C1.10897 16.1793 0.68218 16.0642 0.348471 16.2581C0.0153751 16.452 -0.0994715 16.8812 0.0941533 17.2174L2.312 21.0871L1.95121 24.0982C1.93415 24.2487 1.9648 24.4011 2.0395 24.5333L4.07016 28.0751L3.21197 28.5738C2.34296 29.0793 2.04317 30.2022 2.54507 31.0768L6.41756 37.8336C6.3252 37.9884 6.23273 38.1425 6.14322 38.2996C5.95307 38.637 6.06904 39.0656 6.40397 39.2571C6.73707 39.4503 7.16274 39.3324 7.35452 38.9962C10.5036 33.4381 16.4015 29.9852 22.7477 29.9852C29.094 29.9852 34.992 33.438 38.141 38.9962C38.3336 39.3345 38.7585 39.4488 39.0921 39.2571C39.4265 39.0655 39.5424 38.6369 39.3523 38.2996C38.8914 37.4868 38.3699 36.7107 37.7995 35.9756L39.4582 33.0824C39.7802 33.2027 40.1341 33.0765 40.3052 32.7777L44.5785 25.3223C44.7497 25.0247 44.6812 24.6505 44.4178 24.4301C44.5677 24.1676 44.7542 23.9204 44.7504 23.6516L44.7116 20.95L45.9064 18.8654C45.9682 18.7589 46 18.6373 46 18.5147Z" fill="white"/>
</svg>
