<svg width="40" height="40" viewBox="0 0 40 40" fill="none" xmlns="http://www.w3.org/2000/svg">
<path d="M38.1238 35.0883V35.0001C38.1299 32.6434 37.3924 30.3448 36.0162 28.4315C34.6401 26.5183 32.6954 25.088 30.459 24.3442C30.2148 23.7937 29.8155 23.3262 29.31 22.9988C28.8044 22.6714 28.2145 22.4983 27.6123 22.5005H27.4991V17.3963C27.4975 16.1352 27.2041 14.8915 26.6417 13.7627L25.7248 11.9296C25.2487 10.9747 25.0003 9.92239 24.9992 8.85533V3.12614C24.9994 3.01622 24.9707 2.90819 24.9158 2.81295C24.8609 2.7177 24.7819 2.63861 24.6867 2.58365L20.3119 0.0837318C20.2302 0.0370151 20.1391 0.00932425 20.0453 0.00272328C19.9515 -0.00387769 19.8574 0.0107814 19.77 0.045608C17.8622 0.836555 15.8173 1.24367 13.7521 1.24367C11.6868 1.24367 9.64189 0.836555 7.73413 0.045608C7.64608 0.0099875 7.55106 -0.0050927 7.4563 0.0015133C7.36154 0.0081193 7.26954 0.0362377 7.18727 0.0837318L2.81241 2.58365C2.71722 2.63861 2.63821 2.7177 2.58334 2.81295C2.52848 2.90819 2.4997 3.01622 2.49992 3.12614V8.85533C2.49883 9.92239 2.25046 10.9747 1.77432 11.9296L0.857473 13.7627C0.295083 14.8915 0.00159922 16.1352 0 17.3963L0 33.1252C0 33.2909 0.065846 33.4499 0.183053 33.5671C0.300259 33.6843 0.459225 33.7502 0.62498 33.7502H15.6976C15.6504 34.1652 15.626 34.5825 15.6245 35.0001V35.0926C15.0393 35.2469 14.5302 35.6087 14.1919 36.1105C13.8537 36.6123 13.7093 37.22 13.7858 37.8203C13.8622 38.4206 14.1543 38.9727 14.6075 39.3737C15.0608 39.7747 15.6443 39.9973 16.2495 40H37.4988C38.1076 40.0026 38.6964 39.7824 39.1541 39.3809C39.6118 38.9795 39.9069 38.4245 39.9838 37.8205C40.0606 37.2166 39.9139 36.6054 39.5713 36.1021C39.2287 35.5988 38.7139 35.2382 38.1238 35.0883ZM36.8738 35.0001H16.8745C16.8679 33.026 17.449 31.0945 18.5437 29.4516C19.6384 27.8088 21.1973 26.5289 23.0218 25.7748C23.0275 25.9186 23.0431 26.0619 23.0686 26.2035L24.1936 32.2227C24.2746 32.6522 24.5031 33.0399 24.8397 33.3188C25.1762 33.5977 25.5996 33.7503 26.0367 33.7502H27.7116C28.1489 33.7501 28.5723 33.5972 28.9088 33.3179C29.2452 33.0387 29.4735 32.6506 29.5541 32.2208L30.6828 26.2017C30.7083 26.0604 30.7239 25.9176 30.7297 25.7742C32.553 26.5297 34.1106 27.8102 35.2046 29.4529C36.2986 31.0956 36.8796 33.0265 36.8738 35.0001ZM1.24996 22.5005H13.1246V25.0004H1.24996V22.5005ZM1.24996 18.7506H13.1246V21.2506H1.24996V18.7506ZM23.7324 23.6299C23.5554 23.8456 23.4082 24.0842 23.2949 24.3392C22.7518 24.5197 22.223 24.7408 21.7131 25.0004H14.3745V22.5005H26.1361C25.6769 22.4999 25.2233 22.6008 24.8078 22.7961C24.3922 22.9913 24.025 23.276 23.7324 23.6299ZM26.2492 21.2506H14.3745V18.7506H26.2492V21.2506ZM1.24996 26.2504H13.1246V28.7503H1.24996V26.2504ZM14.3745 26.2504H19.7919C18.9086 26.9629 18.1392 27.8059 17.5101 28.7503H14.3745V26.2504ZM29.0541 24.428C29.2306 24.6397 29.3581 24.8878 29.4273 25.1546C29.4966 25.4214 29.5059 25.7002 29.4547 25.971L28.3254 31.9909C28.2984 32.134 28.2224 32.2632 28.1103 32.3562C27.9983 32.4492 27.8572 32.5001 27.7116 32.5002H26.0367C25.891 32.5003 25.7498 32.4494 25.6376 32.3564C25.5254 32.2633 25.4493 32.1341 25.4223 31.9909L24.2936 25.971C24.2428 25.7003 24.2523 25.4217 24.3215 25.155C24.3906 24.8884 24.5176 24.6402 24.6935 24.4282C24.8694 24.2162 25.0898 24.0456 25.3392 23.9284C25.5885 23.8113 25.8606 23.7505 26.1361 23.7505H27.6123C27.8877 23.7501 28.1598 23.8106 28.4091 23.9277C28.6583 24.0448 28.8786 24.2157 29.0541 24.428ZM24.6067 12.4908L25.5236 14.3239C25.9994 15.2783 26.2478 16.3299 26.2492 17.3963V17.5007H14.3745V11.4215L20.225 1.47494L23.7493 3.48862V8.85533C23.7509 10.1165 24.0443 11.3602 24.6067 12.489V12.4908ZM18.6 1.77243L13.7496 10.0184L8.8991 1.77243C12.0613 2.73363 15.4378 2.73363 18.6 1.77243ZM1.97556 14.322L2.89241 12.489C3.4548 11.3602 3.74828 10.1165 3.74988 8.85533V3.48862L7.27415 1.47494L13.1246 11.4215V17.5007H1.24996V17.3963C1.25105 16.3293 1.49942 15.277 1.97556 14.322ZM1.24996 32.5002V30.0003H13.1246V32.5002H1.24996ZM14.3745 32.5002V30.0003H16.787C16.3948 30.7958 16.0984 31.6349 15.9039 32.5002H14.3745ZM37.4988 38.75H16.2495C15.918 38.75 15.6 38.6183 15.3656 38.3839C15.1312 38.1495 14.9995 37.8316 14.9995 37.5001C14.9995 37.1685 15.1312 36.8506 15.3656 36.6162C15.6 36.3818 15.918 36.2501 16.2495 36.2501H37.4988C37.8303 36.2501 38.1483 36.3818 38.3827 36.6162C38.6171 36.8506 38.7488 37.1685 38.7488 37.5001C38.7488 37.8316 38.6171 38.1495 38.3827 38.3839C38.1483 38.6183 37.8303 38.75 37.4988 38.75Z" fill="white"/>
</svg>
