<svg width="35" height="40" viewBox="0 0 35 40" fill="none" xmlns="http://www.w3.org/2000/svg">
<path d="M34.8488 10.6274C29.9757 5.27857 25.0758 5.88871 20.3374 6.47835C15.7472 7.04976 11.4087 7.58893 7.00058 2.87089V1.70131C7.00058 -0.565304 3.45613 -0.568903 3.45613 1.70131V3.93006C3.45613 4.68878 4.6368 4.68878 4.6368 3.93006V1.70131C4.6368 0.941261 5.81991 0.941261 5.81991 1.70131L5.81566 26.6352H4.6368V7.09717C4.6368 6.33845 3.45613 6.33845 3.45613 7.09717V26.6352H2.76552C1.24057 26.6352 0 27.8684 0 29.3842V32.1617C0 32.9211 0.320355 33.6536 0.878968 34.1717L2.90452 36.0502C3.23235 36.3543 3.41583 36.7842 3.40796 37.2297C3.40796 37.2331 3.40788 37.2365 3.40788 37.24V39.4132C3.40788 39.7373 3.67219 40 3.99821 40H10.7815C11.2089 40 11.4753 39.5705 11.3324 39.202L10.155 36.1684V27.3256C10.155 25.8098 8.91436 24.5765 7.38949 24.5765H7.00065V19.8617C7.96605 20.2442 8.92774 20.4139 9.88573 20.4138C13.5763 20.4135 17.2073 17.9076 20.7475 15.4638C21.6243 14.8587 22.5308 14.2329 23.4186 13.66C24.0588 13.2468 23.416 12.2625 22.7757 12.6756C21.8725 13.2583 20.9583 13.8895 20.0741 14.4998C15.5379 17.631 11.247 20.5924 7.00065 18.5817V4.5355C11.5337 8.7567 16.0789 8.19116 20.4841 7.64292C24.4626 7.14764 28.2517 6.67599 32.061 9.63075C30.1048 9.35064 27.9834 9.82104 25.5605 11.0499C24.8806 11.3948 25.4172 12.44 26.0971 12.0953C29.3121 10.4646 31.7904 10.2928 34.1327 11.5388C34.7021 11.8411 35.2825 11.1034 34.8488 10.6274ZM9.53303 37.8268L9.921 38.8264H4.58855V37.8268H9.53303ZM7.38941 25.7502C8.26334 25.7502 8.97426 26.4569 8.97426 27.3256V36.2778C8.97426 36.35 8.98764 36.4216 9.01385 36.4889L9.07761 36.6532H4.53251C4.4183 36.0979 4.13328 35.5848 3.7099 35.1921L1.68426 33.3134C1.36422 33.0166 1.18059 32.5968 1.18059 32.1616V29.3841C1.18059 28.5154 1.89159 27.8088 2.76544 27.8088H6.41016C6.56751 27.8088 6.71824 27.7463 6.82906 27.6354C6.93989 27.5244 7.0016 27.374 7.0005 27.2177L6.99987 27.1294C6.99995 27.1251 7.0005 27.121 7.0005 27.1168V25.7501L7.38941 25.7502Z" fill="white"/>
</svg>
