<svg width="40" height="40" viewBox="0 0 40 40" fill="none" xmlns="http://www.w3.org/2000/svg">
<path d="M24.5559 26.8648H8.93109C8.35765 26.8648 7.89043 27.3312 7.89043 27.9054V30.3735C7.89043 30.9469 8.35682 31.4141 8.93109 31.4141H24.5559C25.1294 31.4141 25.5966 30.9478 25.5966 30.3735V27.9054C25.5958 27.332 25.1294 26.8648 24.5559 26.8648ZM17.2414 27.8606H20.4232V30.4175H17.2414V27.8606ZM16.2456 30.4183H13.0639V27.8615H16.2456V30.4183ZM8.88627 30.3735V27.9054C8.88627 27.8822 8.90702 27.8606 8.93109 27.8606H12.068V30.4175H8.93109C8.90785 30.4183 8.88627 30.3967 8.88627 30.3735ZM24.5999 30.3735C24.5999 30.3967 24.5792 30.4183 24.5551 30.4183H21.4182V27.8615H24.5551C24.5783 27.8615 24.5999 27.8822 24.5999 27.9063V30.3735ZM31.7617 22.8665C31.7617 22.5918 31.9849 22.3685 32.2596 22.3685H33.0156C33.2903 22.3685 33.5136 22.5918 33.5136 22.8665C33.5136 23.1411 33.2903 23.3644 33.0156 23.3644H32.2596C31.9841 23.3644 31.7617 23.1411 31.7617 22.8665ZM35.5468 22.8665C35.5468 22.5918 35.77 22.3685 36.0447 22.3685H36.8007C37.0754 22.3685 37.2986 22.5918 37.2986 22.8665C37.2986 23.1411 37.0754 23.3644 36.8007 23.3644H36.0447C35.77 23.3644 35.5468 23.1411 35.5468 22.8665ZM35.5468 25.4059C35.5468 25.1312 35.77 24.9079 36.0447 24.9079H36.8007C37.0754 24.9079 37.2986 25.1312 37.2986 25.4059C37.2986 25.6806 37.0754 25.9038 36.8007 25.9038H36.0447C35.77 25.9038 35.5468 25.6814 35.5468 25.4059ZM35.5468 27.9461C35.5468 27.6714 35.77 27.4482 36.0447 27.4482H36.8007C37.0754 27.4482 37.2986 27.6714 37.2986 27.9461C37.2986 28.2208 37.0754 28.444 36.8007 28.444H36.0447C35.77 28.444 35.5468 28.2216 35.5468 27.9461ZM35.5468 30.4863C35.5468 30.2117 35.77 29.9884 36.0447 29.9884H36.8007C37.0754 29.9884 37.2986 30.2117 37.2986 30.4863C37.2986 30.761 37.0754 30.9843 36.8007 30.9843H36.0447C35.77 30.9843 35.5468 30.761 35.5468 30.4863ZM35.5468 33.0266C35.5468 32.7519 35.77 32.5287 36.0447 32.5287H36.8007C37.0754 32.5287 37.2986 32.7519 37.2986 33.0266C37.2986 33.3013 37.0754 33.5245 36.8007 33.5245H36.0447C35.77 33.5245 35.5468 33.3013 35.5468 33.0266ZM3.99418 16.332V17.2009C3.99418 17.4756 3.77094 17.6988 3.49625 17.6988C3.22156 17.6988 2.99833 17.4756 2.99833 17.2009V16.332C2.99833 16.0574 3.22156 15.8341 3.49625 15.8341C3.77094 15.8341 3.99418 16.0565 3.99418 16.332ZM3.99418 20.2424V21.1113C3.99418 21.386 3.77094 21.6092 3.49625 21.6092C3.22156 21.6092 2.99833 21.386 2.99833 21.1113V20.2424C2.99833 19.9677 3.22156 19.7445 3.49625 19.7445C3.77094 19.7445 3.99418 19.9677 3.99418 20.2424ZM3.99418 24.1528V25.0216C3.99418 25.2963 3.77094 25.5196 3.49625 25.5196C3.22156 25.5196 2.99833 25.2963 2.99833 25.0216V24.1528C2.99833 23.8781 3.22156 23.6548 3.49625 23.6548C3.77094 23.6548 3.99418 23.8781 3.99418 24.1528ZM3.99418 28.0639V28.9328C3.99418 29.2075 3.77094 29.4307 3.49625 29.4307C3.22156 29.4307 2.99833 29.2075 2.99833 28.9328V28.0639C2.99833 27.7893 3.22156 27.566 3.49625 27.566C3.77094 27.566 3.99418 27.7893 3.99418 28.0639ZM3.99418 31.9743V32.8432C3.99418 33.1179 3.77094 33.3411 3.49625 33.3411C3.22156 33.3411 2.99833 33.1179 2.99833 32.8432V31.9743C2.99833 31.6996 3.22156 31.4764 3.49625 31.4764C3.77094 31.4764 3.99418 31.6996 3.99418 31.9743ZM6.89956 17.2009V16.332C6.89956 16.0574 7.1228 15.8341 7.39748 15.8341C7.67217 15.8341 7.89541 16.0574 7.89541 16.332V17.2009C7.89541 17.4756 7.67217 17.6988 7.39748 17.6988C7.1228 17.6988 6.89956 17.4756 6.89956 17.2009ZM6.89956 21.1113V20.2424C6.89956 19.9677 7.1228 19.7445 7.39748 19.7445C7.67217 19.7445 7.89541 19.9677 7.89541 20.2424V21.1113C7.89541 21.386 7.67217 21.6092 7.39748 21.6092C7.1228 21.6092 6.89956 21.3868 6.89956 21.1113ZM7.35682 7.51215C7.35682 7.23747 7.58005 7.01423 7.85474 7.01423H11.0581C11.3327 7.01423 11.556 7.23747 11.556 7.51215C11.556 7.78684 11.3327 8.01008 11.0581 8.01008H7.85474C7.58005 8.01008 7.35682 7.78684 7.35682 7.51215ZM16.9875 11.6175H7.85474C7.58005 11.6175 7.35682 11.3943 7.35682 11.1196C7.35682 10.8449 7.58005 10.6217 7.85474 10.6217H16.9875C17.2622 10.6217 17.4854 10.8449 17.4854 11.1196C17.4854 11.3943 17.2622 11.6175 16.9875 11.6175ZM17.4854 14.7279C17.4854 15.0026 17.2622 15.2258 16.9875 15.2258H12.6796C12.4049 15.2258 12.1817 15.0026 12.1817 14.7279C12.1817 14.4532 12.4049 14.23 12.6796 14.23H16.9875C17.2622 14.23 17.4854 14.4532 17.4854 14.7279ZM17.4854 18.3354C17.4854 18.61 17.2622 18.8333 16.9875 18.8333H12.6796C12.4049 18.8333 12.1817 18.61 12.1817 18.3354C12.1817 18.0607 12.4049 17.8374 12.6796 17.8374H16.9875C17.2622 17.8374 17.4854 18.0607 17.4854 18.3354ZM17.4854 21.9436C17.4854 22.2183 17.2622 22.4416 16.9875 22.4416H12.6796C12.4049 22.4416 12.1817 22.2183 12.1817 21.9436C12.1817 21.6689 12.4049 21.4457 12.6796 21.4457H16.9875C17.2622 21.4457 17.4854 21.6689 17.4854 21.9436ZM39.5019 11.4283H35.3268C35.0522 11.4283 34.8289 11.6516 34.8289 11.9262V20.0905H29.5584C29.2837 20.0905 29.0605 20.3138 29.0605 20.5885V24.5951H19.7692V6.62087C19.7692 6.42419 19.6539 6.2466 19.4746 6.1661L17.9775 5.49722V1.48562C17.9775 1.21093 17.7543 0.987697 17.4796 0.987697H14.6987C14.424 0.987697 14.2008 1.21093 14.2008 1.48562V3.80926L5.77425 0.043302C5.6199 -0.0255775 5.44147 -0.0114697 5.3004 0.0798163C5.15849 0.171932 5.07301 0.328778 5.07301 0.497242V13.2939H0.497923C0.223236 13.2939 0 13.5171 0 13.7918V35.3826C0 35.6573 0.223236 35.8805 0.497923 35.8805H4.97011C5.01077 37.0697 5.99085 38.0249 7.18918 38.0249H8.49125C8.72196 39.1502 9.72029 40 10.9137 40C12.107 40 13.1053 39.151 13.336 38.0249H26.6621C26.8928 39.1502 27.8912 40 29.0845 40C30.2779 40 31.2762 39.151 31.5069 38.0249H33.6837C34.1102 38.0249 34.4903 37.8398 34.7534 37.5046C35.048 37.1286 35.0356 36.7046 35.0273 36.4515C35.0206 36.2349 35.0107 36.0183 34.999 35.8025H39.5019C39.7766 35.8025 39.9999 35.5793 39.9999 35.3046V20.5885V11.9262C39.9999 11.6507 39.7766 11.4283 39.5019 11.4283ZM35.8248 12.4242H39.004V20.0905H35.8248V12.4242ZM15.1958 1.98354H16.9808V5.05241L15.1958 4.25407V1.98354ZM6.06886 1.2657L18.7734 6.94369V24.5951H10.8937V13.7926C10.8937 13.5179 10.6705 13.2947 10.3958 13.2947H6.06886V1.2657ZM4.96845 26.8166V34.8855H0.995847V14.2906H9.89789V24.5951H7.89541V24.1528C7.89541 23.8781 7.67217 23.6548 7.39748 23.6548C7.1228 23.6548 6.89956 23.8781 6.89956 24.1528V24.6142C5.8116 24.7577 4.96845 25.6905 4.96845 26.8166ZM10.9145 39.0042C10.1004 39.0042 9.43731 38.3419 9.43731 37.527C9.43731 36.7129 10.0995 36.0498 10.9145 36.0498C11.7294 36.0498 12.3917 36.712 12.3917 37.527C12.3917 38.3419 11.7286 39.0042 10.9145 39.0042ZM29.0854 39.0042C28.2713 39.0042 27.6082 38.3419 27.6082 37.527C27.6082 36.7129 28.2704 36.0498 29.0854 36.0498C29.9003 36.0498 30.5625 36.712 30.5625 37.527C30.5625 38.3419 29.8995 39.0042 29.0854 39.0042ZM33.9708 36.8896C33.8961 36.9851 33.8049 37.0291 33.6845 37.0291H31.5078C31.2771 35.9038 30.2787 35.054 29.0854 35.054C27.892 35.054 26.8937 35.9029 26.663 37.0291H13.3369C13.1062 35.9038 12.1078 35.054 10.9145 35.054C9.72113 35.054 8.72279 35.9029 8.49208 37.0291H7.19001C6.5145 37.0291 5.96429 36.4797 5.96429 35.8033V26.8158C5.96429 26.1403 6.51367 25.5901 7.19001 25.5901H30.3783C30.5252 25.5901 30.9169 25.5901 31.3327 26.1569H28.014C27.5999 26.1569 27.2472 26.3337 27.048 26.6432C26.8331 26.9752 26.8223 27.4142 27.0173 27.8482L29.0447 32.3453C29.3684 33.0639 30.1974 33.6266 30.9318 33.6266H33.78C33.9177 34.5643 34.004 35.5162 34.0331 36.4813C34.0405 36.7237 34.0264 36.8191 33.9708 36.8896ZM31.8613 27.1536C32.6679 28.9054 33.2538 30.737 33.614 32.6316H30.9318C30.5833 32.6316 30.1161 32.3004 29.9526 31.937L27.9252 27.4399C27.8563 27.2864 27.8729 27.2025 27.8845 27.1851C27.8912 27.1751 27.931 27.1544 28.014 27.1544H31.8613V27.1536ZM39.004 34.8067H34.9244C34.7119 32.5428 34.2024 30.3519 33.4032 28.2581C33.4721 28.1727 33.5127 28.0648 33.5127 27.9469C33.5127 27.6947 33.3252 27.4864 33.0812 27.454C32.902 27.0299 32.7111 26.6092 32.5078 26.1934C32.4571 26.0905 32.4057 25.9951 32.3526 25.9046H33.0148C33.2895 25.9046 33.5127 25.6814 33.5127 25.4067C33.5127 25.132 33.2895 24.9088 33.0148 24.9088H32.2588C32.0596 24.9088 31.8878 25.0266 31.8082 25.1959C31.3127 24.7196 30.7883 24.5959 30.3775 24.5959H30.0563V21.0872H39.004V34.8067ZM27.3078 7.35282C27.3078 6.23083 26.3949 5.31797 25.2729 5.31797C24.1509 5.31797 23.2381 6.23083 23.2381 7.35282C23.2381 8.47481 24.1509 9.38766 25.2729 9.38766C26.3949 9.38766 27.3078 8.47481 27.3078 7.35282ZM24.2339 7.35282C24.2339 6.78021 24.7003 6.31382 25.2729 6.31382C25.8455 6.31382 26.3119 6.78021 26.3119 7.35282C26.3119 7.92543 25.8455 8.39182 25.2729 8.39182C24.7003 8.39182 24.2339 7.92626 24.2339 7.35282ZM24.8505 14.4839C24.9418 14.63 25.1012 14.7188 25.2729 14.7188C25.4447 14.7188 25.6049 14.63 25.6953 14.4839C25.8895 14.1719 26.1617 13.776 26.4771 13.3171C27.702 11.5354 29.3791 9.09472 29.3791 7.44493C29.3791 5.13042 27.5368 3.24661 25.2721 3.24661C23.0074 3.24661 21.1651 5.12959 21.1651 7.44493C21.1651 9.09472 22.8422 11.5345 24.0671 13.3171C24.3841 13.7752 24.6563 14.1719 24.8505 14.4839ZM25.2729 4.24246C26.9883 4.24246 28.3841 5.67897 28.3841 7.44493C28.3841 8.78518 26.7435 11.1727 25.6572 12.7528C25.5202 12.952 25.3916 13.1387 25.2729 13.3138C25.1543 13.1387 25.0256 12.9511 24.8887 12.7528C23.8032 11.1727 22.1617 8.78518 22.1617 7.44493C22.1626 5.67897 23.5576 4.24246 25.2729 4.24246ZM25.7709 17.1362C25.7709 17.4109 25.5476 17.6341 25.2729 17.6341C24.9982 17.6341 24.775 17.4109 24.775 17.1362V16.5063C24.775 16.2316 24.9982 16.0084 25.2729 16.0084C25.5476 16.0084 25.7709 16.2316 25.7709 16.5063V17.1362ZM25.7709 19.9719C25.7709 20.2465 25.5476 20.4698 25.2729 20.4698C24.9982 20.4698 24.775 20.2465 24.775 19.9719V19.342C24.775 19.0673 24.9982 18.8441 25.2729 18.8441C25.5476 18.8441 25.7709 19.0673 25.7709 19.342V19.9719ZM25.7709 22.1768V22.8067C25.7709 23.0814 25.5476 23.3046 25.2729 23.3046C24.9982 23.3046 24.775 23.0814 24.775 22.8067V22.1768C24.775 21.9021 24.9982 21.6789 25.2729 21.6789C25.5476 21.6789 25.7709 21.9021 25.7709 22.1768Z" fill="white"/>
</svg>
