<svg width="29" height="40" viewBox="0 0 29 40" fill="none" xmlns="http://www.w3.org/2000/svg">
<path d="M8.83385 35.2427H0.454463C0.203599 35.2427 0 35.0391 0 34.7883V29.4983C0 26.9242 2.09416 24.8301 4.66824 24.8301H5.93983C6.06162 24.8301 6.17888 24.8792 6.26432 24.9664L7.98582 26.7243L9.38193 25.2991C9.55735 25.12 9.84548 25.1164 10.0245 25.2927C10.2036 25.4681 10.2072 25.7563 10.0309 25.9353L8.31031 27.6923C8.22487 27.7795 8.10762 27.8286 7.98582 27.8286C7.86403 27.8286 7.74677 27.7795 7.66133 27.6923L5.74896 25.7399H4.66824C2.59498 25.7399 0.908926 27.4269 0.908926 29.4992V34.3347H8.83385C9.08471 34.3347 9.28831 34.5383 9.28831 34.7892C9.28831 35.04 9.08471 35.2427 8.83385 35.2427Z" fill="white"/>
<path d="M3.48117 35.2424C3.2303 35.2424 3.0267 35.0388 3.0267 34.788V29.4535C3.0267 29.2026 3.2303 28.999 3.48117 28.999C3.73203 28.999 3.93563 29.2026 3.93563 29.4535V34.788C3.93563 35.0388 3.73203 35.2424 3.48117 35.2424Z" fill="white"/>
<path d="M5.93984 25.738C5.68898 25.738 5.48538 25.5344 5.48538 25.2835V23.4393C5.48538 23.1885 5.68898 22.9849 5.93984 22.9849C6.19071 22.9849 6.39431 23.1885 6.39431 23.4393V25.2835C6.39431 25.5344 6.19162 25.738 5.93984 25.738Z" fill="white"/>
<path d="M10.0327 25.4951C9.78185 25.4951 9.57825 25.2915 9.57825 25.0406V23.5282C9.57825 23.2773 9.78185 23.0737 10.0327 23.0737C10.2836 23.0737 10.4872 23.2773 10.4872 23.5282V25.0406C10.4872 25.2915 10.2836 25.4951 10.0327 25.4951Z" fill="white"/>
<path d="M8.04036 24.6837C8.03854 24.6837 8.03672 24.6837 8.0349 24.6837C6.13525 24.681 4.05926 23.1686 3.98928 19.8537C3.98382 19.6028 4.18288 19.3947 4.43374 19.3901C4.68642 19.3883 4.89275 19.5838 4.89729 19.8346C4.95456 22.5387 6.56426 23.773 8.03581 23.7748H8.03945C9.50827 23.7748 11.1162 22.5496 11.1816 19.8555C11.188 19.6047 11.3979 19.4065 11.647 19.412C11.8978 19.4183 12.096 19.6265 12.0905 19.8773C12.0115 23.1804 9.93638 24.6837 8.04036 24.6837Z" fill="white"/>
<path d="M11.637 20.3306C11.6024 20.3306 11.567 20.327 11.5315 20.3179C11.3316 20.2706 11.1889 20.0943 11.1825 19.8898C11.1334 18.2492 10.7799 17.4975 10.5663 17.1903C8.79386 18.1474 7.36321 17.6066 6.39793 17.2421C5.90075 17.0539 5.67988 16.9903 5.57172 17.0185C5.54354 18.6037 4.88184 19.9825 4.85276 20.0425C4.78277 20.1861 4.64279 20.2824 4.48373 20.2961C4.32467 20.3106 4.17015 20.2397 4.07653 20.1098C2.96855 18.5818 2.88857 16.8849 3.85021 15.3306C4.97183 13.5173 7.3314 12.343 9.22287 12.6566C10.5554 12.8774 11.4888 13.7773 11.8642 15.1979C13.8002 16.7876 12.1114 19.9552 12.0369 20.0925C11.9551 20.2425 11.8006 20.3306 11.637 20.3306ZM8.58481 13.5155C7.14234 13.5155 5.45265 14.4671 4.62189 15.8096C4.18106 16.5231 3.83021 17.5711 4.35648 18.7891C4.51736 18.2665 4.67552 17.5602 4.66279 16.8313C4.66097 16.7404 4.68733 16.6513 4.73641 16.5749C5.22451 15.8278 6.01891 16.1278 6.71878 16.3922C7.67406 16.7531 8.86294 17.203 10.4008 16.235C10.5417 16.1468 10.719 16.1414 10.8644 16.2223C10.9989 16.2968 11.5143 16.6558 11.8342 17.872C11.9478 17.1221 11.8642 16.3141 11.1943 15.8305C11.1043 15.766 11.0416 15.6706 11.0171 15.5633C10.7544 14.4162 10.0827 13.7218 9.0729 13.5546C8.91384 13.5282 8.75114 13.5155 8.58481 13.5155Z" fill="white"/>
<path d="M6.21614 29.0103C6.17979 29.0103 6.14434 29.0057 6.10889 28.9976C5.98527 28.9676 5.87984 28.8867 5.81803 28.7758L4.01927 25.5109C3.89838 25.291 3.97837 25.0146 4.19833 24.8937C4.41829 24.7729 4.6946 24.8528 4.81549 25.0728L6.3752 27.9041L7.73405 26.9961C7.9431 26.857 8.22487 26.9125 8.36484 27.1215C8.50391 27.3306 8.44846 27.6123 8.23941 27.7523L6.46882 28.9357C6.39338 28.9839 6.30522 29.0103 6.21614 29.0103Z" fill="white"/>
<path d="M9.75641 29.01C9.66734 29.01 9.57917 28.9837 9.50373 28.9337L7.73314 27.7503C7.52409 27.6103 7.46864 27.3285 7.60771 27.1195C7.74678 26.9104 8.02945 26.855 8.2385 26.994L9.59735 27.902L9.71278 27.693C9.83367 27.473 10.11 27.3931 10.3299 27.5139C10.5499 27.6348 10.6299 27.9111 10.509 28.1311L10.1554 28.7737C10.0936 28.8855 9.9891 28.9655 9.86457 28.9955C9.82822 29.0064 9.79277 29.01 9.75641 29.01Z" fill="white"/>
<path d="M26.8033 35.2425H18.4239C18.1731 35.2425 17.9695 35.0389 17.9695 34.788C17.9695 34.5372 18.1731 34.3336 18.4239 34.3336H26.3489V30.1952C26.3489 27.9138 24.4928 26.0569 22.2105 26.0569H21.5752L19.7419 29.2318C19.661 29.3726 19.511 29.459 19.3483 29.459C19.1856 29.459 19.0356 29.3726 18.9547 29.2318L17.1214 26.0569H17.1142C16.8633 26.0569 16.6597 25.8533 16.6597 25.6024C16.6597 25.3515 16.8633 25.1479 17.1142 25.1479H17.3832C17.5459 25.1479 17.6959 25.2343 17.7768 25.3752L19.3474 28.0956L20.918 25.3752C20.9989 25.2343 21.1489 25.1479 21.3116 25.1479H22.2096C24.9927 25.1479 27.2569 27.4121 27.2569 30.1952V34.788C27.2578 35.0389 27.0542 35.2425 26.8033 35.2425ZM15.0982 26.2732C14.9046 26.2732 14.7264 26.1496 14.6646 25.9551C14.5892 25.716 14.7219 25.4606 14.9618 25.3852L14.9946 25.3752C15.2345 25.2997 15.489 25.4324 15.5645 25.6724C15.6399 25.9114 15.5072 26.1669 15.2672 26.2423L15.2345 26.2523C15.1891 26.2659 15.1427 26.2732 15.0982 26.2732Z" fill="white"/>
<path d="M24.2074 35.2429C23.9566 35.2429 23.753 35.0393 23.753 34.7884V29.663C23.753 29.4121 23.9566 29.2085 24.2074 29.2085C24.4583 29.2085 24.6619 29.4121 24.6619 29.663V34.7884C24.6619 35.0393 24.4583 35.2429 24.2074 35.2429Z" fill="white"/>
<path d="M19.3483 29.459C19.1856 29.459 19.0356 29.3726 18.9547 29.2318L16.9905 25.8297C16.8651 25.6124 16.9396 25.3343 17.1569 25.2089C17.3741 25.0834 17.6522 25.158 17.7777 25.3752L19.3483 28.0956L20.9189 25.3752C21.0443 25.158 21.3225 25.0834 21.5397 25.2089C21.7569 25.3343 21.8315 25.6124 21.706 25.8297L19.7419 29.2318C19.661 29.3717 19.5101 29.459 19.3483 29.459Z" fill="white"/>
<path d="M23.743 26.3227C23.6548 26.3227 23.5657 26.2972 23.4876 26.2436C23.2803 26.1027 23.2267 25.8201 23.3676 25.6119C25.9308 21.848 23.5621 15.5083 21.2707 13.8622C20.2872 13.156 19.8682 13.7095 19.7101 13.9177C19.6237 14.0313 19.4901 14.0976 19.3474 14.0976C19.2047 14.0976 19.0711 14.0313 18.9848 13.9177C18.6694 13.5014 18.3122 13.4114 17.8286 13.6259C16.9106 14.0322 15.849 15.4365 15.1245 17.2016C14.2992 19.214 14.0184 21.3936 14.3538 23.1814C14.4001 23.4278 14.2374 23.6659 13.9911 23.7123C13.7448 23.7586 13.5067 23.5959 13.4603 23.3496C12.6759 19.1731 15.0491 13.8622 17.4605 12.7942C18.154 12.487 18.8184 12.5616 19.3465 12.9897C20.02 12.4416 20.9053 12.4807 21.8006 13.1233C23.1513 14.0931 24.4147 16.2854 25.02 18.7086C25.4354 20.3729 25.8717 23.5486 24.1184 26.1218C24.0311 26.2527 23.8884 26.3227 23.743 26.3227ZM21.3116 26.0573C21.2225 26.0573 21.1335 26.0318 21.0544 25.9773C20.6608 25.7073 20.5336 25.3819 20.4963 25.1565C20.4236 24.7184 20.6308 24.353 20.7117 24.2303L22.5805 20.5147C20.8553 19.5239 19.8528 18.246 19.3474 17.4361C18.8421 18.246 17.8395 19.5239 16.1135 20.5147L17.9822 24.2303C18.0631 24.354 18.2703 24.7193 18.1976 25.1565C18.1604 25.3819 18.0331 25.7064 17.6395 25.9773C17.4323 26.1191 17.1496 26.0673 17.0078 25.86C16.8661 25.6528 16.9179 25.3701 17.1251 25.2283C17.2296 25.1565 17.2887 25.0829 17.3005 25.0084C17.3214 24.8811 17.226 24.7348 17.2251 24.7339C17.2087 24.713 17.1951 24.6903 17.1833 24.6657L15.1027 20.5292C14.9909 20.3065 15.0791 20.0347 15.3009 19.9211C17.9704 18.5468 18.9166 16.3272 18.9257 16.3045C18.9966 16.1345 19.162 16.0237 19.3456 16.0237H19.3465C19.5301 16.0246 19.6964 16.1354 19.7664 16.3054C19.7755 16.3263 20.7217 18.5468 23.3912 19.9211C23.613 20.0356 23.7012 20.3065 23.5894 20.5292L21.5088 24.6657C21.497 24.6893 21.4825 24.7121 21.467 24.7339C21.4443 24.7666 21.3725 24.9011 21.3925 25.012C21.4061 25.0847 21.4643 25.1574 21.5679 25.2283C21.7752 25.3701 21.827 25.6537 21.6852 25.86C21.5988 25.9882 21.457 26.0573 21.3116 26.0573Z" fill="white"/>
<path d="M19.3483 25.5079C18.6648 25.5079 17.9813 25.2825 17.3314 24.8326C17.1251 24.6899 17.0733 24.4063 17.216 24.2C17.3587 23.9936 17.6422 23.9418 17.8486 24.0845C18.8293 24.7635 19.8664 24.7635 20.848 24.0845C21.0544 23.9418 21.337 23.9936 21.4806 24.2C21.6233 24.4063 21.5715 24.6899 21.3652 24.8326C20.7144 25.2825 20.0318 25.5079 19.3483 25.5079Z" fill="white"/>
<path d="M19.2628 40H7.9949C7.74404 40 7.54044 39.7964 7.54044 39.5455C7.54044 35.1591 8.03853 33.8129 11.5379 32.6986C11.7415 32.6341 11.9624 32.7195 12.0696 32.904L13.6293 35.6044L15.189 32.904C15.2963 32.7186 15.5172 32.6332 15.7208 32.6986C19.221 33.8129 19.7182 35.1591 19.7182 39.5455C19.7173 39.7964 19.5137 40 19.2628 40ZM8.45118 39.0911H18.8066C18.7748 35.3854 18.3039 34.5319 15.7908 33.6784L14.022 36.7415C13.9411 36.8824 13.7911 36.9687 13.6284 36.9687C13.4657 36.9687 13.3158 36.8824 13.2349 36.7415L11.4661 33.6784C8.95382 34.5319 8.48299 35.3854 8.45118 39.0911Z" fill="white"/>
<path d="M11.6761 33.5859C11.4252 33.5859 11.2216 33.3823 11.2216 33.1315V31.3763C11.2216 31.1255 11.4252 30.9219 11.6761 30.9219C11.9269 30.9219 12.1305 31.1255 12.1305 31.3763V33.1315C12.1305 33.3823 11.9269 33.5859 11.6761 33.5859Z" fill="white"/>
<path d="M15.5699 33.5859C15.319 33.5859 15.1154 33.3823 15.1154 33.1315V31.4618C15.1154 31.2109 15.319 31.0073 15.5699 31.0073C15.8207 31.0073 16.0243 31.2109 16.0243 31.4618V33.1315C16.0243 33.3823 15.8207 33.5859 15.5699 33.5859Z" fill="white"/>
<path d="M13.663 32.6688C13.6611 32.6688 13.6602 32.6688 13.6584 32.6688C11.9942 32.666 10.1754 31.3454 10.1145 28.4513C10.1091 28.2005 10.3081 27.9923 10.559 27.9878H10.569C10.8153 27.9878 11.018 28.185 11.0234 28.4323C11.0716 30.7164 12.4241 31.758 13.6602 31.7598H13.6639C14.8973 31.7598 16.2489 30.7246 16.3034 28.4504C16.3098 28.2032 16.5115 28.0069 16.7579 28.0069H16.7688C17.0196 28.0132 17.2178 28.2214 17.2123 28.4723C17.1414 31.3563 15.3236 32.6688 13.663 32.6688Z" fill="white"/>
<path d="M16.757 28.9158C16.7433 28.9158 16.7306 28.9149 16.717 28.914C16.5079 28.8958 16.338 28.7358 16.307 28.5286C16.1389 27.397 15.6753 26.7907 15.3336 26.4871C14.7964 27.4052 13.5176 27.4433 12.5423 27.4715C11.9433 27.4888 11.1971 27.5106 11.0162 27.7515C10.9198 27.8787 10.9589 28.1359 11.0089 28.3286C11.0598 28.5268 10.9726 28.734 10.7953 28.8358C10.6181 28.9376 10.3945 28.9085 10.2491 28.7649C8.96202 27.4897 8.74115 26.0463 9.64281 24.8047C10.9253 23.0378 14.0475 22.2634 15.9453 23.2405C16.9133 23.7386 18.3612 25.0983 17.1878 28.6059C17.1251 28.7922 16.9506 28.9158 16.757 28.9158ZM14.0166 23.724C12.6468 23.724 11.0989 24.3457 10.3781 25.3383C9.93548 25.9482 9.89185 26.6053 10.2418 27.2743C10.2572 27.2506 10.2736 27.227 10.29 27.2043C10.7335 26.6144 11.5988 26.5899 12.5159 26.5626C13.7611 26.5262 14.5265 26.4508 14.6555 25.7173C14.6792 25.5837 14.761 25.4682 14.8782 25.401C14.9955 25.3337 15.1373 25.3228 15.2645 25.371C15.3109 25.3883 16.1089 25.7046 16.687 26.7689C16.8106 25.6673 16.5906 24.5939 15.5299 24.0476C15.0982 23.8267 14.5719 23.724 14.0166 23.724Z" fill="white"/>
<path d="M10.6308 39.9999C10.3799 39.9999 10.1763 39.7963 10.1763 39.5454V36.5096C10.1763 36.2588 10.3799 36.0552 10.6308 36.0552C10.8817 36.0552 11.0853 36.2588 11.0853 36.5096V39.5454C11.0853 39.7963 10.8817 39.9999 10.6308 39.9999Z" fill="white"/>
<path d="M16.627 39.9999C16.3761 39.9999 16.1725 39.7963 16.1725 39.5454V36.5096C16.1725 36.2588 16.3761 36.0552 16.627 36.0552C16.8778 36.0552 17.0814 36.2588 17.0814 36.5096V39.5454C17.0814 39.7963 16.8778 39.9999 16.627 39.9999Z" fill="white"/>
<path d="M26.9533 10.1774C26.9442 10.1774 26.9342 10.1774 26.9251 10.1765C26.5597 10.1538 25.7153 10.1401 24.6455 10.1238C21.8742 10.0801 17.2351 10.0065 13.2503 9.66476C6.53883 9.08941 5.48811 8.06596 5.32269 7.23884L4.80187 4.63295C4.77551 4.49934 4.81005 4.36118 4.89549 4.25575C4.98093 4.15031 5.11091 4.08941 5.24634 4.08941L24.631 4.06396H24.6319C25.3781 4.06396 26.757 5.53097 27.0251 5.82546C27.6523 6.5117 28.7039 7.81874 28.7057 8.85582C28.7057 9.25211 28.5366 10.1747 26.9533 10.1774ZM6.21344 7.05978C6.2507 7.2443 6.76697 8.19503 13.3276 8.75857C17.2814 9.09759 21.8997 9.17122 24.6592 9.21485C25.7681 9.23212 26.5734 9.24484 26.966 9.26847C27.7568 9.26393 27.7841 9.00307 27.7931 8.91672C27.8422 8.45589 27.3287 7.54061 26.4861 6.58532C25.6217 5.6055 24.8291 5.03015 24.6128 4.97289L5.80078 4.99743L6.21344 7.05978Z" fill="white"/>
<path d="M5.24722 5C4.99545 5 4.79276 4.79549 4.79276 4.54463L4.79821 0.45719C4.79821 0.206326 5.00181 0.0036357 5.25176 0.0036357L7.88765 0H7.88856C8.0667 0 8.22849 0.104526 8.30212 0.267224L10.1545 4.35194C10.2581 4.58099 10.1572 4.85003 9.92818 4.95364C9.69914 5.05726 9.43009 4.95637 9.32648 4.72732L7.59588 0.909835L5.70623 0.912561L5.70077 4.54645C5.70077 4.7964 5.49808 5 5.24722 5Z" fill="white"/>
<path d="M21.2498 7.61666C20.9989 7.61666 20.7953 7.41397 20.7953 7.16311C20.7953 6.91225 20.998 6.70865 21.2489 6.70774L23.7284 6.7041H23.7293C23.9802 6.7041 24.1838 6.90679 24.1838 7.15766C24.1838 7.40852 23.9811 7.61212 23.7302 7.61303L21.2498 7.61666C21.2507 7.61666 21.2507 7.61666 21.2498 7.61666Z" fill="white"/>
<path d="M14.8409 13.9837H12.116C11.9614 13.9837 11.8169 13.9046 11.7333 13.7746C11.6497 13.6446 11.6379 13.481 11.7024 13.3402L13.6448 9.08366C13.7493 8.85552 14.0183 8.75463 14.2474 8.85915C14.4755 8.96368 14.5764 9.23272 14.4719 9.46177L12.8231 13.0748H14.6509L18.473 9.21C18.6493 9.03185 18.9374 9.03003 19.1156 9.20636C19.2937 9.38269 19.2956 9.67082 19.1192 9.84897L15.1645 13.8492C15.0791 13.9346 14.9627 13.9837 14.8409 13.9837Z" fill="white"/>
<path d="M13.9766 4.98615C13.8039 4.98615 13.6394 4.88708 13.563 4.72074L11.7033 0.646937C11.6388 0.506054 11.6506 0.342447 11.7342 0.212471C11.8179 0.0824945 11.9615 0.00341797 12.1169 0.00341797H14.8419C14.9637 0.00341797 15.08 0.051591 15.1654 0.137939L19.1874 4.20538C19.3638 4.38353 19.3619 4.67166 19.1838 4.84799C19.0056 5.02432 18.7175 5.02251 18.5412 4.84436L14.6528 0.911435H12.825L14.391 4.34263C14.4956 4.57077 14.3947 4.84072 14.1665 4.94525C14.1038 4.97252 14.0393 4.98615 13.9766 4.98615Z" fill="white"/>
</svg>
