<svg width="40" height="40" viewBox="0 0 40 40" fill="none" xmlns="http://www.w3.org/2000/svg">
<path d="M19.9995 1.3333C20.6447 1.3333 21.2895 1.36625 21.9313 1.43201L22.0677 0.10571C20.2291 -0.0829397 18.3733 -0.0188692 16.5521 0.296135L16.7805 1.60974C17.8436 1.42563 18.9206 1.33314 19.9995 1.3333Z" fill="white"/>
<path d="M9.05775 4.87472L8.2753 3.79517C5.71136 5.6479 3.62412 8.08311 2.18543 10.9003C0.746739 13.7175 -0.00226637 16.8361 7.96407e-05 19.9994C-0.00864666 23.0764 0.699853 26.113 2.06936 28.8683L3.264 28.2764C1.98611 25.7049 1.32509 22.8709 1.33338 19.9994C1.331 17.0468 2.03007 14.1358 3.37302 11.5063C4.71596 8.87672 6.66436 6.60381 9.05775 4.87472Z" fill="white"/>
<path d="M20.6437 38.6548L20.6888 39.9873C22.5644 39.9248 24.4218 39.5982 26.2062 39.0171L25.7927 37.7495C24.1274 38.2918 22.394 38.5966 20.6437 38.6548Z" fill="white"/>
<path d="M7.99988 19.3328H9.33318V34.6657H7.99988V19.3328Z" fill="white"/>
<path d="M11.9998 19.3328H13.3331V34.6657H11.9998V19.3328Z" fill="white"/>
<path d="M15.9997 19.3328H17.333V34.6657H15.9997V19.3328Z" fill="white"/>
<path d="M39.6214 20.6429L27.6061 14.8632C27.128 14.634 26.5785 14.6037 26.0781 14.7791C25.5777 14.9544 25.1673 15.3211 24.9369 15.7987L21.3329 23.2913V16.6662C21.3319 15.7825 20.9804 14.9353 20.3555 14.3104C19.7306 13.6855 18.8834 13.334 17.9996 13.333H15.333V2.6666C15.333 1.95937 15.0521 1.28111 14.552 0.781029C14.0519 0.280945 13.3737 0 12.6664 0C11.9592 0 11.281 0.280945 10.7809 0.781029C10.2808 1.28111 9.99985 1.95937 9.99985 2.6666V13.333H7.33325C6.44953 13.334 5.60228 13.6855 4.97739 14.3104C4.35251 14.9353 4.001 15.7825 4 16.6662V33.9991C4.00081 34.6838 4.21206 35.3516 4.60512 35.9121C4.99818 36.4726 5.55405 36.8988 6.19741 37.1329C6.0547 37.4295 5.98742 37.7568 6.00154 38.0857C6.01565 38.4146 6.11073 38.7349 6.27833 39.0182C6.44593 39.3016 6.68087 39.5391 6.96232 39.7099C7.24376 39.8806 7.563 39.9793 7.89171 39.9971C8.22042 40.0149 8.54844 39.9512 8.84666 39.8118C9.14489 39.6725 9.4041 39.4616 9.60129 39.198C9.79849 38.9344 9.92757 38.6262 9.97709 38.3008C10.0266 37.9753 9.99504 37.6427 9.88517 37.3324H15.4477C15.338 37.6427 15.3065 37.9752 15.3561 38.3006C15.4056 38.6259 15.5347 38.934 15.7319 39.1975C15.9291 39.461 16.1883 39.6718 16.4864 39.8111C16.7846 39.9505 17.1125 40.0141 17.4411 39.9963C17.7698 39.9785 18.0889 39.8799 18.3703 39.7092C18.6517 39.5385 18.8866 39.301 19.0542 39.0178C19.2218 38.7345 19.3169 38.4143 19.3311 38.0855C19.3453 37.7567 19.2781 37.4295 19.1355 37.1329C19.6595 36.9416 20.1274 36.6223 20.4966 36.2041C20.8658 35.7859 21.1245 35.282 21.2493 34.7382L30.6632 39.2664C30.7421 39.3045 30.8277 39.3266 30.9151 39.3315C31.0026 39.3364 31.0901 39.324 31.1727 39.295C31.2554 39.2661 31.3315 39.2211 31.3968 39.1627C31.462 39.1043 31.5151 39.0336 31.553 38.9547L39.9332 21.5326C40.0099 21.3732 40.0201 21.19 39.9616 21.0232C39.9031 20.8563 39.7808 20.7195 39.6214 20.6429ZM26.7404 15.999C26.84 15.999 26.9384 16.0215 27.0282 16.0648L38.4427 21.5554L37.8647 22.7569L26.4502 17.2664C26.2912 17.1896 26.169 17.053 26.1105 16.8863C26.052 16.7197 26.062 16.5366 26.1382 16.3773L26.1385 16.3766C26.1931 16.2634 26.2785 16.1679 26.385 16.1011C26.4915 16.0343 26.6147 15.9989 26.7404 15.999ZM11.3331 2.6666C11.3331 2.31299 11.4736 1.97386 11.7237 1.72381C11.9737 1.47377 12.3128 1.3333 12.6664 1.3333C13.0201 1.3333 13.3592 1.47377 13.6092 1.72381C13.8593 1.97386 13.9997 2.31299 13.9997 2.6666V13.333H11.3331V2.6666ZM8.66655 37.999C8.66655 38.1309 8.62745 38.2598 8.5542 38.3694C8.48095 38.479 8.37683 38.5645 8.25502 38.6149C8.1332 38.6654 7.99916 38.6786 7.86984 38.6529C7.74053 38.6272 7.62174 38.5637 7.52851 38.4704C7.43527 38.3772 7.37178 38.2584 7.34606 38.1291C7.32034 37.9998 7.33354 37.8657 7.384 37.7439C7.43445 37.6221 7.5199 37.518 7.62953 37.4447C7.73916 37.3715 7.86805 37.3324 7.9999 37.3324C8.17664 37.3326 8.34609 37.4029 8.47107 37.5279C8.59605 37.6529 8.66635 37.8223 8.66655 37.999ZM17.333 38.6657C17.2011 38.6657 17.0723 38.6266 16.9626 38.5533C16.853 38.4801 16.7676 38.376 16.7171 38.2542C16.6666 38.1323 16.6534 37.9983 16.6792 37.869C16.7049 37.7397 16.7684 37.6209 16.8616 37.5276C16.9548 37.4344 17.0736 37.3709 17.2029 37.3452C17.3323 37.3195 17.4663 37.3327 17.5881 37.3831C17.7099 37.4336 17.814 37.519 17.8873 37.6287C17.9606 37.7383 17.9996 37.8672 17.9996 37.999C17.9994 38.1758 17.9291 38.3452 17.8042 38.4702C17.6792 38.5952 17.5097 38.6655 17.333 38.6657ZM17.9996 35.9991H7.33325C6.80302 35.9985 6.29467 35.7876 5.91974 35.4127C5.54481 35.0377 5.33391 34.5294 5.3333 33.9991V16.6662C5.33391 16.136 5.54481 15.6277 5.91974 15.2527C6.29467 14.8778 6.80302 14.6669 7.33325 14.6663H9.99985V17.9995H11.3331V14.6663H13.9997V17.9995H15.333V14.6663H17.9996C18.5299 14.6669 19.0382 14.8778 19.4132 15.2527C19.7881 15.6277 19.999 16.136 19.9996 16.6662V26.0631L17.7126 30.8177C17.5987 31.0544 17.5326 31.3112 17.518 31.5734C17.5034 31.8357 17.5406 32.0982 17.6275 32.3461C17.7143 32.5939 17.8491 32.8223 18.0242 33.018C18.1993 33.2138 18.4113 33.3731 18.6479 33.4869L19.9945 34.1346C19.9596 34.6402 19.7344 35.1137 19.3642 35.4597C18.994 35.8057 18.5064 35.9984 17.9996 35.9991ZM30.6404 37.776L19.2259 32.2855C19.0666 32.2088 18.9442 32.072 18.8857 31.9052C18.8273 31.7383 18.8375 31.555 18.9141 31.3957L25.3213 18.0756C25.4812 18.2368 25.6676 18.3695 25.8723 18.4679L37.2868 23.9584L30.6404 37.776Z" fill="white"/>
<path d="M30.7012 22.2702C29.8695 21.8702 28.9379 21.7258 28.0241 21.8552C27.1103 21.9847 26.2555 22.3822 25.5676 22.9975C24.8798 23.6128 24.3898 24.4182 24.1597 25.312C23.9296 26.2058 23.9697 27.1477 24.2749 28.0186C24.5801 28.8896 25.1367 29.6505 25.8744 30.2051C26.612 30.7598 27.4976 31.0832 28.419 31.1346C29.3405 31.1859 30.2565 30.9629 31.0512 30.4936C31.8459 30.0244 32.4837 29.33 32.8837 28.4984C33.4188 27.3828 33.4895 26.1006 33.0803 24.933C32.6712 23.7654 31.8156 22.8077 30.7012 22.2702ZM31.9107 27.2906L30.7155 26.7157C30.9826 25.9789 31.1137 25.1997 31.1026 24.416L31.0991 24.185C31.4839 24.5931 31.7599 25.0914 31.9018 25.6341C32.0436 26.1768 32.0467 26.7464 31.9107 27.2906ZM27.7664 28.6008L27.5907 28.7367L27.5873 28.5147C27.5794 27.9381 27.6685 27.3643 27.8509 26.8173L28.9279 27.3353C28.6144 27.8193 28.2217 28.247 27.7664 28.6008ZM28.4289 25.6158C28.7424 25.1318 29.1351 24.704 29.5905 24.3503L29.7661 24.2143L29.7695 24.4364C29.7774 25.013 29.6883 25.5868 29.5059 26.1339L28.4289 25.6158ZM28.6837 23.1425C28.7744 23.1425 28.8654 23.1474 28.9563 23.155L28.7742 23.296C28.155 23.7765 27.6282 24.3653 27.2192 25.0339L26.0253 24.4597C26.3372 24.0504 26.7394 23.7186 27.2005 23.4901C27.6615 23.2617 28.1691 23.1427 28.6837 23.1425ZM25.4456 25.6603L26.6413 26.2354C26.3742 26.9722 26.2431 27.7514 26.2542 28.535L26.2578 28.7682C25.8721 28.3602 25.5955 27.8615 25.4535 27.3183C25.3116 26.7751 25.3088 26.2048 25.4456 25.6603ZM28.4 29.7965L28.5826 29.6551C29.2018 29.1746 29.7286 28.5858 30.1376 27.9172L31.3328 28.4921C30.9925 28.938 30.5455 29.2911 30.033 29.5191C29.5206 29.747 28.959 29.8424 28.4 29.7965Z" fill="white"/>
<path d="M22.1893 32.229L22.7666 31.0278L28.7731 33.9144L28.1958 35.1156L22.1893 32.229Z" fill="white"/>
<path d="M28.8041 9.19507C28.4135 8.80548 27.8844 8.58669 27.3327 8.58669C26.7811 8.58669 26.2519 8.80548 25.8614 9.19507C25.7211 9.33505 25.531 9.41366 25.3328 9.41366C25.1346 9.41366 24.9445 9.33505 24.8042 9.19507L24.6375 9.02841C23.7604 8.15331 22.5719 7.66187 21.3329 7.66187C20.0938 7.66187 18.9054 8.15331 18.0282 9.02841C17.8498 9.20782 17.6375 9.35005 17.4038 9.44688C17.17 9.54371 16.9194 9.59321 16.6663 9.59252V10.9258C17.0945 10.927 17.5187 10.8432 17.9143 10.6794C18.3099 10.5155 18.669 10.2748 18.971 9.97126C19.5979 9.34576 20.4473 8.99447 21.3329 8.99447C22.2184 8.99447 23.0679 9.34576 23.6947 9.97126L23.8614 10.1379C24.252 10.5275 24.7811 10.7463 25.3328 10.7463C25.8844 10.7463 26.4136 10.5275 26.8041 10.1379C26.9444 9.99788 27.1345 9.91923 27.3327 9.91923C27.5309 9.91923 27.721 9.99788 27.8613 10.1379L29.09 11.3666C31.4796 13.7695 34.6884 15.1813 38.0743 15.3197C38.361 16.431 38.5444 17.5665 38.6221 18.7116L39.9523 18.6209C39.776 15.979 39.0718 13.3991 37.8815 11.0339L36.6901 11.6323C37.0679 12.3849 37.3941 13.1622 37.6665 13.9589C34.7814 13.73 32.0735 12.476 30.0328 10.4238L28.8041 9.19507Z" fill="white"/>
<path d="M22.9852 3.23543L34.0891 10.0211C34.4718 10.2562 34.9226 10.3552 35.3685 10.3022C35.8144 10.2491 36.2294 10.0471 36.5462 9.72884L39.1372 7.13792C39.2622 7.01289 39.3324 6.84331 39.3324 6.66649C39.3324 6.48968 39.2622 6.3201 39.1372 6.19507L37.8039 4.86177C37.6949 4.75283 37.5515 4.685 37.3982 4.66982C37.2448 4.65464 37.0909 4.69306 36.9627 4.77852L35.3325 5.86525L32.2888 3.83608L33.8659 1.73327C33.9622 1.60489 34.0089 1.44609 33.9976 1.28601C33.9862 1.12594 33.9175 0.975346 33.804 0.861875L33.1373 0.195225C33.0384 0.0962967 32.9108 0.0310065 32.7727 0.00860259C32.6346 -0.0138014 32.493 0.00781677 32.3678 0.0703945L28.6952 1.90669L27.4611 1.16615C26.8239 0.782867 26.0767 0.623986 25.3387 0.714842C24.6007 0.805697 23.9144 1.14106 23.3892 1.66743L22.8615 2.19517C22.7901 2.26649 22.7359 2.35305 22.7029 2.44835C22.6699 2.54365 22.659 2.64519 22.6709 2.74534C22.6828 2.84549 22.7173 2.94163 22.7717 3.02652C22.8262 3.11141 22.8992 3.18284 22.9852 3.23543ZM26.7751 2.30951L28.323 3.23828C28.4192 3.29596 28.5284 3.32845 28.6405 3.33275C28.7525 3.33704 28.8639 3.313 28.9642 3.26285L32.3049 1.59249L30.7993 3.59992C30.7449 3.67245 30.7059 3.7553 30.6846 3.84343C30.6633 3.93155 30.6603 4.02309 30.6756 4.11245C30.6909 4.20181 30.7242 4.2871 30.7736 4.36312C30.823 4.43914 30.8874 4.50428 30.9629 4.55456L34.9628 7.22116C35.0723 7.29415 35.2009 7.3331 35.3325 7.3331C35.4642 7.3331 35.5928 7.29415 35.7023 7.22116L37.2475 6.191L37.723 6.66649L35.6034 8.78607C35.4978 8.89216 35.3595 8.95949 35.2108 8.97717C35.0622 8.99485 34.912 8.96184 34.7844 8.88348L24.4052 2.54062C24.723 2.2527 25.1251 2.07476 25.5519 2.03313C25.9787 1.99151 26.4076 2.08841 26.7751 2.30951Z" fill="white"/>
</svg>
