<svg width="16" height="24" viewBox="0 0 16 24" fill="none" xmlns="http://www.w3.org/2000/svg">
<path d="M7.41052 20.481C7.41052 18.4044 7.5007 15.5155 7.59139 12.7161C7.59139 9.91725 7.68157 7.11837 7.68157 4.95176V3.14598C7.68157 3.23645 7.59139 3.23645 7.59139 3.3264C7.00198 4.52142 6.24047 5.61727 5.33282 6.57659C5.08339 6.84292 4.81049 7.08469 4.51764 7.29879C4.26768 7.5376 3.9945 7.74912 3.70246 7.93L2.88728 8.47179C2.61623 8.65221 2.34518 8.74268 2.07209 8.9231C1.80104 9.01357 1.62018 9.19399 1.34913 9.19399C1.18605 9.29412 1.00388 9.35657 0.815183 9.37704C0.661035 9.42736 0.510099 9.48762 0.363266 9.55746C0.361628 9.34377 0.331279 9.13134 0.273086 8.92626C0.194148 8.70964 0.102962 8.498 0 8.29242C0.154025 8.28448 0.306181 8.25402 0.451917 8.20195C0.632786 8.20195 0.722965 8.11147 0.994013 8.11147C1.17488 8.11147 1.44593 7.93105 1.62629 7.93105C1.89734 7.84058 2.07821 7.75063 2.34925 7.66016C2.63821 7.54554 2.91208 7.39392 3.16444 7.20885L3.97962 6.66706C4.27167 6.48619 4.54485 6.27467 4.7948 6.03585C5.73016 5.20582 6.49768 4.19338 7.05337 3.05656C7.26054 2.67928 7.44037 2.28668 7.59139 1.88199L8.04331 0.888887L8.40453 1.97246C8.56514 2.34399 8.74614 2.70577 8.94663 3.05603C9.54717 4.16275 10.3089 5.16758 11.2052 6.03533C11.4552 6.27414 11.7283 6.48566 12.0204 6.66653L12.8356 7.20832C13.1066 7.38874 13.3777 7.47921 13.6507 7.65963C13.8822 7.77497 14.1245 7.86574 14.3737 7.93053C14.5753 8.02077 14.7881 8.08149 15.006 8.11095C15.1773 8.18472 15.363 8.21571 15.5481 8.20142C15.6938 8.25349 15.846 8.28395 16 8.29189C15.8978 8.49667 15.8073 8.70743 15.729 8.9231C15.6708 9.12818 15.6404 9.34061 15.6388 9.55431C15.4919 9.48447 15.341 9.42421 15.1869 9.37389C15.006 9.28341 14.8256 9.28341 14.6448 9.19347C14.4093 9.08819 14.1679 8.99773 13.9218 8.92257C13.6328 8.80795 13.359 8.65633 13.1066 8.47126C12.8158 8.32332 12.5423 8.14154 12.2914 7.92947C11.9994 7.74858 11.7262 7.53706 11.4762 7.29827C11.2052 7.02737 10.9341 6.84695 10.6611 6.57606C9.73577 5.63392 8.97329 4.5354 8.40657 3.32798C8.40657 3.2375 8.31639 3.2375 8.31639 3.14756V4.95176C8.31639 7.02843 8.40657 9.91725 8.40657 12.7161C8.49675 15.515 8.49675 18.3139 8.58744 20.481C8.67507 22.5577 8.67507 24 8.67507 24C8.46764 23.9488 8.25589 23.9185 8.0428 23.9095C7.8297 23.9185 7.61796 23.9488 7.41052 24C7.3532 22.8278 7.3532 21.6533 7.41052 20.481Z" fill="white"/>
</svg>
