<svg width="16" height="24" viewBox="0 0 16 24" fill="none" xmlns="http://www.w3.org/2000/svg">
<path d="M8.58948 3.51898C8.58948 5.59565 8.4993 8.48447 8.40861 11.2839C8.40861 14.0828 8.31843 16.8816 8.31843 19.0482V20.854C8.31843 20.7635 8.40861 20.7635 8.40861 20.6736C8.99802 19.4786 9.75953 18.3827 10.6672 17.4234C10.9166 17.1571 11.1895 16.9153 11.4824 16.7012C11.7323 16.4624 12.0055 16.2509 12.2975 16.07L13.1127 15.5282C13.3838 15.3478 13.6548 15.2573 13.9279 15.0769C14.199 14.9864 14.3798 14.806 14.6509 14.806C14.814 14.7059 14.9961 14.6434 15.1848 14.623C15.339 14.5726 15.4899 14.5124 15.6367 14.4425C15.6384 14.6562 15.6687 14.8687 15.7269 15.0737C15.8059 15.2904 15.897 15.502 16 15.7076C15.846 15.7155 15.6938 15.746 15.5481 15.7981C15.3672 15.7981 15.277 15.8885 15.006 15.8885C14.8251 15.8885 14.5541 16.0689 14.3737 16.0689C14.1027 16.1594 13.9218 16.2494 13.6507 16.3398C13.3618 16.4545 13.0879 16.6061 12.8356 16.7912L12.0204 17.3329C11.7283 17.5138 11.4552 17.7253 11.2052 17.9641C10.2698 18.7942 9.50232 19.8066 8.94663 20.9434C8.73946 21.3207 8.55963 21.7133 8.40861 22.118L7.95669 23.1111L7.59547 22.0275C7.43486 21.656 7.25386 21.2942 7.05337 20.944C6.45283 19.8373 5.69108 18.8324 4.7948 17.9647C4.54484 17.7259 4.27167 17.5143 3.97962 17.3335L3.16444 16.7917C2.89339 16.6113 2.62234 16.5208 2.34926 16.3404C2.11777 16.225 1.87554 16.1343 1.62629 16.0695C1.4247 15.9792 1.21188 15.9185 0.994014 15.8891C0.822726 15.8153 0.636993 15.7843 0.451917 15.7986C0.306181 15.7465 0.154026 15.716 0 15.7081C0.102179 15.5033 0.192682 15.2926 0.271049 15.0769C0.329241 14.8718 0.359591 14.6594 0.361228 14.4457C0.508064 14.5155 0.658998 14.5758 0.813145 14.6261C0.994013 14.7166 1.17437 14.7166 1.35524 14.8065C1.59072 14.9118 1.83214 15.0023 2.07821 15.0774C2.36716 15.1921 2.64103 15.3437 2.89339 15.5287C3.18422 15.6767 3.45772 15.8585 3.70857 16.0705C4.00061 16.2514 4.27378 16.4629 4.52376 16.7017C4.7948 16.9726 5.06585 17.153 5.33894 17.4239C6.26423 18.3661 7.02671 19.4646 7.59343 20.672C7.59343 20.7625 7.68361 20.7625 7.68361 20.8524V19.0482C7.68361 16.9716 7.59343 14.0828 7.59343 11.2839C7.50325 8.485 7.50325 5.68612 7.41256 3.51898C7.32493 1.44231 7.32493 0 7.32493 0C7.53236 0.0511516 7.74411 0.0814506 7.9572 0.090473C8.1703 0.0814506 8.38204 0.0511516 8.58948 0C8.6468 1.17225 8.6468 2.34673 8.58948 3.51898Z" fill="#63AB45"/>
</svg>
