<svg width="37" height="41" viewBox="0 0 37 41" fill="none" xmlns="http://www.w3.org/2000/svg">
<path d="M36.0009 6.00546C35.9086 5.86659 35.7649 5.77 35.6015 5.737L32.6935 5.15001V2.77666C32.6935 2.42945 32.412 2.14794 32.0648 2.14794H17.8204L9.71712 0.512402C9.55365 0.479473 9.38374 0.512717 9.24487 0.604981C9.10592 0.697246 9.00941 0.840909 8.97641 1.00438L8.74551 2.14802H5.65849C5.31128 2.14802 5.02977 2.42953 5.02977 2.77674V5.29163H0.628721C0.28151 5.29163 0 5.57313 0 5.92035V39.8713C0 40.2185 0.28151 40.5 0.628721 40.5H27.035C27.3208 40.5 27.5616 40.3092 27.638 40.0482L28.6348 40.2495C28.676 40.2578 28.7178 40.2619 28.7592 40.2619C28.882 40.2619 29.0031 40.2259 29.107 40.1569C29.246 40.0646 29.3426 39.921 29.3755 39.7575L29.8602 37.3563H32.0647C32.4119 37.3563 32.6934 37.0748 32.6934 36.7276V23.3207L36.0934 6.47763C36.1264 6.31416 36.0931 6.14425 36.0008 6.00538L36.0009 6.00546ZM31.436 3.40546V4.89632L24.0501 3.40546H31.436ZM6.28721 3.40546H8.49166L8.11082 5.29163H6.28721V3.40546ZM26.4063 39.2426H1.25744V6.54907H20.8264V11.5002C20.8264 11.8475 21.1079 12.129 21.4551 12.129H26.4063V39.2426ZM22.0838 7.43816L25.5172 10.8715H22.0838V7.43816ZM31.436 36.099H30.1141L31.436 29.55V36.099ZM28.2674 38.8924L27.6637 38.7705V11.5002C27.6632 11.3349 27.5963 11.1728 27.4796 11.0557L21.8997 5.47576C21.7825 5.35866 21.6207 5.29288 21.4551 5.29163H9.39372L10.0847 1.86942L34.7364 6.84535L28.2674 38.8924Z" fill="#63AB45"/>
<path d="M6.91583 16.6085H11.3169V21.0095C11.3169 21.3567 11.5984 21.6383 11.9456 21.6383H13.203C13.4915 21.6383 13.743 21.4419 13.813 21.162L14.9514 16.6085H20.7477C21.0949 16.6085 21.3764 16.327 21.3764 15.9798C21.3764 14.2464 19.9662 12.8362 18.2328 12.8362H14.9514L13.813 8.28265C13.743 8.00279 13.4915 7.8064 13.203 7.8064H11.9456C11.5984 7.8064 11.3169 8.08791 11.3169 8.43512V12.8362H7.54455V11.5787H6.28711V15.9798C6.28711 16.327 6.56862 16.6085 6.91583 16.6085ZM12.7122 20.3808H12.5743V16.6085H13.6552L12.7122 20.3808ZM20.0112 15.351H7.54455V14.0936H18.2328C19.0525 14.0936 19.7517 14.6192 20.0112 15.351ZM12.5743 9.06384H12.7122L13.6552 12.8362H12.5743V9.06384Z" fill="#63AB45"/>
<path d="M2.51465 24.7819H13.2029V36.7276H14.4603V24.7819H25.1486V23.5244H2.51465V24.7819Z" fill="#63AB45"/>
<path d="M3.77246 27.2969H11.9458V28.5543H3.77246V27.2969Z" fill="#63AB45"/>
<path d="M15.7183 27.2969H23.8916V28.5543H15.7183V27.2969Z" fill="#63AB45"/>
<path d="M3.77246 29.8118H11.9458V31.0692H3.77246V29.8118Z" fill="#63AB45"/>
<path d="M15.7183 29.8118H23.8916V31.0692H15.7183V29.8118Z" fill="#63AB45"/>
<path d="M3.77246 32.3267H11.9458V33.5841H3.77246V32.3267Z" fill="#63AB45"/>
<path d="M15.7183 32.3267H23.8916V33.5841H15.7183V32.3267Z" fill="#63AB45"/>
<path d="M3.77246 34.8416H11.9458V36.099H3.77246V34.8416Z" fill="#63AB45"/>
<path d="M15.7183 34.8416H23.8916V36.099H15.7183V34.8416Z" fill="#63AB45"/>
</svg>
