<svg width="40" height="41" viewBox="0 0 40 41" fill="none" xmlns="http://www.w3.org/2000/svg">
<path d="M20 0.5C8.97203 0.5 0 9.4719 0 20.4998C0 31.5279 8.97203 40.5 20 40.5C31.028 40.5 40 31.5279 40 20.4998C40 9.4719 31.0281 0.5 20 0.5ZM20 38.19C10.2458 38.19 2.31 30.2542 2.31 20.4998C2.31 10.7457 10.2458 2.81 20 2.81C29.7542 2.81 37.69 10.7457 37.69 20.4999C37.69 30.2542 29.7542 38.19 20 38.19Z" fill="#63AB45"/>
<path d="M31.0111 9.95965C30.709 9.39763 30.0088 9.18724 29.4469 9.48926L16.4471 16.4793C16.2475 16.5866 16.0839 16.7502 15.9767 16.9498L8.98944 29.9467C8.74225 30.4065 8.83852 30.9591 9.18963 31.3102C9.26748 31.3882 9.35787 31.4561 9.46002 31.5108C9.80728 31.6976 10.2075 31.688 10.5337 31.521L10.5339 31.5212L10.5388 31.5186C10.5436 31.5162 10.5482 31.5136 10.5528 31.5111L23.559 24.5261C23.7587 24.4189 23.9222 24.2554 24.0296 24.0557L30.9889 11.091C31.0041 11.0648 31.0187 11.0383 31.0317 11.0111L31.0411 10.9936L31.04 10.9932C31.1879 10.6745 31.1903 10.2929 31.0111 9.95965ZM12.8368 27.6688L17.2769 19.4099L21.0951 23.2282L12.8368 27.6688ZM22.7294 21.5956L18.9111 17.7772L27.1693 13.3367" fill="#63AB45"/>
</svg>
