<svg width="14" height="12" viewBox="0 0 14 12" fill="none" xmlns="http://www.w3.org/2000/svg">
<path fill-rule="evenodd" clip-rule="evenodd" d="M12.2349 0.861944C11.4504 1.33593 10.4348 2.00127 9.97771 2.34042C8.74243 3.25704 6.86989 5.20765 6.15814 6.31948L5.53113 7.29896L4.40526 6.11732L3.2794 4.93583L1.83762 4.94139C0.414433 4.9468 -0.100441 5.06803 0.0158624 5.36997C0.144661 5.70434 6.31897 12.0479 6.46876 11.9997C6.55655 11.9715 6.88815 11.2233 7.2055 10.3372C7.52285 9.45112 8.01931 8.25125 8.30878 7.67116C9.18554 5.91314 10.99 3.47094 12.5832 1.88621C13.9104 0.565878 14.2761 0 13.8018 0C13.7244 0 13.0192 0.387805 12.2349 0.861944Z" fill="#63AB45"/>
</svg>
