<svg width="70" height="51" viewBox="0 0 70 51" fill="none" xmlns="http://www.w3.org/2000/svg">
<path d="M10.6584 23.621C16.9484 23.621 25.6982 23.9085 34.1771 24.1976C42.6545 24.1976 51.1319 24.485 57.6942 24.485H63.1636C62.8896 24.485 62.8896 24.1976 62.6172 24.1976C58.9976 22.3188 55.6785 19.8915 52.7728 16.9984C51.9662 16.2033 51.2339 15.3334 50.5854 14.4C49.8621 13.6032 49.2214 12.7325 48.6736 11.8016L47.0326 9.20319C46.4861 8.33922 46.2121 7.47526 45.6656 6.6048C45.3916 5.74083 44.8451 5.16431 44.8451 4.30034C44.5418 3.78053 44.3527 3.19988 44.2907 2.5984C44.1383 2.10705 43.9558 1.62594 43.7442 1.15791C44.3915 1.15269 45.0349 1.05595 45.6561 0.870462C46.3121 0.618846 46.9532 0.328192 47.5758 0C47.5999 0.490956 47.6922 0.975951 47.8499 1.44049C47.8499 2.017 48.1239 2.30445 48.1239 3.16842C48.1239 3.74494 48.6704 4.6089 48.6704 5.1838C48.9444 6.04776 49.2168 6.62428 49.4909 7.48825C49.838 8.40929 50.2973 9.28225 50.8578 10.0866L52.4988 12.685C53.0466 13.6159 53.6873 14.4867 54.4106 15.2834C56.9247 18.2649 59.9912 20.7114 63.4345 22.4826C64.5772 23.143 65.7663 23.7162 66.9921 24.1976L70 25.638L66.718 26.7895C65.5927 27.3014 64.4969 27.8783 63.4361 28.5174C60.084 30.4316 57.0405 32.8597 54.4122 35.7166C53.6889 36.5133 53.0482 37.3841 52.5004 38.315L50.8594 40.9134C50.313 41.7773 50.0389 42.6413 49.4925 43.5117C49.1431 44.2496 48.8682 45.0217 48.672 45.8162C48.3986 46.4588 48.2147 47.1371 48.1255 47.8316C47.9021 48.3776 47.8082 48.9696 47.8515 49.5595C47.6938 50.0241 47.6015 50.509 47.5774 51C46.9572 50.6743 46.3189 50.3858 45.6656 50.136C45.0444 49.9505 44.401 49.8538 43.7538 49.8486C43.9653 49.3806 44.1478 48.8994 44.3003 48.4081C44.5743 47.8316 44.5743 47.2567 44.8467 46.6802C45.1656 45.9296 45.4396 45.16 45.6672 44.3757C46.0144 43.4547 46.4736 42.5817 47.0342 41.7773C47.4823 40.8503 48.0328 39.9785 48.6752 39.1789C49.2231 38.2481 49.8637 37.3773 50.587 36.5805C51.4075 35.7166 51.9539 34.8526 52.7744 33.9821C55.628 31.0328 58.9553 28.6024 62.6124 26.7959C62.8864 26.7959 62.8864 26.5085 63.1588 26.5085H57.6942C51.4043 26.5085 42.6545 26.7959 34.1771 26.7959C25.6998 27.0834 17.2224 27.0834 10.6584 27.3725C4.36853 27.6518 0 27.6518 0 27.6518C0.15493 26.9906 0.246701 26.3157 0.274029 25.6364C0.246701 24.9572 0.15493 24.2822 0 23.621C3.55055 23.4383 7.10789 23.4383 10.6584 23.621Z" fill="white"/>
</svg>
