<svg width="19" height="12" viewBox="0 0 19 12" fill="none" xmlns="http://www.w3.org/2000/svg">
<path d="M14.922 3.15285H16.4381C16.8331 3.15285 17.1544 2.82589 17.1544 2.42391V0.729339C17.1544 0.32736 16.8331 0.000401263 16.4381 0.000401263H14.922C14.527 0.000401263 14.2058 0.32736 14.2058 0.729339V2.42391C14.2058 2.82589 14.527 3.15285 14.922 3.15285ZM14.6788 0.729741C14.6788 0.593341 14.788 0.482214 14.922 0.482214H16.4381C16.5721 0.482214 16.6813 0.593341 16.6813 0.729741V2.42431C16.6813 2.56071 16.5721 2.67184 16.4381 2.67184H14.922C14.788 2.67184 14.6788 2.56071 14.6788 2.42431V0.729741ZM6.58588 3.15285H8.10197C8.49696 3.15285 8.81823 2.82589 8.81823 2.42391V0.729339C8.81823 0.32736 8.49696 0.000401263 8.10197 0.000401263H6.58588C6.1909 0.000401263 5.86962 0.32736 5.86962 0.729339V2.42391C5.86962 2.82589 6.1909 3.15285 6.58588 3.15285ZM6.34266 0.729741C6.34266 0.593341 6.45186 0.482214 6.58588 0.482214H8.10197C8.236 0.482214 8.34519 0.593341 8.34519 0.729741V2.42431C8.34519 2.56071 8.236 2.67184 8.10197 2.67184H6.58588C6.45186 2.67184 6.34266 2.56071 6.34266 2.42431V0.729741ZM17.7508 6.98649H14.1931L13.4836 5.79339H15.876C16.2319 5.79339 16.5213 5.49893 16.5213 5.13667C16.5213 4.77441 16.2319 4.47994 15.876 4.47994H12.7019L11.9123 3.15245H12.2694C12.6644 3.15245 12.9857 2.82549 12.9857 2.42351V0.728938C12.9857 0.326959 12.6644 0 12.2694 0H10.7537C10.4944 0 10.2582 0.147232 10.1325 0.368682C9.55539 0.37831 9.08905 0.85892 9.08905 1.44825V2.45199C9.08905 2.4881 9.09693 2.5242 9.1127 2.5567L10.4207 5.31118H9.85892C9.77732 5.31118 9.70163 5.35411 9.65827 5.42431C9.61491 5.49452 9.61057 5.58278 9.64605 5.65739L10.7837 8.03437C10.8105 8.09013 10.8574 8.13346 10.9146 8.15472L11.9561 8.54507L12.3585 9.39315C12.398 9.4762 12.4807 9.52915 12.5714 9.52915H13.046L12.4177 11.119C12.3384 11.3196 12.3609 11.5378 12.4799 11.7172C12.599 11.8965 12.7894 11.9992 13.0019 11.9992H16.2761C16.6257 11.9992 16.9104 11.7095 16.9104 11.3537C16.9104 10.9979 16.6257 10.7082 16.2761 10.7082H14.2239C14.1569 10.7082 14.1064 10.6809 14.069 10.6244C14.0315 10.5678 14.0256 10.51 14.0504 10.4466L14.4131 9.52875H17.7504C18.4394 9.52875 19 8.95828 19 8.25702C19 7.55576 18.4398 6.98649 17.7508 6.98649ZM16.0482 5.13707C16.0482 5.23375 15.971 5.31238 15.876 5.31238H12.0136L11.8216 4.96216H15.876C15.971 4.96175 16.0482 5.04038 16.0482 5.13707ZM12.2698 0.482214C12.4039 0.482214 12.5131 0.593341 12.5131 0.729741V2.42431C12.5131 2.56071 12.4039 2.67184 12.2698 2.67184H11.6261L11.2118 1.97539V1.44945C11.2118 1.04186 10.9887 0.686413 10.6607 0.502675C10.6899 0.490238 10.7214 0.482616 10.7541 0.482616H12.2698V0.482214ZM9.56248 1.44905C9.56248 1.11888 9.8262 0.850495 10.1506 0.850495C10.4751 0.850495 10.7388 1.11888 10.7388 1.44905V2.04199C10.7388 2.08612 10.7506 2.12905 10.7731 2.16676L12.1496 4.48034H10.5519L9.56287 2.39783V1.44905H9.56248ZM11.1681 7.7371L10.2377 5.79339H10.6497L11.6604 7.92164L11.1681 7.7371ZM10.7802 4.96175H11.2804L13.0945 8.27548L12.6258 8.84796L10.7802 4.96175ZM16.4507 9.04814H13.0772L13.4907 8.54346H16.2635C16.3668 8.54346 16.4507 8.62891 16.4507 8.73402V9.04814ZM13.6775 10.8948C13.8021 11.0825 14.0016 11.1904 14.2247 11.1904H16.2769C16.3644 11.1904 16.4381 11.2654 16.4381 11.3545C16.4381 11.4436 16.3644 11.5186 16.2769 11.5186H13.0027C12.9467 11.5186 12.9041 11.4957 12.8726 11.4484C12.841 11.401 12.8363 11.3525 12.8572 11.2995L13.5565 9.52996H13.9038L13.6121 10.2685C13.5289 10.4787 13.553 10.707 13.6775 10.8948ZM17.7508 9.04814H16.9238V8.73362C16.9238 8.36333 16.6277 8.06165 16.2635 8.06165H13.5187L12.2769 5.79299H12.9305L13.8577 7.35156C13.9006 7.42378 13.9771 7.46751 14.0599 7.46751H17.7508C18.1789 7.46751 18.5274 7.82215 18.5274 8.25782C18.5274 8.6935 18.1789 9.04814 17.7508 9.04814ZM8.66134 6.98649H5.10369L4.39414 5.79339H6.78692C7.14249 5.79339 7.43223 5.49893 7.43223 5.13667C7.43223 4.77441 7.14289 4.47994 6.78692 4.47994H3.61283L2.12237 1.97459V1.44865C2.12237 0.853303 1.64618 0.368682 1.06118 0.368682C0.476192 0.368682 0 0.853704 0 1.44905V2.4528C0 2.4889 0.007884 2.52501 0.023652 2.5575L1.3316 5.31198H0.769871C0.688271 5.31198 0.612585 5.35491 0.569223 5.42511C0.525862 5.49532 0.521525 5.58358 0.557003 5.6582L1.69506 8.03517C1.72186 8.09093 1.76877 8.13426 1.82593 8.15552L2.8674 8.54587L3.26988 9.39396C3.3093 9.477 3.39208 9.52996 3.48275 9.52996H3.95736L3.32901 11.1198C3.24978 11.3204 3.27225 11.5386 3.39129 11.718C3.51034 11.8973 3.70074 12 3.91321 12H7.18743C7.53709 12 7.8217 11.7104 7.8217 11.3545C7.8217 10.9987 7.53709 10.709 7.18743 10.709H5.13523C5.06822 10.709 5.01776 10.6817 4.98031 10.6252C4.94286 10.5686 4.93695 10.5104 4.96178 10.4474L5.32445 9.52955H8.66174C9.3508 9.52955 9.91135 8.95908 9.91135 8.25782C9.91135 7.55657 9.3504 6.98649 8.66134 6.98649ZM6.9588 5.13707C6.9588 5.23375 6.88153 5.31238 6.78653 5.31238H2.92417L2.73219 4.96216H6.78653C6.88193 4.96175 6.9588 5.04038 6.9588 5.13707ZM0.473039 1.44905C0.473039 1.11888 0.736758 0.850495 1.06118 0.850495C1.38561 0.850495 1.64933 1.11888 1.64933 1.44905V2.04199C1.64933 2.08612 1.66115 2.12905 1.68362 2.16676L3.05977 4.48034H1.46208L0.473039 2.39783V1.44905ZM2.07861 7.7371L1.1483 5.79339H1.56024L2.57097 7.92164L2.07861 7.7371ZM1.69072 4.96175H2.19096L4.00506 8.27548L3.53636 8.84796L1.69072 4.96175ZM7.36127 9.04814H3.98772L4.40123 8.54346H7.17442C7.2777 8.54346 7.36167 8.62891 7.36167 8.73402V9.04814H7.36127ZM4.58808 10.8952C4.71304 11.0829 4.91211 11.1908 5.13484 11.1908H7.18704C7.27455 11.1908 7.34826 11.2658 7.34826 11.3549C7.34826 11.444 7.27455 11.519 7.18704 11.519H3.91282C3.85684 11.519 3.81427 11.4961 3.78273 11.4488C3.7512 11.4014 3.74647 11.3529 3.76736 11.2999L4.46667 9.53036H4.81396L4.52225 10.2689C4.43947 10.4787 4.46352 10.707 4.58808 10.8952ZM8.66134 9.04814H7.83431V8.73362C7.83431 8.36333 7.53827 8.06165 7.17403 8.06165H4.42922L3.18749 5.79299H3.84108L4.76823 7.35156C4.8112 7.42378 4.88767 7.46751 4.97046 7.46751H8.66134C9.08944 7.46751 9.43791 7.82215 9.43791 8.25782C9.43791 8.6935 9.08944 9.04814 8.66134 9.04814Z" fill="#63AB45"/>
</svg>
