<svg width="70" height="70" viewBox="0 0 70 70" fill="none" xmlns="http://www.w3.org/2000/svg">
<path d="M35.1341 5.46879C34.3781 5.46332 33.7615 6.07172 33.756 6.8264C33.7505 7.58109 34.3576 8.19769 35.1136 8.20316C35.8683 8.20863 36.4849 7.6016 36.4904 6.84691C36.4958 6.09222 35.8888 5.47562 35.1341 5.46879ZM35.0719 13.6718C29.7931 13.6343 25.4699 17.893 25.43 23.1702C25.3902 28.4471 29.6512 32.7723 34.9284 32.8121L35.0016 32.8124C40.2452 32.8124 44.5307 28.5665 44.5703 23.3137C44.6101 18.0371 40.3493 13.7116 35.0719 13.6718ZM35.0014 30.0782L34.9489 30.0779C31.1794 30.0495 28.1358 26.9599 28.1642 23.1907C28.1925 19.4384 31.2534 16.4057 34.9989 16.4057L35.0514 16.406C38.8209 16.4345 41.8645 19.524 41.8361 23.2932C41.8076 27.0455 38.7469 30.0782 35.0014 30.0782ZM40.9653 6.50566C40.2541 6.25328 39.4722 6.62584 39.2198 7.3376C38.9676 8.04935 39.3401 8.8307 40.0518 9.08308C46.0738 11.2174 50.0872 16.9529 50.0391 23.355C50.0335 24.11 50.6409 24.7267 51.396 24.7325H51.4065C52.1566 24.7325 52.7677 24.1271 52.7734 23.3755C52.8303 15.8086 48.0849 9.02908 40.9653 6.50566Z" fill="#63AB45"/>
<path d="M43.3892 51.4667C52.4827 39.7615 58.1657 33.6577 58.2424 23.4169C58.3387 10.5321 47.8821 0 34.9983 0C22.2649 0 11.8554 10.3124 11.7586 23.0683C11.6804 33.5867 17.4689 39.6822 26.6253 51.4648C17.5164 52.8259 11.7586 56.2462 11.7586 60.4297C11.7586 63.232 14.3489 65.7467 19.0524 67.5104C23.3335 69.1157 28.9973 69.9999 35.0005 69.9999C41.0037 69.9999 46.6675 69.1157 50.9486 67.5104C55.6521 65.7465 58.2424 63.2319 58.2424 60.4295C58.2424 56.2484 52.49 52.8289 43.3892 51.4667ZM14.4928 23.0889C14.5781 11.833 23.7622 2.73438 34.9986 2.73438C46.368 2.73438 55.5929 12.0296 55.5082 23.3965C55.4354 33.1219 49.4086 39.1152 39.7868 51.6582C38.0705 53.8944 36.4944 56.0086 35.0026 58.0768C33.5151 56.0074 31.9704 53.931 30.2285 51.6574C20.2089 38.5893 14.4187 33.0489 14.4928 23.0889ZM35.0005 67.2656C23.2631 67.2656 14.4928 63.6567 14.4928 60.4297C14.4928 58.0366 19.7357 55.0134 28.5511 53.9666C30.4997 56.5234 32.2082 58.8462 33.8838 61.2186C34.0099 61.3971 34.1771 61.5429 34.3711 61.6435C34.5652 61.7441 34.7806 61.7967 34.9993 61.7969H35.0005C35.219 61.7969 35.4342 61.7445 35.6283 61.6442C35.8223 61.5439 35.9895 61.3985 36.1159 61.2203C37.7756 58.8789 39.5308 56.4988 41.4628 53.9681C50.2699 55.016 55.5082 58.0382 55.5082 60.4298C55.508 63.6567 46.738 67.2656 35.0005 67.2656Z" fill="#63AB45"/>
</svg>
