<svg width="70" height="70" viewBox="0 0 70 70" fill="none" xmlns="http://www.w3.org/2000/svg">
<g clip-path="url(#clip0_301_8331)">
<path d="M36.4441 39.654C33.8291 39.6416 31.2312 39.2317 28.7394 38.4383C26.7837 37.784 25.0366 36.6225 23.6765 35.0724C22.3164 33.5222 21.3919 31.639 20.9974 29.6148C20.1189 25.3845 21.7208 20.9115 25.3888 17.3415C25.7828 16.9579 26.1923 16.5905 26.6161 16.2401C28.4664 14.691 30.6658 13.6154 33.0246 13.1063C35.3835 12.5971 37.8308 12.6696 40.1553 13.3176C42.3846 14.0295 44.3389 15.4138 45.7502 17.2806C47.1614 19.1474 47.9603 21.4052 48.0373 23.7441C48.2083 26.5031 47.3091 29.2217 45.5266 31.3345C44.8523 32.1837 43.957 32.8307 42.9391 33.2045C41.9212 33.5782 40.8199 33.6643 39.7563 33.4531C39.3174 33.362 38.9014 33.1834 38.5331 32.9278C38.1649 32.6722 37.852 32.3449 37.6131 31.9656C37.3988 31.5971 37.261 31.1892 37.2081 30.7662C37.1552 30.3432 37.1882 29.9139 37.3051 29.504C38.3259 25.647 39.3631 19.7856 39.3736 19.7273C39.4003 19.5764 39.4564 19.4322 39.5388 19.303C39.6211 19.1738 39.7282 19.062 39.8537 18.9742C39.9793 18.8863 40.1209 18.824 40.2706 18.7909C40.4202 18.7578 40.5749 18.7545 40.7258 18.7811C40.8767 18.8078 41.0209 18.8639 41.1501 18.9463C41.2793 19.0287 41.391 19.1357 41.4789 19.2613C41.5668 19.3868 41.629 19.5285 41.6621 19.6781C41.6953 19.8277 41.6986 19.9824 41.6719 20.1333C41.6288 20.3771 40.6068 26.1498 39.5614 30.1001C39.5246 30.2085 39.5103 30.3233 39.5193 30.4375C39.5283 30.5516 39.5605 30.6627 39.6139 30.764C39.7754 30.987 40.0187 31.1368 40.2906 31.1805C40.942 31.2892 41.6106 31.2179 42.2244 30.9743C42.8382 30.7306 43.3737 30.3239 43.7731 29.798C45.1573 28.1421 45.8508 26.0168 45.7098 23.8631C45.6541 22.0012 45.0236 20.2022 43.9048 18.7128C42.7861 17.2235 41.2338 16.1169 39.4611 15.5448C37.5081 15.0076 35.4538 14.9536 33.4753 15.3876C31.4968 15.8215 29.6536 16.7304 28.1048 18.0356C27.7303 18.3471 27.3651 18.6726 27.0151 19.0133C25.2021 20.7773 22.3053 24.4383 23.2818 29.14C23.6041 30.7541 24.3427 32.2561 25.4242 33.497C26.5057 34.7379 27.8926 35.6747 29.4476 36.2146C34.9193 37.96 42.7826 38.1711 46.9243 33.0203C47.1205 32.7869 47.4002 32.6396 47.7037 32.6099C48.0071 32.5802 48.3101 32.6705 48.5478 32.8614C48.7855 33.0523 48.9391 33.3287 48.9756 33.6314C49.0121 33.9341 48.9286 34.239 48.7431 34.481C45.6794 38.2913 41.0174 39.654 36.4441 39.654Z" fill="white"/>
<path d="M32.4537 33.606C31.2203 33.6275 30.0172 33.2233 29.047 32.4615C26.8082 30.6695 26.7463 27.5556 27.374 25.4358C27.5863 24.73 27.8698 24.0475 28.2222 23.4C29.0975 21.6337 30.4971 20.1811 32.2297 19.2408C33.2805 18.6957 34.4787 18.5031 35.6474 18.6913C36.8161 18.8795 37.8933 19.4387 38.7198 20.2861C39.5617 21.2087 40.1959 22.3012 40.5795 23.4898C40.6759 23.7795 40.655 24.0954 40.5211 24.3699C40.3873 24.6443 40.1512 24.8553 39.8635 24.9576C39.5758 25.0599 39.2595 25.0453 38.9824 24.9171C38.7054 24.7888 38.4896 24.557 38.3815 24.2715C38.1049 23.3936 37.6452 22.5844 37.0328 21.8973C36.5514 21.4048 35.9222 21.0832 35.241 20.9815C34.5599 20.8798 33.8642 21.0035 33.2598 21.3338C31.9605 22.0666 30.9163 23.1792 30.2673 24.5223C29.9948 25.0257 29.7747 25.5559 29.6105 26.1043C29.1567 27.6373 29.257 29.6393 30.5077 30.6403C31.875 31.7393 34.1827 31.275 35.4812 30.155C36.4484 29.2837 37.2793 28.2722 37.9463 27.1543C38.0271 27.0241 38.1328 26.911 38.2573 26.8217C38.3818 26.7323 38.5227 26.6683 38.6719 26.6333C38.8212 26.5984 38.9758 26.5932 39.1271 26.618C39.2783 26.6429 39.4232 26.6972 39.5534 26.778C39.6836 26.8589 39.7967 26.9645 39.8861 27.089C39.9754 27.2135 40.0394 27.3544 40.0744 27.5037C40.1093 27.6529 40.1145 27.8076 40.0897 27.9588C40.0649 28.11 40.0105 28.2549 39.9297 28.3851C39.1389 29.7021 38.1545 30.8926 37.0095 31.9166C35.7339 32.993 34.1226 33.5904 32.4537 33.606Z" fill="white"/>
<path d="M66.5 69.9993H3.5C2.57203 69.9984 1.68233 69.6293 1.02615 68.9731C0.369973 68.317 0.000926812 67.4273 2.2814e-07 66.4993V23.3326C-0.000138442 23.1108 0.0629417 22.8936 0.181848 22.7064C0.300754 22.5192 0.470559 22.3697 0.671362 22.2756C0.872165 22.1814 1.09565 22.1465 1.31561 22.1748C1.53558 22.2031 1.74292 22.2935 1.91333 22.4355L30.5387 46.2261C31.7943 47.2637 33.3723 47.8312 35.0012 47.8312C36.63 47.8312 38.208 47.2637 39.4637 46.2261L68.0867 22.4343C68.2572 22.2923 68.4646 22.2018 68.6847 22.1736C68.9047 22.1453 69.1283 22.1804 69.3292 22.2747C69.53 22.369 69.6998 22.5186 69.8186 22.706C69.9374 22.8934 70.0004 23.1107 70 23.3326V66.4993C69.9991 67.4273 69.63 68.317 68.9738 68.9731C68.3177 69.6293 67.428 69.9984 66.5 69.9993ZM2.33333 25.8188V66.4993C2.33333 67.1433 2.856 67.666 3.5 67.666H66.5C66.8094 67.666 67.1062 67.543 67.325 67.3243C67.5437 67.1055 67.6667 66.8087 67.6667 66.4993V25.8188L40.9523 48.0205C39.2778 49.4044 37.1734 50.1616 35.001 50.1621C32.8286 50.1625 30.7239 49.406 29.0488 48.0228L2.33333 25.8188Z" fill="white"/>
<path d="M1.16894 24.4994C0.921179 24.4998 0.679694 24.4214 0.479472 24.2755C0.279249 24.1296 0.130687 23.9237 0.0553064 23.6876C-0.0200742 23.4516 -0.0183585 23.1977 0.0602049 22.9628C0.138768 22.7278 0.2901 22.5239 0.492276 22.3807L10.9923 14.9374C11.2448 14.7584 11.558 14.687 11.8631 14.739C12.1682 14.7909 12.4402 14.962 12.6192 15.2144C12.7982 15.4669 12.8696 15.7802 12.8176 16.0853C12.7656 16.3904 12.5946 16.6624 12.3421 16.8414L1.84211 24.2847C1.64551 24.4245 1.4102 24.4996 1.16894 24.4994ZM68.8333 24.4994C68.592 24.4996 68.3567 24.4245 68.1601 24.2847L57.6601 16.8414C57.4103 16.6615 57.2417 16.3901 57.191 16.0865C57.1404 15.7828 57.2118 15.4714 57.3898 15.2202C57.5677 14.969 57.8378 14.7983 58.141 14.7453C58.4443 14.6923 58.7562 14.7614 59.0088 14.9374L69.5088 22.3807C69.7108 22.5238 69.862 22.7275 69.9407 22.9622C70.0193 23.197 70.0212 23.4506 69.9461 23.6865C69.871 23.9224 69.7228 24.1283 69.523 24.2745C69.3232 24.4206 69.0808 24.4993 68.8333 24.4994ZM45.7811 8.16603C45.5395 8.16624 45.3038 8.09122 45.1068 7.95136L39.5301 3.99636C38.2758 2.93613 36.689 2.34988 35.0466 2.33986C33.4043 2.32984 31.8105 2.89668 30.5433 3.94152L24.8966 7.95136C24.6441 8.13036 24.3309 8.20173 24.0258 8.14976C23.7207 8.0978 23.4487 7.92676 23.2697 7.67427C23.0907 7.42179 23.0193 7.10854 23.0713 6.80343C23.1233 6.49832 23.2943 6.22636 23.5468 6.04736L29.1234 2.09236C30.7941 0.726275 32.8883 -0.0155566 35.0463 -0.00576365C37.2044 0.00402929 39.2917 0.764835 40.9499 2.14602L46.4566 6.04736C46.6588 6.19058 46.8101 6.39444 46.8887 6.62942C46.9672 6.8644 46.969 7.11829 46.8936 7.35431C46.8182 7.59033 46.6696 7.79622 46.4694 7.94216C46.2692 8.0881 46.0277 8.16651 45.7799 8.16603H45.7811ZM1.92611 69.3694C1.68588 69.3698 1.45136 69.2961 1.25458 69.1583C1.0578 69.0205 0.908365 68.8253 0.826677 68.5994C0.744989 68.3735 0.735034 68.1279 0.798172 67.8961C0.86131 67.6643 0.994463 67.4576 1.17944 67.3044L27.8028 45.1844C27.9207 45.0865 28.0567 45.0127 28.2031 44.9674C28.3495 44.9221 28.5033 44.906 28.6559 44.9202C28.8085 44.9343 28.9568 44.9783 29.0924 45.0498C29.228 45.1213 29.3481 45.2187 29.446 45.3366C29.5439 45.4545 29.6176 45.5905 29.663 45.7369C29.7083 45.8833 29.7244 46.0372 29.7102 46.1898C29.6961 46.3424 29.652 46.4907 29.5806 46.6262C29.5091 46.7618 29.4117 46.882 29.2938 46.9799L2.67044 69.0999C2.46147 69.274 2.1981 69.3693 1.92611 69.3694ZM68.0749 69.3694C67.8029 69.3696 67.5394 69.2742 67.3306 69.0999L40.7073 46.9799C40.5863 46.883 40.4859 46.763 40.4119 46.6268C40.3379 46.4907 40.2917 46.3412 40.2761 46.187C40.2604 46.0328 40.2757 45.8771 40.3209 45.7289C40.3661 45.5807 40.4404 45.443 40.5395 45.3238C40.6385 45.2046 40.7603 45.1063 40.8977 45.0347C41.0351 44.9631 41.1855 44.9196 41.3399 44.9068C41.4943 44.8939 41.6497 44.9119 41.7971 44.9598C41.9445 45.0076 42.0809 45.0844 42.1983 45.1855L68.8216 67.3055C69.0066 67.4588 69.1397 67.6655 69.2029 67.8972C69.266 68.129 69.2561 68.3747 69.1744 68.6006C69.0927 68.8265 68.9433 69.0217 68.7465 69.1595C68.5497 69.2973 68.3152 69.3698 68.0749 69.3694Z" fill="white"/>
<path d="M58.3333 33.2261C58.0239 33.2261 57.7272 33.1032 57.5084 32.8844C57.2896 32.6656 57.1667 32.3689 57.1667 32.0594V8.17543C57.1632 8.19876 57.1165 8.1661 57.0383 8.1661H12.9617C12.9362 8.16456 12.9106 8.16821 12.8865 8.17683C12.8625 8.18546 12.8404 8.19887 12.8217 8.21626L12.8333 32.0594C12.8333 32.3689 12.7104 32.6656 12.4916 32.8844C12.2728 33.1032 11.9761 33.2261 11.6667 33.2261C11.3572 33.2261 11.0605 33.1032 10.8417 32.8844C10.6229 32.6656 10.5 32.3689 10.5 32.0594V8.1661C10.5183 7.53068 10.7876 6.9284 11.249 6.49109C11.7104 6.05379 12.3262 5.81707 12.9617 5.83276H57.0383C57.6738 5.81707 58.2896 6.05379 58.751 6.49109C59.2124 6.9284 59.4817 7.53068 59.5 8.1661V32.0594C59.5 32.3689 59.3771 32.6656 59.1583 32.8844C58.9395 33.1032 58.6428 33.2261 58.3333 33.2261Z" fill="white"/>
</g>
<defs>
<clipPath id="clip0_301_8331">
<rect width="70" height="70" fill="white"/>
</clipPath>
</defs>
</svg>
