<svg width="70" height="70" viewBox="0 0 70 70" fill="none" xmlns="http://www.w3.org/2000/svg">
<path d="M63.4214 54.3759C63.4171 53.4634 63.2325 52.5607 62.8781 51.7198C62.5237 50.8788 62.0065 50.1163 61.3564 49.4759L55.4064 43.5749C54.1048 42.2791 52.343 41.5517 50.5064 41.5519C49.5916 41.5619 48.6877 41.7526 47.8468 42.113C47.0059 42.4734 46.2445 42.9964 45.6064 43.6519L42.5474 46.7459C41.5114 47.3129 35.9324 44.7089 30.7034 39.5289C25.4744 34.3489 22.7514 28.6999 23.2904 27.7059L26.3704 24.5979C27.6771 23.2797 28.4068 21.4964 28.3989 19.6402C28.391 17.7841 27.6463 16.007 26.3284 14.6999L20.3854 8.80592C19.0644 7.50849 17.2879 6.77982 15.4364 6.77592C14.5214 6.78514 13.6174 6.97546 12.7764 7.3359C11.9354 7.69633 11.174 8.21974 10.5364 8.87592L3.95638 15.4769C1.23338 18.1999 1.54138 23.4709 4.83138 30.2469C7.90438 36.5469 13.2314 43.7009 19.8954 50.2879C29.5694 59.8779 41.7704 67.8999 49.5614 67.8999C50.528 67.9492 51.4947 67.8022 52.403 67.4677C53.3113 67.1333 54.1425 66.6183 54.8464 65.9539L61.3984 59.3459C62.0459 58.6913 62.5579 57.9153 62.905 57.0625C63.2521 56.2096 63.4276 55.2967 63.4214 54.3759ZM59.4104 57.3509L52.8584 63.9589C49.2954 67.5499 35.7014 62.0059 21.8694 48.2999C15.4434 41.9299 10.2844 35.0839 7.35138 29.0219C4.69838 23.5619 4.17338 19.2219 5.95138 17.4439L12.5034 10.8359C13.2857 10.0489 14.3477 9.60346 15.4574 9.59692C16.0046 9.59604 16.5466 9.70318 17.0523 9.91219C17.558 10.1212 18.0175 10.428 18.4044 10.8149L24.3544 16.7089C25.1345 17.4956 25.5722 18.5585 25.5722 19.6664C25.5722 20.7743 25.1345 21.8373 24.3544 22.6239L21.2744 25.7389C19.9234 27.0969 20.2104 29.5539 22.1354 33.0399C23.9074 36.1232 26.093 38.9494 28.6314 41.4399C31.1471 43.9616 33.9971 46.1261 37.1014 47.8729C40.6014 49.7629 43.0654 50.0359 44.4164 48.6779L47.4964 45.5629C48.2787 44.7759 49.3407 44.3305 50.4504 44.3239C51.5512 44.3267 52.6069 44.7616 53.3904 45.5349L59.3404 51.4359C60.1205 52.2226 60.5582 53.2856 60.5582 54.3934C60.5582 55.5013 60.1205 56.5643 59.3404 57.3509H59.4104ZM66.5014 34.8039C66.8727 34.8039 67.2288 34.6564 67.4913 34.3939C67.7539 34.1313 67.9014 33.7752 67.9014 33.4039C67.8921 25.1242 64.5994 17.1862 58.7454 11.3309C52.8914 5.47555 44.9541 2.18104 36.6744 2.16992C36.3031 2.16992 35.947 2.31742 35.6844 2.57997C35.4219 2.84252 35.2744 3.19862 35.2744 3.56992C35.2744 3.94123 35.4219 4.29732 35.6844 4.55987C35.947 4.82242 36.3031 4.96992 36.6744 4.96992C44.2121 4.97919 51.4382 7.9781 56.7675 13.3087C62.0968 18.6393 65.094 25.8662 65.1014 33.4039C65.1014 33.7752 65.2489 34.1313 65.5114 34.3939C65.774 34.6564 66.1301 34.8039 66.5014 34.8039Z" fill="#63AB45"/>
<path d="M55.0624 33.403C55.0624 33.7743 55.2099 34.1304 55.4725 34.393C55.735 34.6555 56.0911 34.803 56.4624 34.803C56.8337 34.803 57.1898 34.6555 57.4524 34.393C57.7149 34.1304 57.8624 33.7743 57.8624 33.403C57.8569 27.7844 55.6229 22.3974 51.6506 18.4238C47.6783 14.4502 42.292 12.2144 36.6734 12.207C36.3021 12.207 35.946 12.3545 35.6835 12.6171C35.4209 12.8796 35.2734 13.2357 35.2734 13.607C35.2734 13.9783 35.4209 14.3344 35.6835 14.597C35.946 14.8595 36.3021 15.007 36.6734 15.007C41.5494 15.0144 46.2235 16.9552 49.6707 20.4037C53.1179 23.8522 55.0569 28.527 55.0624 33.403ZM35.2734 23.645C35.2734 24.0163 35.4209 24.3724 35.6835 24.635C35.946 24.8975 36.3021 25.045 36.6734 25.045C38.8855 25.0579 41.0032 25.9428 42.5667 27.5077C44.1303 29.0725 45.0134 31.191 45.0244 33.403C45.0244 33.7743 45.1719 34.1304 45.4345 34.393C45.697 34.6555 46.0531 34.803 46.4244 34.803C46.7957 34.803 47.1518 34.6555 47.4144 34.393C47.6769 34.1304 47.8244 33.7743 47.8244 33.403C47.8134 30.4484 46.6352 27.6178 44.5466 25.5278C42.458 23.4379 39.6281 22.2579 36.6734 22.245C36.3021 22.245 35.946 22.3925 35.6835 22.6551C35.4209 22.9176 35.2734 23.2737 35.2734 23.645Z" fill="#63AB45"/>
</svg>
