<svg width="25" height="18" viewBox="0 0 25 18" fill="none" xmlns="http://www.w3.org/2000/svg">
<path d="M21.1934 9.66316C18.947 9.66316 15.8221 9.56171 12.7939 9.45969C9.76626 9.45969 6.73863 9.35823 4.39493 9.35823L2.44156 9.35823C2.53943 9.35823 2.53943 9.45969 2.63673 9.45969C3.92942 10.1228 5.11484 10.9795 6.15256 12.0006C6.44065 12.2812 6.7022 12.5882 6.93379 12.9177C7.19212 13.1989 7.42093 13.5062 7.61659 13.8347L8.20265 14.7518C8.39782 15.0567 8.49569 15.3617 8.69085 15.6689C8.78872 15.9738 8.98389 16.1773 8.98389 16.4822C9.0922 16.6657 9.15976 16.8706 9.1819 17.0829C9.23633 17.2563 9.30151 17.4261 9.37706 17.5913C9.1459 17.5932 8.91611 17.6273 8.69427 17.6928C8.45995 17.7816 8.23101 17.8842 8.00863 18C8.00004 17.8267 7.96709 17.6555 7.91076 17.4916C7.91076 17.2881 7.81289 17.1867 7.81289 16.8817C7.81289 16.6783 7.61773 16.3733 7.61773 16.1704C7.51986 15.8655 7.42256 15.662 7.32469 15.3571C7.20071 15.032 7.03669 14.7239 6.83649 14.44L6.25043 13.5229C6.05478 13.1944 5.82596 12.887 5.56763 12.6058C4.66976 11.5536 3.57457 10.6901 2.34484 10.065C1.93672 9.83189 1.51204 9.62958 1.07427 9.45969L1.90735e-06 8.95128L1.17213 8.5449C1.57403 8.36421 1.96538 8.1606 2.34427 7.93504C3.54144 7.25944 4.6284 6.40247 5.56706 5.39415C5.82539 5.11295 6.0542 4.80562 6.24986 4.47707L6.83592 3.55999C7.03109 3.25506 7.12896 2.95013 7.32413 2.64291C7.44889 2.38249 7.54707 2.10998 7.61716 1.82957C7.71478 1.60278 7.78046 1.36337 7.81232 1.11827C7.89212 0.925566 7.92566 0.716618 7.91019 0.508406C7.96652 0.344452 7.99947 0.173277 8.00806 0C8.22957 0.11495 8.45755 0.216766 8.69085 0.304928C8.9127 0.370396 9.14249 0.404537 9.37365 0.40638C9.2981 0.571571 9.23292 0.741373 9.17848 0.914787C9.08062 1.11826 9.08062 1.32117 8.98332 1.52464C8.86944 1.78955 8.77159 2.06116 8.69028 2.33798C8.56629 2.66305 8.40228 2.97115 8.20209 3.25506C8.04205 3.58225 7.84542 3.88994 7.61602 4.17214C7.42034 4.50068 7.19153 4.808 6.93322 5.08922C6.64019 5.39415 6.44502 5.69908 6.15199 6.0063C5.13285 7.04726 3.94455 7.90505 2.63844 8.54261C2.54057 8.54261 2.54057 8.64406 2.44327 8.64406L4.39493 8.64406C6.64133 8.64406 9.76626 8.54261 12.7939 8.54261C15.8215 8.44115 18.8491 8.44115 21.1934 8.33913C23.4398 8.24054 25 8.24054 25 8.24054C24.9447 8.47391 24.9119 8.71212 24.9021 8.95185C24.9119 9.19158 24.9447 9.4298 25 9.66316C23.7319 9.72765 22.4615 9.72765 21.1934 9.66316Z" fill="#0A1F24"/>
</svg>
