<svg width="25" height="18" viewBox="0 0 25 18" fill="none" xmlns="http://www.w3.org/2000/svg">
<path d="M3.80659 8.33684C6.05298 8.33684 9.17791 8.43829 12.2061 8.54031C15.2337 8.54031 18.2614 8.64177 20.6051 8.64177H22.5584C22.4606 8.64177 22.4606 8.54031 22.3633 8.54031C21.0706 7.87722 19.8852 7.02053 18.8474 5.99943C18.5593 5.71882 18.2978 5.4118 18.0662 5.08235C17.8079 4.80114 17.5791 4.49382 17.3834 4.16527L16.7973 3.24819C16.6022 2.94326 16.5043 2.63833 16.3091 2.3311C16.2113 2.02618 16.0161 1.8227 16.0161 1.51777C15.9078 1.3343 15.8402 1.12937 15.8181 0.917081C15.7637 0.743664 15.6985 0.573861 15.6229 0.408674C15.8541 0.406832 16.0839 0.372689 16.3057 0.307222C16.54 0.218416 16.769 0.115833 16.9914 0C17 0.173279 17.0329 0.344453 17.0892 0.508407C17.0892 0.711884 17.1871 0.813336 17.1871 1.11827C17.1871 1.32174 17.3823 1.62667 17.3823 1.82958C17.4801 2.13451 17.5774 2.33798 17.6753 2.64291C17.7993 2.96798 17.9633 3.27609 18.1635 3.55999L18.7496 4.47707C18.9452 4.80563 19.174 5.11295 19.4324 5.39415C20.3302 6.44643 21.4254 7.30989 22.6552 7.93504C23.0633 8.16811 23.488 8.37042 23.9257 8.54031L25 9.04872L23.8279 9.4551C23.426 9.63579 23.0346 9.8394 22.6557 10.065C21.4586 10.7406 20.3716 11.5975 19.4329 12.6058C19.1746 12.8871 18.9458 13.1944 18.7501 13.5229L18.1641 14.44C17.9689 14.7449 17.871 15.0499 17.6759 15.3571C17.5511 15.6175 17.4529 15.89 17.3828 16.1704C17.2852 16.3972 17.2195 16.6366 17.1877 16.8817C17.1079 17.0744 17.0743 17.2834 17.0898 17.4916C17.0335 17.6555 17.0005 17.8267 16.9919 18C16.7704 17.885 16.5424 17.7832 16.3091 17.6951C16.0873 17.6296 15.8575 17.5955 15.6264 17.5936C15.7019 17.4284 15.7671 17.2586 15.8215 17.0852C15.9194 16.8817 15.9194 16.6788 16.0167 16.4754C16.1306 16.2104 16.2284 15.9388 16.3097 15.662C16.4337 15.3369 16.5977 15.0288 16.7979 14.7449C16.9579 14.4178 17.1546 14.1101 17.384 13.8279C17.5797 13.4993 17.8085 13.192 18.0668 12.9108C18.3598 12.6058 18.555 12.3009 18.848 11.9937C19.8672 10.9527 21.0555 10.095 22.3616 9.45739C22.4594 9.45739 22.4594 9.35594 22.5567 9.35594H20.6051C18.3587 9.35594 15.2337 9.45739 12.2061 9.45739C9.17848 9.55885 6.15085 9.55885 3.80659 9.66087C1.56019 9.75946 0 9.75946 0 9.75946C0.0553323 9.52609 0.0881077 9.28788 0.0978674 9.04815C0.0881077 8.80842 0.0553323 8.5702 0 8.33684C1.26805 8.27235 2.53853 8.27235 3.80659 8.33684Z" fill="white"/>
</svg>
