<svg width="24" height="25" viewBox="0 0 24 25" fill="none" xmlns="http://www.w3.org/2000/svg">
<g clip-path="url(#clip0_285_59417)">
<path fill-rule="evenodd" clip-rule="evenodd" d="M18.411 1.4375C15.927 1.4375 13.9141 3.44913 13.9141 5.92972C13.9141 7.84494 15.0513 9.51386 16.2617 10.7397C16.8604 11.3461 17.4607 11.8273 17.9117 12.1569C18.113 12.304 18.2836 12.4203 18.4101 12.5035C18.5367 12.4197 18.7077 12.3024 18.9093 12.1542C19.3605 11.8226 19.961 11.339 20.5599 10.7309C21.7712 9.50119 22.908 7.83231 22.908 5.92972C22.908 3.44913 20.8951 1.4375 18.411 1.4375ZM18.411 13.0587C18.1728 13.4624 18.1727 13.4624 18.1725 13.4623L18.1709 13.4613L18.1672 13.4591C18.1642 13.4573 18.1599 13.4547 18.1546 13.4515C18.1438 13.445 18.1284 13.4356 18.1088 13.4235C18.0695 13.3992 18.0132 13.3638 17.9421 13.3176C17.8 13.2252 17.599 13.0895 17.3585 12.9138C16.8785 12.563 16.2373 12.0494 15.5946 11.3984C14.3222 10.1097 12.9766 8.21412 12.9766 5.92972C12.9766 2.93052 15.41 0.5 18.411 0.5C21.412 0.5 23.8455 2.93052 23.8455 5.92972C23.8455 8.20219 22.4994 10.0978 21.2278 11.3888C20.5853 12.0411 19.9444 12.5569 19.4645 12.9096C19.2242 13.0863 19.0232 13.2228 18.8812 13.3158C18.8102 13.3623 18.7538 13.398 18.7146 13.4224C18.695 13.4346 18.6797 13.444 18.6689 13.4506C18.6665 13.452 18.6643 13.4534 18.6623 13.4546C18.6599 13.456 18.6579 13.4572 18.6562 13.4582L18.6526 13.4604L18.6514 13.4611L18.651 13.4614C18.6508 13.4615 18.6507 13.4616 18.411 13.0587ZM18.411 13.0587L18.6507 13.4616C18.5035 13.5491 18.3203 13.5494 18.1728 13.4624L18.411 13.0587Z" fill="#63AB45"/>
<path fill-rule="evenodd" clip-rule="evenodd" d="M18.4099 4.08447C17.3892 4.08447 16.5625 4.91103 16.5625 5.92971C16.5625 6.94838 17.3892 7.77494 18.4099 7.77494C19.4307 7.77494 20.2574 6.94838 20.2574 5.92971C20.2574 4.91103 19.4307 4.08447 18.4099 4.08447ZM15.625 5.92971C15.625 4.39242 16.8723 3.14697 18.4099 3.14697C19.9476 3.14697 21.1949 4.39242 21.1949 5.92971C21.1949 7.46699 19.9476 8.71244 18.4099 8.71244C16.8723 8.71244 15.625 7.46699 15.625 5.92971Z" fill="#63AB45"/>
<path fill-rule="evenodd" clip-rule="evenodd" d="M18.4109 13.5275C18.0379 13.5275 17.7363 13.8294 17.7363 14.2009C17.7363 14.5724 18.0379 14.8744 18.4109 14.8744C18.7839 14.8744 19.0855 14.5724 19.0855 14.2009C19.0855 13.8294 18.7839 13.5275 18.4109 13.5275ZM16.7988 14.2009C16.7988 13.3108 17.521 12.59 18.4109 12.59C19.3008 12.59 20.023 13.3108 20.023 14.2009C20.023 15.0911 19.3008 15.8119 18.4109 15.8119C17.521 15.8119 16.7988 15.0911 16.7988 14.2009Z" fill="#63AB45"/>
<path fill-rule="evenodd" clip-rule="evenodd" d="M6.36655 7.87427C3.45293 7.87427 1.0918 10.2338 1.0918 13.1435C1.0918 15.3876 2.42351 17.3356 3.82835 18.7584C4.52426 19.4632 5.22178 20.0224 5.74572 20.4053C6.00174 20.5924 6.21531 20.7367 6.36562 20.8347C6.51604 20.736 6.72991 20.5905 6.98635 20.402C7.51046 20.0168 8.20819 19.4549 8.90432 18.7482C10.31 17.321 11.6413 15.373 11.6413 13.1435C11.6413 10.2338 9.28016 7.87427 6.36655 7.87427ZM6.36655 21.389C6.12838 21.7928 6.12823 21.7927 6.12806 21.7926L6.12634 21.7916L6.12221 21.7891C6.11878 21.7871 6.11398 21.7842 6.10785 21.7805C6.09561 21.7731 6.07807 21.7624 6.05559 21.7485C6.01064 21.7207 5.9459 21.6801 5.8642 21.6269C5.70087 21.5207 5.46942 21.3645 5.19253 21.1622C4.63956 20.758 3.90121 20.1665 3.16124 19.4171C1.69434 17.9315 0.154297 15.7568 0.154297 13.1435C0.154297 9.71519 2.93601 6.93677 6.36655 6.93677C9.79709 6.93677 12.5787 9.7152 12.5787 13.1435C12.5787 15.7429 11.0383 17.9177 9.57223 19.4061C8.83249 20.1571 8.09436 20.7511 7.54157 21.1574C7.26478 21.3609 7.03341 21.518 6.87015 21.6249C6.7885 21.6784 6.7238 21.7194 6.67888 21.7474C6.65642 21.7614 6.6389 21.7721 6.62667 21.7795C6.62055 21.7833 6.61576 21.7862 6.61233 21.7882L6.60822 21.7907L6.60695 21.7914L6.6065 21.7917C6.60634 21.7918 6.60619 21.7919 6.36655 21.389ZM6.36655 21.389L6.60619 21.7919C6.45904 21.8794 6.27586 21.8798 6.12838 21.7928L6.36655 21.389Z" fill="#63AB45"/>
<path fill-rule="evenodd" clip-rule="evenodd" d="M6.36573 10.2887C4.78692 10.2887 3.50781 11.5672 3.50781 13.1434C3.50781 14.7196 4.78692 15.9982 6.36573 15.9982C7.94454 15.9982 9.22366 14.7196 9.22366 13.1434C9.22366 11.5672 7.94454 10.2887 6.36573 10.2887ZM2.57031 13.1434C2.57031 11.0486 4.27 9.3512 6.36573 9.3512C8.46146 9.3512 10.1612 11.0486 10.1612 13.1434C10.1612 15.2382 8.46146 16.9357 6.36573 16.9357C4.27 16.9357 2.57031 15.2382 2.57031 13.1434Z" fill="#63AB45"/>
<path fill-rule="evenodd" clip-rule="evenodd" d="M6.36731 21.8578C5.89544 21.8578 5.51367 22.2398 5.51367 22.7102C5.51367 23.1805 5.89544 23.5625 6.36731 23.5625C6.83919 23.5625 7.22095 23.1805 7.22095 22.7102C7.22095 22.2398 6.83919 21.8578 6.36731 21.8578ZM4.57617 22.7102C4.57617 21.7212 5.37852 20.9203 6.36731 20.9203C7.35611 20.9203 8.15845 21.7212 8.15845 22.7102C8.15845 23.6991 7.35611 24.5 6.36731 24.5C5.37852 24.5 4.57617 23.6991 4.57617 22.7102Z" fill="#63AB45"/>
<path fill-rule="evenodd" clip-rule="evenodd" d="M18.4111 16.8472C18.67 16.8472 18.8799 17.057 18.8799 17.3159C18.8799 18.201 18.1619 18.9177 17.277 18.9177H15.5767C15.2157 18.9177 14.9238 19.21 14.9238 19.5695C14.9238 19.9291 15.2157 20.2214 15.5767 20.2214H20.7073C21.6358 20.2214 22.3892 20.9734 22.3892 21.9021C22.3892 22.8308 21.6358 23.5829 20.7073 23.5829H9.70898C9.4501 23.5829 9.24023 23.373 9.24023 23.1141C9.24023 22.8552 9.4501 22.6454 9.70898 22.6454H20.7073C21.1189 22.6454 21.4517 22.3122 21.4517 21.9021C21.4517 21.4921 21.1189 21.1589 20.7073 21.1589H15.5767C14.6987 21.1589 13.9863 20.4477 13.9863 19.5695C13.9863 18.6913 14.6988 17.9802 15.5767 17.9802H17.277C17.6449 17.9802 17.9424 17.6824 17.9424 17.3159C17.9424 17.057 18.1523 16.8472 18.4111 16.8472Z" fill="#63AB45"/>
</g>
<defs>
<clipPath id="clip0_285_59417">
<rect width="24" height="24" fill="white" transform="translate(0 0.5)"/>
</clipPath>
</defs>
</svg>
