<svg width="24" height="25" viewBox="0 0 24 25" fill="none" xmlns="http://www.w3.org/2000/svg">
<path d="M6.75 11.75H7.5V20H6.75V11.75ZM4.5 11.75H5.25V20H4.5V11.75ZM2.25 11.75H3V20H2.25V11.75ZM9 11.75H9.75V20H9V11.75Z" fill="#63AB45"/>
<path d="M19.238 12.7361L19.8831 11.7223L20.8259 12.288C20.8976 12.3311 20.9817 12.3489 21.0647 12.3387C21.1477 12.3285 21.2249 12.2908 21.2841 12.2317C21.3432 12.1725 21.3809 12.0953 21.3911 12.0123C21.4013 11.9292 21.3835 11.8452 21.3404 11.7735L20.7747 10.8306L23.0763 9.36598C23.1237 9.33584 23.1637 9.29543 23.1934 9.24775C23.2231 9.20007 23.2417 9.14634 23.2478 9.09051C23.2539 9.03469 23.2474 8.9782 23.2288 8.92522C23.2102 8.87224 23.1799 8.82411 23.1402 8.78441L22.3447 7.98894C22.298 7.9422 22.2397 7.90865 22.1758 7.89169C22.1119 7.87474 22.0446 7.87497 21.9809 7.89237L19.3174 8.61875C19.2448 8.52828 19.1707 8.43891 19.0954 8.35067L17.2914 6.24612L21.4877 3.53084C21.5694 3.47802 21.6273 3.39552 21.6493 3.30078C21.6713 3.20604 21.6556 3.10645 21.6056 3.02305L20.8101 1.69723C20.7671 1.62552 20.7013 1.57025 20.6233 1.5402C20.5452 1.51016 20.4593 1.50708 20.3793 1.53144L14.7253 3.25222L14.4076 2.88172C13.6662 2.01439 12.6221 1.46226 11.4879 1.33775L10.7189 1.25234C10.663 1.24613 10.6064 1.25257 10.5534 1.27118C10.5003 1.28979 10.4521 1.3201 10.4123 1.35987C10.3726 1.39963 10.3422 1.44783 10.3236 1.5009C10.305 1.55397 10.2986 1.61054 10.3048 1.66644L10.3902 2.43561C10.5147 3.5698 11.0668 4.61389 11.9341 5.35531L12.3047 5.67294L11.0522 9.78819C10.8965 9.47653 10.6572 9.21434 10.361 9.03099C10.0648 8.84763 9.72337 8.75034 9.375 8.75H7.875V3.125C7.875 2.62772 7.67746 2.15081 7.32583 1.79917C6.97419 1.44754 6.49728 1.25 6 1.25C5.50272 1.25 5.02581 1.44754 4.67417 1.79917C4.32254 2.15081 4.125 2.62772 4.125 3.125V8.75H2.625C2.12789 8.75057 1.65131 8.9483 1.29981 9.2998C0.948298 9.65131 0.750571 10.1279 0.75 10.625V20.375C0.750609 20.8198 0.909124 21.25 1.19731 21.5889C1.48549 21.9278 1.88462 22.1534 2.32359 22.2254C2.25917 22.3947 2.23658 22.5771 2.25774 22.757C2.2789 22.9369 2.34318 23.109 2.44512 23.2587C2.54706 23.4084 2.68365 23.5313 2.84327 23.6169C3.0029 23.7026 3.18083 23.7484 3.36195 23.7505C3.54307 23.7526 3.72203 23.7109 3.8836 23.629C4.04517 23.5472 4.18458 23.4275 4.28997 23.2802C4.39537 23.1329 4.46364 22.9623 4.48898 22.7829C4.51431 22.6036 4.49597 22.4207 4.4355 22.25H8.3145C8.25038 22.4309 8.23362 22.6252 8.26581 22.8145C8.29801 23.0037 8.37808 23.1815 8.49841 23.3311C8.61875 23.4806 8.77534 23.5969 8.9533 23.6688C9.13126 23.7408 9.32467 23.766 9.51512 23.7421C9.70557 23.7182 9.88674 23.6459 10.0414 23.5322C10.196 23.4185 10.319 23.2671 10.3986 23.0925C10.4782 22.9178 10.5119 22.7257 10.4963 22.5344C10.4807 22.343 10.4164 22.1589 10.3095 21.9995C10.5951 21.8352 10.8325 21.5985 10.9976 21.3133C11.1627 21.0282 11.2497 20.7045 11.25 20.375V12.058L12.0755 12.5532C12.08 12.5559 12.0848 12.5578 12.0895 12.5604L12.7265 15.3582C12.1529 16.3736 11.909 17.5421 12.0286 18.7021C12.1482 19.8622 12.6253 20.9564 13.394 21.8334C14.1627 22.7103 15.185 23.3267 16.3194 23.5973C17.4537 23.8679 18.6441 23.7792 19.7259 23.3436C20.8077 22.9079 21.7273 22.1469 22.3576 21.1657C22.9879 20.1845 23.2977 19.0317 23.2441 17.8667C23.1905 16.7018 22.7762 15.5823 22.0585 14.6631C21.3408 13.7439 20.3552 13.0705 19.238 12.736V12.7361ZM18.4598 12.562C18.2536 12.5313 18.046 12.5121 17.8378 12.5044L18.3164 10.7495C18.5354 10.9023 18.7591 11.0475 18.9875 11.185L19.2397 11.3363L18.4598 12.562ZM17.4031 10.043C17.4913 10.1183 17.5807 10.1923 17.6711 10.265L17.0535 12.5298C16.6061 12.5743 16.1659 12.6728 15.7422 12.823L12.9239 11.9088L15.2985 8.23902L17.4031 10.043ZM21.9683 8.67312L22.2793 8.98423L20.3887 10.1874L20.2374 9.93519C20.1004 9.70687 19.9552 9.48312 19.8019 9.26394L21.9683 8.67312ZM20.3175 2.33422L20.7759 3.09814L16.7989 5.67153L15.2581 3.87402L20.3175 2.33422ZM11.1355 2.35278L11.1018 2.0495L11.4051 2.08325C12.3502 2.18699 13.2203 2.64707 13.8382 3.36983L18.5259 8.83878C18.9229 9.30207 19.2802 9.79788 19.5942 10.321L19.9255 10.8731L19.3733 10.5418C18.8503 10.2278 18.3545 9.87046 17.8912 9.47351L12.4222 4.78578C11.6994 4.16791 11.2394 3.29784 11.1356 2.35269L11.1355 2.35278ZM4.875 3.125C4.875 2.82663 4.99353 2.54048 5.2045 2.3295C5.41548 2.11853 5.70163 2 6 2C6.29837 2 6.58452 2.11853 6.7955 2.3295C7.00647 2.54048 7.125 2.82663 7.125 3.125V8.75H4.875V3.125ZM3.75 22.625C3.75 22.6992 3.72801 22.7717 3.6868 22.8333C3.6456 22.895 3.58703 22.9431 3.51851 22.9715C3.44998 22.9998 3.37458 23.0073 3.30184 22.9928C3.2291 22.9783 3.16228 22.9426 3.10984 22.8902C3.05739 22.8377 3.02167 22.7709 3.00721 22.6982C2.99274 22.6254 3.00016 22.55 3.02855 22.4815C3.05693 22.413 3.10499 22.3544 3.16666 22.3132C3.22833 22.272 3.30083 22.25 3.375 22.25C3.47442 22.2501 3.56973 22.2897 3.64003 22.36C3.71033 22.4303 3.74988 22.5256 3.75 22.625ZM9.75 22.625C9.75 22.6992 9.72801 22.7717 9.6868 22.8333C9.6456 22.895 9.58703 22.9431 9.51851 22.9715C9.44998 22.9998 9.37458 23.0073 9.30184 22.9928C9.2291 22.9783 9.16228 22.9426 9.10983 22.8902C9.05739 22.8377 9.02168 22.7709 9.00721 22.6982C8.99274 22.6254 9.00016 22.55 9.02855 22.4815C9.05693 22.413 9.10499 22.3544 9.16666 22.3132C9.22833 22.272 9.30083 22.25 9.375 22.25C9.47442 22.2501 9.56973 22.2897 9.64003 22.36C9.71033 22.4303 9.74988 22.5256 9.75 22.625ZM10.5 20.375C10.4997 20.6733 10.381 20.9592 10.1701 21.1701C9.95922 21.381 9.67327 21.4997 9.375 21.5H2.625C2.32673 21.4997 2.04078 21.381 1.82987 21.1701C1.61897 20.9592 1.50033 20.6733 1.5 20.375V10.625C1.50033 10.3267 1.61897 10.0408 1.82987 9.82987C2.04078 9.61897 2.32673 9.50033 2.625 9.5H4.125V10.625H4.875V9.5H7.125V10.625H7.875V9.5H9.375C9.67327 9.50033 9.95922 9.61897 10.1701 9.82987C10.381 10.0408 10.4997 10.3267 10.5 10.625V20.375ZM12.9264 6.20581L14.7239 7.7465L12.1505 11.7236L11.3865 11.2652L12.9264 6.20581ZM17.625 23C16.762 22.9998 15.9145 22.7706 15.169 22.3357C14.4236 21.9008 13.8069 21.2759 13.382 20.5247C12.9571 19.7735 12.7391 18.9231 12.7504 18.0601C12.7617 17.1972 13.0018 16.3527 13.4462 15.6129C13.4963 15.5298 13.5122 15.4306 13.4907 15.3361L12.8872 12.6853L15.6343 13.5764C15.7158 13.6029 15.8039 13.6006 15.884 13.57C16.5521 13.3147 17.2681 13.2095 17.9814 13.2619C18.6947 13.3143 19.3877 13.5229 20.0113 13.8731C20.635 14.2232 21.1739 14.7063 21.59 15.288C22.0061 15.8697 22.289 16.5359 22.4189 17.2392C22.5487 17.9425 22.5223 18.6658 22.3414 19.3577C22.1604 20.0497 21.8295 20.6933 21.372 21.2431C20.9146 21.7928 20.3417 22.2352 19.6942 22.5388C19.0466 22.8425 18.3402 22.9999 17.625 23Z" fill="#63AB45"/>
<path d="M19.875 17.75C19.7963 17.75 19.7196 17.7748 19.6557 17.8208C19.5919 17.8668 19.5441 17.9317 19.5192 18.0064L19.1393 19.1463L17.9834 15.3897C17.9598 15.3131 17.9123 15.246 17.8478 15.1984C17.7833 15.1507 17.7052 15.125 17.625 15.125H17.6212C17.5404 15.1258 17.462 15.1528 17.3977 15.2018C17.3334 15.2508 17.2867 15.3193 17.2644 15.397L16.5922 17.75H13.5V18.5H16.875C16.9565 18.5 17.0358 18.4734 17.1008 18.4244C17.1659 18.3753 17.2132 18.3063 17.2356 18.228L17.6383 16.8184L18.7666 20.4853C18.79 20.5612 18.8368 20.6278 18.9005 20.6753C18.9641 20.7229 19.0412 20.749 19.1206 20.75L19.125 20.75C19.2037 20.75 19.2804 20.7252 19.3443 20.6792C19.4081 20.6332 19.4559 20.5683 19.4808 20.4936L20.1453 18.5H21.75V17.75H19.875Z" fill="#63AB45"/>
</svg>
