<svg width="24" height="19" viewBox="0 0 24 19" fill="none" xmlns="http://www.w3.org/2000/svg">
<path d="M20.7566 8.19275C21.4594 7.58932 21.9248 6.58553 21.9248 5.4541C21.9248 3.60319 20.6996 2.10621 19.1848 2.10621C17.67 2.10621 16.4448 3.60319 16.4448 5.4541C16.4448 6.58553 16.9054 7.58932 17.613 8.19275C17.0099 8.44805 16.459 8.8426 15.9937 9.3532C15.3526 8.68594 14.5975 8.17534 13.7713 7.87363C14.7732 7.13094 15.4476 5.77902 15.4476 4.24143C15.4476 1.89733 13.8947 0 11.9763 0C10.0578 0 8.50495 1.90313 8.50495 4.24143C8.50495 5.77902 9.17451 7.13094 10.1812 7.87363C9.36446 8.17534 8.61892 8.68014 7.98259 9.33579C7.51721 8.8368 6.97586 8.44805 6.38227 8.19855C7.08508 7.59512 7.55046 6.59134 7.55046 5.4599C7.55046 3.60899 6.32529 2.11201 4.81045 2.11201C3.29561 2.11201 2.07044 3.60899 2.07044 5.4599C2.07044 6.59134 2.53106 7.59512 3.23862 8.19855C1.35338 8.99346 0 11.1809 0 13.7513V14.1342C0 14.1458 0.00949743 14.1574 0.0189949 14.1574H5.82667C5.79343 14.4766 5.77444 14.8073 5.77444 15.138V15.5326C5.77444 17.2384 6.90463 18.6194 8.30075 18.6194H15.6613C17.0574 18.6194 18.1876 17.2384 18.1876 15.5326V15.138C18.1876 14.8073 18.1686 14.4766 18.1353 14.1574H23.981C23.9905 14.1574 24 14.1458 24 14.1342V13.7513C23.9905 11.1751 22.6419 8.98766 20.7566 8.19275ZM17.2046 5.4483C17.2046 4.11378 18.0926 3.02876 19.1848 3.02876C20.277 3.02876 21.165 4.11378 21.165 5.4483C21.165 6.7654 20.296 7.83882 19.2228 7.86783H19.1468C18.0689 7.84462 17.2046 6.7712 17.2046 5.4483ZM9.25524 4.24143C9.25524 2.41373 10.4709 0.928357 11.9668 0.928357C13.4626 0.928357 14.6783 2.41373 14.6783 4.24143C14.6783 6.00531 13.5433 7.45007 12.1235 7.5487H11.8101C10.3902 7.45007 9.25524 6.00531 9.25524 4.24143ZM2.81599 5.4483C2.81599 4.11378 3.704 3.02876 4.7962 3.02876C5.88841 3.02876 6.77641 4.11378 6.77641 5.4483C6.77641 6.7654 5.9074 7.83882 4.83419 7.86783H4.75821C3.685 7.84462 2.81599 6.7712 2.81599 5.4483ZM5.95964 13.2233H0.769292C0.982984 10.7515 2.69252 8.81359 4.76771 8.79618H4.82469C5.81243 8.80199 6.71468 9.24876 7.41274 9.97404C6.72893 10.8792 6.22082 11.9932 5.95964 13.2233ZM17.4183 15.5326C17.4183 16.722 16.6252 17.691 15.6518 17.691H8.29125C7.31777 17.691 6.52473 16.722 6.52473 15.5326V15.138C6.52473 11.5348 8.88009 8.5873 11.8101 8.48286C11.8623 8.48867 11.9193 8.48867 11.9715 8.48867C12.0237 8.48867 12.0807 8.48867 12.133 8.48286C15.0629 8.5873 17.4183 11.5348 17.4183 15.138V15.5326ZM17.9834 13.2233C17.7222 11.999 17.2236 10.9024 16.5445 9.99724C17.2473 9.25456 18.1591 8.80779 19.1563 8.79618H19.2133C21.2885 8.81359 22.998 10.7515 23.2117 13.2233H17.9834Z" fill="#63AB45"/>
</svg>
