<svg width="26" height="27" viewBox="0 0 26 27" fill="none" xmlns="http://www.w3.org/2000/svg">
<path d="M10.9688 6.49365H12.5938C12.7015 6.49365 12.8048 6.45085 12.881 6.37466C12.9572 6.29848 13 6.19515 13 6.0874V3.6499C13 3.54216 12.9572 3.43883 12.881 3.36264C12.8048 3.28645 12.7015 3.24365 12.5938 3.24365H10.9688C10.861 3.24365 10.7577 3.28645 10.6815 3.36264C10.6053 3.43883 10.5625 3.54216 10.5625 3.6499V6.0874C10.5625 6.19515 10.6053 6.29848 10.6815 6.37466C10.7577 6.45085 10.861 6.49365 10.9688 6.49365ZM11.375 4.05615H12.1875V5.68115H11.375V4.05615ZM14.2188 6.49365H15.8438C15.9515 6.49365 16.0548 6.45085 16.131 6.37466C16.2072 6.29848 16.25 6.19515 16.25 6.0874V3.6499C16.25 3.54216 16.2072 3.43883 16.131 3.36264C16.0548 3.28645 15.9515 3.24365 15.8438 3.24365H14.2188C14.111 3.24365 14.0077 3.28645 13.9315 3.36264C13.8553 3.43883 13.8125 3.54216 13.8125 3.6499V6.0874C13.8125 6.19515 13.8553 6.29848 13.9315 6.37466C14.0077 6.45085 14.111 6.49365 14.2188 6.49365ZM14.625 4.05615H15.4375V5.68115H14.625V4.05615ZM17.4688 6.49365H19.0938C19.2015 6.49365 19.3048 6.45085 19.381 6.37466C19.4572 6.29848 19.5 6.19515 19.5 6.0874V3.6499C19.5 3.54216 19.4572 3.43883 19.381 3.36264C19.3048 3.28645 19.2015 3.24365 19.0938 3.24365H17.4688C17.361 3.24365 17.2577 3.28645 17.1815 3.36264C17.1053 3.43883 17.0625 3.54216 17.0625 3.6499V6.0874C17.0625 6.19515 17.1053 6.29848 17.1815 6.37466C17.2577 6.45085 17.361 6.49365 17.4688 6.49365ZM17.875 4.05615H18.6875V5.68115H17.875V4.05615ZM10.9688 10.5562H12.5938C12.7015 10.5562 12.8048 10.5134 12.881 10.4372C12.9572 10.361 13 10.2576 13 10.1499V7.7124C13 7.60466 12.9572 7.50133 12.881 7.42514C12.8048 7.34895 12.7015 7.30615 12.5938 7.30615H10.9688C10.861 7.30615 10.7577 7.34895 10.6815 7.42514C10.6053 7.50133 10.5625 7.60466 10.5625 7.7124V10.1499C10.5625 10.2576 10.6053 10.361 10.6815 10.4372C10.7577 10.5134 10.861 10.5562 10.9688 10.5562ZM11.375 8.11865H12.1875V9.74365H11.375V8.11865ZM14.2188 10.5562H15.8438C15.9515 10.5562 16.0548 10.5134 16.131 10.4372C16.2072 10.361 16.25 10.2576 16.25 10.1499V7.7124C16.25 7.60466 16.2072 7.50133 16.131 7.42514C16.0548 7.34895 15.9515 7.30615 15.8438 7.30615H14.2188C14.111 7.30615 14.0077 7.34895 13.9315 7.42514C13.8553 7.50133 13.8125 7.60466 13.8125 7.7124V10.1499C13.8125 10.2576 13.8553 10.361 13.9315 10.4372C14.0077 10.5134 14.111 10.5562 14.2188 10.5562ZM14.625 8.11865H15.4375V9.74365H14.625V8.11865ZM17.4688 10.5562H19.0938C19.2015 10.5562 19.3048 10.5134 19.381 10.4372C19.4572 10.361 19.5 10.2576 19.5 10.1499V7.7124C19.5 7.60466 19.4572 7.50133 19.381 7.42514C19.3048 7.34895 19.2015 7.30615 19.0938 7.30615H17.4688C17.361 7.30615 17.2577 7.34895 17.1815 7.42514C17.1053 7.50133 17.0625 7.60466 17.0625 7.7124V10.1499C17.0625 10.2576 17.1053 10.361 17.1815 10.4372C17.2577 10.5134 17.361 10.5562 17.4688 10.5562ZM17.875 8.11865H18.6875V9.74365H17.875V8.11865ZM7.71875 6.49365H9.34375C9.45149 6.49365 9.55483 6.45085 9.63101 6.37466C9.7072 6.29848 9.75 6.19515 9.75 6.0874V3.6499C9.75 3.54216 9.7072 3.43883 9.63101 3.36264C9.55483 3.28645 9.45149 3.24365 9.34375 3.24365H7.71875C7.61101 3.24365 7.50767 3.28645 7.43149 3.36264C7.3553 3.43883 7.3125 3.54216 7.3125 3.6499V6.0874C7.3125 6.19515 7.3553 6.29848 7.43149 6.37466C7.50767 6.45085 7.61101 6.49365 7.71875 6.49365ZM8.125 4.05615H8.9375V5.68115H8.125V4.05615ZM7.71875 10.5562H9.34375C9.45149 10.5562 9.55483 10.5134 9.63101 10.4372C9.7072 10.361 9.75 10.2576 9.75 10.1499V7.7124C9.75 7.60466 9.7072 7.50133 9.63101 7.42514C9.55483 7.34895 9.45149 7.30615 9.34375 7.30615H7.71875C7.61101 7.30615 7.50767 7.34895 7.43149 7.42514C7.3553 7.50133 7.3125 7.60466 7.3125 7.7124V10.1499C7.3125 10.2576 7.3553 10.361 7.43149 10.4372C7.50767 10.5134 7.61101 10.5562 7.71875 10.5562ZM8.125 8.11865H8.9375V9.74365H8.125V8.11865ZM10.9688 14.6187H12.5938C12.7015 14.6187 12.8048 14.5759 12.881 14.4997C12.9572 14.4235 13 14.3201 13 14.2124V11.7749C13 11.6672 12.9572 11.5638 12.881 11.4876C12.8048 11.4115 12.7015 11.3687 12.5938 11.3687H10.9688C10.861 11.3687 10.7577 11.4115 10.6815 11.4876C10.6053 11.5638 10.5625 11.6672 10.5625 11.7749V14.2124C10.5625 14.3201 10.6053 14.4235 10.6815 14.4997C10.7577 14.5759 10.861 14.6187 10.9688 14.6187ZM11.375 12.1812H12.1875V13.8062H11.375V12.1812ZM7.71875 14.6187H9.34375C9.45149 14.6187 9.55483 14.5759 9.63101 14.4997C9.7072 14.4235 9.75 14.3201 9.75 14.2124V11.7749C9.75 11.6672 9.7072 11.5638 9.63101 11.4876C9.55483 11.4115 9.45149 11.3687 9.34375 11.3687H7.71875C7.61101 11.3687 7.50767 11.4115 7.43149 11.4876C7.3553 11.5638 7.3125 11.6672 7.3125 11.7749V14.2124C7.3125 14.3201 7.3553 14.4235 7.43149 14.4997C7.50767 14.5759 7.61101 14.6187 7.71875 14.6187ZM8.125 12.1812H8.9375V13.8062H8.125V12.1812ZM14.2188 14.6187H15.8438C15.9515 14.6187 16.0548 14.5759 16.131 14.4997C16.2072 14.4235 16.25 14.3201 16.25 14.2124V11.7749C16.25 11.6672 16.2072 11.5638 16.131 11.4876C16.0548 11.4115 15.9515 11.3687 15.8438 11.3687H14.2188C14.111 11.3687 14.0077 11.4115 13.9315 11.4876C13.8553 11.5638 13.8125 11.6672 13.8125 11.7749V14.2124C13.8125 14.3201 13.8553 14.4235 13.9315 14.4997C14.0077 14.5759 14.111 14.6187 14.2188 14.6187ZM14.625 12.1812H15.4375V13.8062H14.625V12.1812ZM17.4688 14.6187H19.0938C19.2015 14.6187 19.3048 14.5759 19.381 14.4997C19.4572 14.4235 19.5 14.3201 19.5 14.2124V11.7749C19.5 11.6672 19.4572 11.5638 19.381 11.4876C19.3048 11.4115 19.2015 11.3687 19.0938 11.3687H17.4688C17.361 11.3687 17.2577 11.4115 17.1815 11.4876C17.1053 11.5638 17.0625 11.6672 17.0625 11.7749V14.2124C17.0625 14.3201 17.1053 14.4235 17.1815 14.4997C17.2577 14.5759 17.361 14.6187 17.4688 14.6187ZM17.875 12.1812H18.6875V13.8062H17.875V12.1812ZM10.9688 18.6812H12.5938C12.7015 18.6812 12.8048 18.6384 12.881 18.5622C12.9572 18.486 13 18.3826 13 18.2749V15.8374C13 15.7297 12.9572 15.6263 12.881 15.5501C12.8048 15.474 12.7015 15.4312 12.5938 15.4312H10.9688C10.861 15.4312 10.7577 15.474 10.6815 15.5501C10.6053 15.6263 10.5625 15.7297 10.5625 15.8374V18.2749C10.5625 18.3826 10.6053 18.486 10.6815 18.5622C10.7577 18.6384 10.861 18.6812 10.9688 18.6812ZM11.375 16.2437H12.1875V17.8687H11.375V16.2437ZM7.71875 18.6812H9.34375C9.45149 18.6812 9.55483 18.6384 9.63101 18.5622C9.7072 18.486 9.75 18.3826 9.75 18.2749V15.8374C9.75 15.7297 9.7072 15.6263 9.63101 15.5501C9.55483 15.474 9.45149 15.4312 9.34375 15.4312H7.71875C7.61101 15.4312 7.50767 15.474 7.43149 15.5501C7.3553 15.6263 7.3125 15.7297 7.3125 15.8374V18.2749C7.3125 18.3826 7.3553 18.486 7.43149 18.5622C7.50767 18.6384 7.61101 18.6812 7.71875 18.6812ZM8.125 16.2437H8.9375V17.8687H8.125V16.2437ZM14.2188 18.6812H15.8438C15.9515 18.6812 16.0548 18.6384 16.131 18.5622C16.2072 18.486 16.25 18.3826 16.25 18.2749V15.8374C16.25 15.7297 16.2072 15.6263 16.131 15.5501C16.0548 15.474 15.9515 15.4312 15.8438 15.4312H14.2188C14.111 15.4312 14.0077 15.474 13.9315 15.5501C13.8553 15.6263 13.8125 15.7297 13.8125 15.8374V18.2749C13.8125 18.3826 13.8553 18.486 13.9315 18.5622C14.0077 18.6384 14.111 18.6812 14.2188 18.6812ZM14.625 16.2437H15.4375V17.8687H14.625V16.2437ZM17.4688 18.6812H19.0938C19.2015 18.6812 19.3048 18.6384 19.381 18.5622C19.4572 18.486 19.5 18.3826 19.5 18.2749V15.8374C19.5 15.7297 19.4572 15.6263 19.381 15.5501C19.3048 15.474 19.2015 15.4312 19.0938 15.4312H17.4688C17.361 15.4312 17.2577 15.474 17.1815 15.5501C17.1053 15.6263 17.0625 15.7297 17.0625 15.8374V18.2749C17.0625 18.3826 17.1053 18.486 17.1815 18.5622C17.2577 18.6384 17.361 18.6812 17.4688 18.6812ZM17.875 16.2437H18.6875V17.8687H17.875V16.2437Z" fill="#63AB45"/>
<path d="M24.781 16.2437H21.1247V2.0249C21.1247 1.91716 21.0819 1.81383 21.0058 1.73764C20.9296 1.66145 20.8262 1.61865 20.7185 1.61865H6.09349C5.98575 1.61865 5.88241 1.66145 5.80623 1.73764C5.73004 1.81383 5.68724 1.91716 5.68724 2.0249V16.6028C5.34565 16.383 4.95115 16.2595 4.54526 16.245C4.13936 16.2305 3.73707 16.3258 3.38071 16.5206C3.02436 16.7155 2.72712 17.0028 2.52026 17.3524C2.31341 17.7019 2.2046 18.1007 2.20527 18.5069C2.2057 18.7325 2.24063 18.9568 2.30886 19.1719C1.80779 19.3515 1.38626 19.7023 1.11865 20.1625C0.851048 20.6226 0.754574 21.1625 0.846255 21.6868C0.937936 22.2111 1.21188 22.6862 1.61974 23.0282C2.0276 23.3703 2.54317 23.5572 3.07546 23.5562C3.41835 23.5541 3.75611 23.4726 4.06224 23.3181V24.7749C4.06224 24.8826 4.10504 24.986 4.18123 25.0622C4.25741 25.1384 4.36075 25.1812 4.46849 25.1812C4.57623 25.1812 4.67957 25.1384 4.75575 25.0622C4.83194 24.986 4.87474 24.8826 4.87474 24.7749V23.3181C5.12887 23.4436 5.40466 23.5193 5.68724 23.5411V24.7749C5.68724 24.8826 5.73004 24.986 5.80623 25.0622C5.88241 25.1384 5.98575 25.1812 6.09349 25.1812H23.9685C24.0762 25.1812 24.1796 25.1384 24.2558 25.0622C24.3319 24.986 24.3747 24.8826 24.3747 24.7749V18.6812H24.781C24.8887 18.6812 24.9921 18.6384 25.0683 18.5622C25.1444 18.486 25.1872 18.3826 25.1872 18.2749V16.6499C25.1872 16.5422 25.1444 16.4388 25.0683 16.3626C24.9921 16.2865 24.8887 16.2437 24.781 16.2437ZM4.46849 21.1187C4.36075 21.1187 4.25741 21.1615 4.18123 21.2376C4.10504 21.3138 4.06224 21.4172 4.06224 21.5249V22.3374C3.79884 22.5963 3.44477 22.742 3.07546 22.7437C2.70409 22.7451 2.34642 22.6036 2.07656 22.3484C1.80671 22.0933 1.64537 21.7441 1.62599 21.3733C1.60661 21.0024 1.73068 20.6383 1.97247 20.3564C2.21427 20.0746 2.55525 19.8966 2.92474 19.8593C2.9925 19.852 3.05734 19.8278 3.11329 19.7889C3.16925 19.75 3.21452 19.6977 3.24495 19.6367C3.27538 19.5758 3.28998 19.5081 3.28741 19.44C3.28484 19.3719 3.26518 19.3056 3.23024 19.2471C3.09361 19.0243 3.02081 18.7682 3.0198 18.5069C3.0198 18.1221 3.17265 17.7531 3.44471 17.4811C3.71677 17.209 4.08577 17.0562 4.47052 17.0562C4.85528 17.0562 5.22427 17.209 5.49633 17.4811C5.7684 17.7531 5.92124 18.1221 5.92124 18.5069C5.92023 18.7682 5.84744 19.0243 5.7108 19.2471C5.67587 19.3056 5.65621 19.3719 5.65364 19.44C5.65107 19.5081 5.66567 19.5758 5.69609 19.6367C5.72652 19.6977 5.77179 19.75 5.82775 19.7889C5.88371 19.8278 5.94855 19.852 6.0163 19.8593C6.38599 19.8965 6.72714 20.0747 6.96897 20.3568C7.2108 20.6389 7.33475 21.0033 7.3151 21.3743C7.29545 21.7453 7.13371 22.0946 6.86344 22.3495C6.59316 22.6045 6.23511 22.7456 5.86355 22.7437C5.49354 22.7426 5.13864 22.5968 4.87474 22.3374V21.5249C4.87474 21.4172 4.83194 21.3138 4.75575 21.2376C4.67957 21.1615 4.57623 21.1187 4.46849 21.1187ZM15.4372 24.3687H11.3747V20.3062H15.4372V24.3687ZM20.3122 24.3687H16.2497V19.8999C16.2497 19.7922 16.2069 19.6888 16.1308 19.6126C16.0546 19.5365 15.9512 19.4937 15.8435 19.4937H10.9685C10.8607 19.4937 10.7574 19.5365 10.6812 19.6126C10.605 19.6888 10.5622 19.7922 10.5622 19.8999V24.3687H6.49974V23.4631C6.95741 23.3296 7.36104 23.0546 7.65275 22.6775C7.94446 22.3005 8.10926 21.8407 8.12352 21.3642C8.13777 20.8876 8.00075 20.4188 7.7321 20.025C7.46345 19.6312 7.07698 19.3325 6.62812 19.1719C6.69635 18.9568 6.73128 18.7325 6.73171 18.5069C6.73136 18.1629 6.652 17.8236 6.49974 17.5152V2.43115H20.3122V24.3687ZM23.5622 24.3687H21.1247V18.6812H23.5622V24.3687ZM24.3747 17.8687H21.1247V17.0562H24.3747V17.8687Z" fill="#63AB45"/>
</svg>
