<svg width="26" height="27" viewBox="0 0 26 27" fill="none" xmlns="http://www.w3.org/2000/svg">
<path d="M13 14.1188C13.448 14.1188 13.8125 14.4833 13.8125 14.9313C13.8125 15.039 13.8553 15.1423 13.9315 15.2185C14.0077 15.2947 14.111 15.3375 14.2188 15.3375C14.3265 15.3375 14.4298 15.2947 14.506 15.2185C14.5822 15.1423 14.625 15.039 14.625 14.9313C14.625 14.1755 14.1063 13.5385 13.4062 13.3577V12.9C13.4062 12.7923 13.3634 12.6889 13.2873 12.6128C13.2111 12.5366 13.1077 12.4938 13 12.4938C12.8923 12.4938 12.7889 12.5366 12.7127 12.6128C12.6366 12.6889 12.5938 12.7923 12.5938 12.9V13.3577C11.8937 13.5386 11.375 14.1755 11.375 14.9313C11.375 15.8273 12.104 16.5563 13 16.5563C13.448 16.5563 13.8125 16.9208 13.8125 17.3688C13.8125 17.8168 13.448 18.1813 13 18.1813C12.552 18.1813 12.1875 17.8168 12.1875 17.3688C12.1875 17.261 12.1447 17.1577 12.0685 17.0815C11.9923 17.0053 11.889 16.9625 11.7812 16.9625C11.6735 16.9625 11.5702 17.0053 11.494 17.0815C11.4178 17.1577 11.375 17.261 11.375 17.3688C11.375 18.1246 11.8937 18.7615 12.5938 18.9423V19.4C12.5938 19.5078 12.6366 19.6111 12.7127 19.6873C12.7889 19.7635 12.8923 19.8063 13 19.8063C13.1077 19.8063 13.2111 19.7635 13.2873 19.6873C13.3634 19.6111 13.4062 19.5078 13.4062 19.4V18.9423C14.1063 18.7614 14.625 18.1246 14.625 17.3688C14.625 16.4727 13.896 15.7438 13 15.7438C12.552 15.7438 12.1875 15.3793 12.1875 14.9313C12.1875 14.4833 12.552 14.1188 13 14.1188Z" fill="white"/>
<path d="M13 10.8688C10.0879 10.8688 7.71875 13.2379 7.71875 16.15C7.71875 19.0621 10.0879 21.4313 13 21.4313C15.9121 21.4313 18.2812 19.0621 18.2812 16.15C18.2812 13.2379 15.9121 10.8688 13 10.8688ZM13 20.6188C10.5359 20.6188 8.53125 18.6141 8.53125 16.15C8.53125 13.686 10.5359 11.6813 13 11.6813C15.4641 11.6813 17.4688 13.686 17.4688 16.15C17.4688 18.6141 15.4641 20.6188 13 20.6188Z" fill="white"/>
<path d="M24.7337 9.24381L24.474 7.1662C24.3899 6.49335 23.7737 6.01697 23.0961 6.11035L22.508 6.19445L22.126 4.66659C22.0867 4.50914 22.0164 4.36112 21.9191 4.23123C21.8218 4.10134 21.6996 3.99219 21.5596 3.9102C21.4195 3.82821 21.2645 3.77503 21.1036 3.75378C20.9428 3.73252 20.7792 3.74363 20.6227 3.78645L1.15725 9.24538C0.513703 9.27753 0 9.81119 0 10.4626V21.8376C0 22.5095 0.546762 23.0563 1.21875 23.0563H24.7812C25.4532 23.0563 26 22.5095 26 21.8376V10.4626C26 9.83318 25.5127 9.24381 24.7337 9.24381ZM23.2091 6.91493C23.2623 6.90756 23.3166 6.91086 23.3686 6.92461C23.4206 6.93837 23.4693 6.96232 23.512 6.99508C23.5546 7.02783 23.5904 7.06874 23.6171 7.11542C23.6438 7.1621 23.661 7.21362 23.6677 7.267L23.9148 9.24386H6.92768L23.2091 6.91493ZM20.8381 4.5699C20.8902 4.55585 20.9446 4.55232 20.9981 4.55953C21.0516 4.56674 21.1031 4.58454 21.1496 4.61189C21.1961 4.63924 21.2368 4.6756 21.2691 4.71883C21.3014 4.76206 21.3248 4.8113 21.3378 4.86367L21.6994 6.31013L7.27619 8.37322L20.8381 4.5699ZM25.1875 21.8376C25.1875 22.0616 25.0052 22.2438 24.7812 22.2438H1.21875C0.994754 22.2438 0.8125 22.0616 0.8125 21.8376V10.4626C0.8125 10.2389 0.994297 10.0568 1.21789 10.0564C1.34657 10.0561 -0.808031 10.0563 24.7812 10.0563C25.0052 10.0563 25.1875 10.2386 25.1875 10.4626V21.8376Z" fill="white"/>
<path d="M23.9688 12.0875C23.5208 12.0875 23.1562 11.723 23.1562 11.275C23.1562 11.1673 23.1134 11.0639 23.0373 10.9878C22.9611 10.9116 22.8577 10.8688 22.75 10.8688H17.4688C17.361 10.8688 17.2577 10.9116 17.1815 10.9878C17.1053 11.0639 17.0625 11.1673 17.0625 11.275C17.0625 11.3828 17.1053 11.4861 17.1815 11.5623C17.2577 11.6385 17.361 11.6813 17.4688 11.6813H22.3952C22.5425 12.2515 22.9923 12.7013 23.5625 12.8486V19.4514C22.9923 19.5987 22.5425 20.0486 22.3952 20.6187H17.4688C17.361 20.6187 17.2577 20.6615 17.1815 20.7377C17.1053 20.8139 17.0625 20.9172 17.0625 21.025C17.0625 21.1327 17.1053 21.236 17.1815 21.3122C17.2577 21.3884 17.361 21.4312 17.4688 21.4312H22.75C22.8577 21.4312 22.9611 21.3884 23.0373 21.3122C23.1134 21.236 23.1562 21.1327 23.1562 21.025C23.1562 20.577 23.5208 20.2125 23.9688 20.2125C24.0765 20.2125 24.1798 20.1697 24.256 20.0935C24.3322 20.0173 24.375 19.914 24.375 19.8062V12.4937C24.375 12.386 24.3322 12.2827 24.256 12.2065C24.1798 12.1303 24.0765 12.0875 23.9688 12.0875ZM8.53125 20.6188H3.60481C3.45754 20.0486 3.00767 19.5987 2.4375 19.4515V12.8486C3.00772 12.7013 3.45754 12.2514 3.60481 11.6813H8.53125C8.63899 11.6813 8.74233 11.6385 8.81851 11.5623C8.8947 11.4861 8.9375 11.3828 8.9375 11.275C8.9375 11.1673 8.8947 11.0639 8.81851 10.9878C8.74233 10.9116 8.63899 10.8688 8.53125 10.8688H3.25C3.14226 10.8688 3.03892 10.9116 2.96274 10.9878C2.88655 11.0639 2.84375 11.1673 2.84375 11.275C2.84375 11.723 2.47924 12.0875 2.03125 12.0875C1.92351 12.0875 1.82017 12.1303 1.74399 12.2065C1.6678 12.2827 1.625 12.386 1.625 12.4938V19.8063C1.625 19.914 1.6678 20.0173 1.74399 20.0935C1.82017 20.1697 1.92351 20.2125 2.03125 20.2125C2.47924 20.2125 2.84375 20.577 2.84375 21.025C2.84375 21.1328 2.88655 21.2361 2.96274 21.3123C3.03892 21.3885 3.14226 21.4313 3.25 21.4313H8.53125C8.63899 21.4313 8.74233 21.3885 8.81851 21.3123C8.8947 21.2361 8.9375 21.1328 8.9375 21.025C8.9375 20.9173 8.8947 20.8139 8.81851 20.7378C8.74233 20.6616 8.63899 20.6188 8.53125 20.6188Z" fill="white"/>
<path d="M3.65625 16.15C3.65625 16.822 4.20301 17.3688 4.875 17.3688C5.54699 17.3688 6.09375 16.822 6.09375 16.15C6.09375 15.478 5.54699 14.9313 4.875 14.9313C4.20301 14.9313 3.65625 15.478 3.65625 16.15ZM5.28125 16.15C5.28125 16.374 5.099 16.5563 4.875 16.5563C4.651 16.5563 4.46875 16.374 4.46875 16.15C4.46875 15.926 4.651 15.7438 4.875 15.7438C5.099 15.7438 5.28125 15.926 5.28125 16.15ZM22.3438 16.15C22.3438 15.478 21.797 14.9313 21.125 14.9313C20.453 14.9313 19.9062 15.478 19.9062 16.15C19.9062 16.822 20.453 17.3688 21.125 17.3688C21.797 17.3688 22.3438 16.8221 22.3438 16.15ZM20.7188 16.15C20.7188 15.926 20.901 15.7438 21.125 15.7438C21.349 15.7438 21.5312 15.926 21.5312 16.15C21.5312 16.374 21.349 16.5563 21.125 16.5563C20.901 16.5563 20.7188 16.374 20.7188 16.15Z" fill="white"/>
</svg>
