<svg width="26" height="27" viewBox="0 0 26 27" fill="none" xmlns="http://www.w3.org/2000/svg">
<path d="M15.7879 17.6005H6.2268C5.8759 17.6005 5.59 17.8859 5.59 18.2373V19.7475C5.59 20.0984 5.87539 20.3843 6.2268 20.3843H15.7879C16.1388 20.3843 16.4247 20.0989 16.4247 19.7475V18.2373C16.4242 17.8864 16.1388 17.6005 15.7879 17.6005ZM11.312 18.2099H13.259V19.7744H11.312V18.2099ZM10.7027 19.775H8.7557V18.2104H10.7027V19.775ZM6.19938 19.7475V18.2373C6.19938 18.2231 6.21207 18.2099 6.2268 18.2099H8.14633V19.7744H6.2268C6.21258 19.775 6.19938 19.7618 6.19938 19.7475ZM15.8148 19.7475C15.8148 19.7618 15.8021 19.775 15.7874 19.775H13.8679V18.2104H15.7874C15.8016 18.2104 15.8148 18.2231 15.8148 18.2378V19.7475ZM20.1972 15.1539C20.1972 14.9858 20.3338 14.8492 20.5019 14.8492H20.9645C21.1326 14.8492 21.2692 14.9858 21.2692 15.1539C21.2692 15.3219 21.1326 15.4585 20.9645 15.4585H20.5019C20.3333 15.4585 20.1972 15.3219 20.1972 15.1539ZM22.5134 15.1539C22.5134 14.9858 22.65 14.8492 22.818 14.8492H23.2807C23.4488 14.8492 23.5854 14.9858 23.5854 15.1539C23.5854 15.3219 23.4488 15.4585 23.2807 15.4585H22.818C22.65 15.4585 22.5134 15.3219 22.5134 15.1539ZM22.5134 16.7078C22.5134 16.5397 22.65 16.4031 22.818 16.4031H23.2807C23.4488 16.4031 23.5854 16.5397 23.5854 16.7078C23.5854 16.8759 23.4488 17.0125 23.2807 17.0125H22.818C22.65 17.0125 22.5134 16.8764 22.5134 16.7078ZM22.5134 18.2622C22.5134 18.0941 22.65 17.9575 22.818 17.9575H23.2807C23.4488 17.9575 23.5854 18.0941 23.5854 18.2622C23.5854 18.4303 23.4488 18.5669 23.2807 18.5669H22.818C22.65 18.5669 22.5134 18.4308 22.5134 18.2622ZM22.5134 19.8166C22.5134 19.6485 22.65 19.5119 22.818 19.5119H23.2807C23.4488 19.5119 23.5854 19.6485 23.5854 19.8166C23.5854 19.9847 23.4488 20.1213 23.2807 20.1213H22.818C22.65 20.1213 22.5134 19.9847 22.5134 19.8166ZM22.5134 21.371C22.5134 21.2029 22.65 21.0663 22.818 21.0663H23.2807C23.4488 21.0663 23.5854 21.2029 23.5854 21.371C23.5854 21.5391 23.4488 21.6757 23.2807 21.6757H22.818C22.65 21.6757 22.5134 21.5391 22.5134 21.371ZM3.20582 11.1553V11.687C3.20582 11.8551 3.06922 11.9917 2.90113 11.9917C2.73305 11.9917 2.59645 11.8551 2.59645 11.687V11.1553C2.59645 10.9873 2.73305 10.8507 2.90113 10.8507C3.06922 10.8507 3.20582 10.9868 3.20582 11.1553ZM3.20582 13.5482V14.0798C3.20582 14.2479 3.06922 14.3845 2.90113 14.3845C2.73305 14.3845 2.59645 14.2479 2.59645 14.0798V13.5482C2.59645 13.3801 2.73305 13.2435 2.90113 13.2435C3.06922 13.2435 3.20582 13.3801 3.20582 13.5482ZM3.20582 15.941V16.4727C3.20582 16.6407 3.06922 16.7773 2.90113 16.7773C2.73305 16.7773 2.59645 16.6407 2.59645 16.4727V15.941C2.59645 15.7729 2.73305 15.6363 2.90113 15.6363C3.06922 15.6363 3.20582 15.7729 3.20582 15.941ZM3.20582 18.3343V18.866C3.20582 19.0341 3.06922 19.1707 2.90113 19.1707C2.73305 19.1707 2.59645 19.0341 2.59645 18.866V18.3343C2.59645 18.1662 2.73305 18.0296 2.90113 18.0296C3.06922 18.0296 3.20582 18.1662 3.20582 18.3343ZM3.20582 20.7271V21.2588C3.20582 21.4269 3.06922 21.5635 2.90113 21.5635C2.73305 21.5635 2.59645 21.4269 2.59645 21.2588V20.7271C2.59645 20.559 2.73305 20.4224 2.90113 20.4224C3.06922 20.4224 3.20582 20.559 3.20582 20.7271ZM4.98367 11.687V11.1553C4.98367 10.9873 5.12027 10.8507 5.28836 10.8507C5.45645 10.8507 5.59305 10.9873 5.59305 11.1553V11.687C5.59305 11.8551 5.45645 11.9917 5.28836 11.9917C5.12027 11.9917 4.98367 11.8551 4.98367 11.687ZM4.98367 14.0798V13.5482C4.98367 13.3801 5.12027 13.2435 5.28836 13.2435C5.45645 13.2435 5.59305 13.3801 5.59305 13.5482V14.0798C5.59305 14.2479 5.45645 14.3845 5.28836 14.3845C5.12027 14.3845 4.98367 14.2484 4.98367 14.0798ZM5.26348 5.75831C5.26348 5.59023 5.40008 5.45363 5.56816 5.45363H7.52832C7.69641 5.45363 7.83301 5.59023 7.83301 5.75831C7.83301 5.9264 7.69641 6.063 7.52832 6.063H5.56816C5.40008 6.063 5.26348 5.9264 5.26348 5.75831ZM11.1566 8.27046H5.56816C5.40008 8.27046 5.26348 8.13386 5.26348 7.96578C5.26348 7.79769 5.40008 7.66109 5.56816 7.66109H11.1566C11.3247 7.66109 11.4613 7.79769 11.4613 7.96578C11.4613 8.13386 11.3247 8.27046 11.1566 8.27046ZM11.4613 10.1737C11.4613 10.3418 11.3247 10.4784 11.1566 10.4784H8.52059C8.3525 10.4784 8.2159 10.3418 8.2159 10.1737C8.2159 10.0057 8.3525 9.86906 8.52059 9.86906H11.1566C11.3247 9.86906 11.4613 10.0057 11.4613 10.1737ZM11.4613 12.3812C11.4613 12.5493 11.3247 12.6859 11.1566 12.6859H8.52059C8.3525 12.6859 8.2159 12.5493 8.2159 12.3812C8.2159 12.2131 8.3525 12.0765 8.52059 12.0765H11.1566C11.3247 12.0765 11.4613 12.2131 11.4613 12.3812ZM11.4613 14.5892C11.4613 14.7573 11.3247 14.8939 11.1566 14.8939H8.52059C8.3525 14.8939 8.2159 14.7573 8.2159 14.5892C8.2159 14.4211 8.3525 14.2845 8.52059 14.2845H11.1566C11.3247 14.2845 11.4613 14.4211 11.4613 14.5892ZM24.9336 8.15468H22.3788C22.2107 8.15468 22.0741 8.29128 22.0741 8.45937V13.4552H18.849C18.6809 13.4552 18.5443 13.5918 18.5443 13.7599V16.2116H12.8588V5.21292C12.8588 5.09257 12.7882 4.9839 12.6786 4.93464L11.7625 4.52534V2.07058C11.7625 1.90249 11.6259 1.76589 11.4578 1.76589H9.75609C9.58801 1.76589 9.45141 1.90249 9.45141 2.07058V3.49245L4.29508 1.188C4.24871 1.1673 4.1979 1.1585 4.14726 1.1624C4.09663 1.1663 4.04777 1.18278 4.00512 1.21034C3.91828 1.26671 3.86598 1.36269 3.86598 1.46577V9.29624H1.06641C0.89832 9.29624 0.761719 9.43285 0.761719 9.60093V22.8127C0.761719 22.9808 0.89832 23.1174 1.06641 23.1174H3.80301C3.82789 23.8451 4.42762 24.4296 5.1609 24.4296H5.95766C6.09883 25.1182 6.70973 25.6382 7.43996 25.6382C8.1702 25.6382 8.78109 25.1187 8.92227 24.4296H17.0767C17.2179 25.1182 17.8288 25.6382 18.559 25.6382C19.2893 25.6382 19.9002 25.1187 20.0413 24.4296H21.3733C21.6343 24.4296 21.8669 24.3163 22.0279 24.1112C22.2082 23.8811 22.2005 23.6216 22.1955 23.4668C22.1914 23.3342 22.1853 23.2017 22.1782 23.0696H24.9336C25.1017 23.0696 25.2383 22.933 25.2383 22.765V8.45937C25.2383 8.29078 25.1017 8.15468 24.9336 8.15468ZM22.6835 8.76406H24.6289V13.4552H22.6835V8.76406ZM10.0603 2.37527H11.1526V4.25316L10.0603 3.76464V2.37527ZM4.47535 1.93601L12.2495 5.41046V16.2116H7.42777V9.60144C7.42777 9.43335 7.29117 9.29675 7.12309 9.29675H4.47535V1.93601ZM3.80199 17.571V22.5085H1.37109V9.90613H6.8184V16.2116H5.59305V15.941C5.59305 15.7729 5.45645 15.6363 5.28836 15.6363C5.12027 15.6363 4.98367 15.7729 4.98367 15.941V16.2233C4.31793 16.3112 3.80199 16.8819 3.80199 17.571ZM7.44047 25.0288C6.94231 25.0288 6.53656 24.6235 6.53656 24.1249C6.53656 23.6267 6.9418 23.221 7.44047 23.221C7.93914 23.221 8.34438 23.6262 8.34438 24.1249C8.34438 24.6235 7.93863 25.0288 7.44047 25.0288ZM18.5595 25.0288C18.0614 25.0288 17.6556 24.6235 17.6556 24.1249C17.6556 23.6267 18.0609 23.221 18.5595 23.221C19.0582 23.221 19.4634 23.6262 19.4634 24.1249C19.4634 24.6235 19.0577 25.0288 18.5595 25.0288ZM21.549 23.7349C21.5033 23.7933 21.4475 23.8202 21.3738 23.8202H20.0418C19.9007 23.1316 19.2898 22.6116 18.5595 22.6116C17.8293 22.6116 17.2184 23.1311 17.0772 23.8202H8.92277C8.7816 23.1316 8.1707 22.6116 7.44047 22.6116C6.71023 22.6116 6.09934 23.1311 5.95816 23.8202H5.16141C4.74805 23.8202 4.41137 23.484 4.41137 23.0701V17.5705C4.41137 17.1572 4.74754 16.8205 5.16141 16.8205H19.3507C19.4406 16.8205 19.6803 16.8205 19.9347 17.1673H17.9039C17.6505 17.1673 17.4347 17.2755 17.3129 17.4649C17.1813 17.668 17.1747 17.9367 17.2941 18.2023L18.5346 20.9541C18.7327 21.3939 19.24 21.7382 19.6894 21.7382H21.4322C21.5165 22.312 21.5693 22.8944 21.5871 23.485C21.5917 23.6333 21.583 23.6917 21.549 23.7349ZM20.2582 17.7772C20.7509 18.8467 21.1111 19.9724 21.3307 21.1293H19.6894C19.4761 21.1293 19.1902 20.9267 19.0902 20.7043L17.8496 17.9524C17.8075 17.8585 17.8176 17.8072 17.8247 17.7965C17.8288 17.7904 17.8532 17.7777 17.9039 17.7777H20.2582V17.7772ZM24.6289 22.4603H22.1325C22.0025 21.075 21.6907 19.7343 21.2017 18.4531C21.2452 18.3992 21.2689 18.332 21.2687 18.2627C21.2687 18.1083 21.1539 17.9809 21.0046 17.961C20.895 17.7016 20.7782 17.4441 20.6537 17.1897C20.6243 17.1296 20.5926 17.0707 20.5588 17.013H20.964C21.1321 17.013 21.2687 16.8764 21.2687 16.7083C21.2687 16.5402 21.1321 16.4036 20.964 16.4036H20.5014C20.3795 16.4036 20.2744 16.4757 20.2257 16.5793C19.9225 16.2878 19.6016 16.2121 19.3502 16.2121H19.1537V14.0651H24.6289V22.4603ZM17.4718 5.66081C17.4718 4.97425 16.9132 4.41566 16.2266 4.41566C15.5401 4.41566 14.9815 4.97425 14.9815 5.66081C14.9815 6.34738 15.5401 6.90597 16.2266 6.90597C16.9132 6.90597 17.4718 6.34738 17.4718 5.66081ZM15.5909 5.66081C15.5909 5.31042 15.8763 5.02503 16.2266 5.02503C16.577 5.02503 16.8624 5.31042 16.8624 5.66081C16.8624 6.0112 16.577 6.29659 16.2266 6.29659C15.8763 6.29659 15.5909 6.01171 15.5909 5.66081ZM15.9682 10.0244C15.9955 10.0684 16.0335 10.1047 16.0787 10.1299C16.124 10.1551 16.1749 10.1683 16.2266 10.1683C16.2784 10.1683 16.3293 10.1551 16.3745 10.1299C16.4198 10.1047 16.4578 10.0684 16.4851 10.0244C16.6039 9.83351 16.7705 9.59128 16.9635 9.31046C17.713 8.22019 18.7393 6.72671 18.7393 5.71718C18.7393 4.30089 17.612 3.14816 16.2261 3.14816C14.8403 3.14816 13.713 4.30038 13.713 5.71718C13.713 6.72671 14.7393 8.21968 15.4888 9.31046C15.6828 9.59077 15.8493 9.83351 15.9682 10.0244ZM16.2266 3.75753C17.2763 3.75753 18.1304 4.63656 18.1304 5.71718C18.1304 6.5373 17.1265 7.99827 16.4618 8.96515C16.378 9.08702 16.2993 9.20128 16.2266 9.30843C16.154 9.20128 16.0753 9.08652 15.9915 8.96515C15.3273 7.99827 14.3229 6.5373 14.3229 5.71718C14.3234 4.63656 15.177 3.75753 16.2266 3.75753ZM16.5313 11.6474C16.5313 11.8155 16.3947 11.9521 16.2266 11.9521C16.0586 11.9521 15.922 11.8155 15.922 11.6474V11.262C15.922 11.0939 16.0586 10.9573 16.2266 10.9573C16.3947 10.9573 16.5313 11.0939 16.5313 11.262V11.6474ZM16.5313 13.3826C16.5313 13.5507 16.3947 13.6873 16.2266 13.6873C16.0586 13.6873 15.922 13.5507 15.922 13.3826V12.9972C15.922 12.8291 16.0586 12.6925 16.2266 12.6925C16.3947 12.6925 16.5313 12.8291 16.5313 12.9972V13.3826ZM16.5313 14.7319V15.1173C16.5313 15.2854 16.3947 15.422 16.2266 15.422C16.0586 15.422 15.922 15.2854 15.922 15.1173V14.7319C15.922 14.5638 16.0586 14.4272 16.2266 14.4272C16.3947 14.4272 16.5313 14.5638 16.5313 14.7319Z" fill="#63AB45"/>
</svg>
