<svg width="26" height="27" viewBox="0 0 26 27" fill="none" xmlns="http://www.w3.org/2000/svg">
<path d="M22.209 9.87907H16.2507V6.35824C16.2498 5.64021 15.9642 4.95183 15.4564 4.4441C14.9487 3.93638 14.2603 3.65076 13.5423 3.6499H3.79232C3.07429 3.65076 2.38591 3.93638 1.87819 4.4441C1.37046 4.95183 1.08484 5.64021 1.08398 6.35824V12.8582C1.08484 13.5763 1.37046 14.2646 1.87819 14.7724C2.38591 15.2801 3.07429 15.5657 3.79232 15.5666V16.6987C3.79191 16.9124 3.8551 17.1213 3.97384 17.299C4.09258 17.4767 4.26151 17.615 4.45911 17.6964C4.65758 17.7791 4.87616 17.8008 5.08702 17.7588C5.29788 17.7169 5.49148 17.6131 5.64319 17.4608C5.66297 17.4418 5.68109 17.4211 5.69736 17.399L7.04503 15.5666H9.75065V19.0874C9.75151 19.8054 10.0371 20.4938 10.5449 21.0015C11.0526 21.5093 11.741 21.7949 12.459 21.7957H18.4639L20.3597 23.6916C20.5112 23.843 20.7043 23.9462 20.9144 23.988C21.1245 24.0297 21.3423 24.0083 21.5402 23.9263C21.7381 23.8443 21.9073 23.7055 22.0263 23.5274C22.1454 23.3493 22.2089 23.1399 22.209 22.9257V21.7957C22.927 21.7949 23.6154 21.5093 24.1231 21.0015C24.6308 20.4938 24.9165 19.8054 24.9173 19.0874V12.5874C24.9165 11.8694 24.6308 11.181 24.1231 10.6733C23.6154 10.1655 22.927 9.87993 22.209 9.87907ZM6.77148 14.4832C6.68707 14.4837 6.60393 14.5038 6.52869 14.5421C6.45346 14.5804 6.38821 14.6357 6.33815 14.7037L4.87565 16.6862V15.0249C4.87565 14.8812 4.81858 14.7435 4.717 14.6419C4.61542 14.5403 4.47764 14.4832 4.33398 14.4832H3.79232C3.36134 14.4832 2.94802 14.312 2.64327 14.0073C2.33852 13.7025 2.16732 13.2892 2.16732 12.8582V6.35824C2.16732 5.92726 2.33852 5.51393 2.64327 5.20919C2.94802 4.90444 3.36134 4.73324 3.79232 4.73324H13.5423C13.9733 4.73324 14.3866 4.90444 14.6914 5.20919C14.9961 5.51393 15.1673 5.92726 15.1673 6.35824V9.87907H12.459C11.8827 9.88078 11.3223 10.0678 10.8605 10.4126L9.16023 6.67511C9.11715 6.58054 9.04777 6.50036 8.96037 6.44414C8.87297 6.38792 8.77124 6.35802 8.66732 6.35802C8.5634 6.35802 8.46167 6.38792 8.37427 6.44414C8.28687 6.50036 8.21749 6.58054 8.1744 6.67511L5.46607 12.6334C5.43671 12.6983 5.42042 12.7683 5.41814 12.8395C5.41587 12.9107 5.42764 12.9816 5.4528 13.0482C5.47795 13.1148 5.51599 13.1758 5.56474 13.2277C5.61349 13.2796 5.67199 13.3213 5.7369 13.3506C5.80651 13.3829 5.88227 13.3997 5.95898 13.3999C6.06294 13.3999 6.1647 13.3699 6.2521 13.3136C6.3395 13.2574 6.40886 13.1771 6.4519 13.0825L7.29257 11.2332H10.0432L10.0816 11.3172C9.86752 11.7065 9.75378 12.1431 9.75065 12.5874V14.4832H6.77148ZM9.55078 10.1499H7.78494L8.66732 8.20857L9.55078 10.1499ZM23.834 19.0874C23.834 19.5184 23.6628 19.9317 23.358 20.2365C23.0533 20.5412 22.64 20.7124 22.209 20.7124H21.6673C21.5237 20.7124 21.3859 20.7695 21.2843 20.8711C21.1827 20.9726 21.1257 21.1104 21.1257 21.2541V22.9257L19.0711 20.8711C18.9696 20.7695 18.8318 20.7124 18.6882 20.7124H12.459C12.028 20.7124 11.6147 20.5412 11.3099 20.2365C11.0052 19.9317 10.834 19.5184 10.834 19.0874V12.5874C10.834 12.1564 11.0052 11.7431 11.3099 11.4384C11.6147 11.1336 12.028 10.9624 12.459 10.9624H22.209C22.64 10.9624 23.0533 11.1336 23.358 11.4384C23.6628 11.7431 23.834 12.1564 23.834 12.5874V19.0874Z" fill="#63AB45"/>
<path d="M20.0423 13.9415H17.8757V12.8582C17.8757 12.7145 17.8186 12.5768 17.717 12.4752C17.6154 12.3736 17.4776 12.3165 17.334 12.3165C17.1903 12.3165 17.0526 12.3736 16.951 12.4752C16.8494 12.5768 16.7923 12.7145 16.7923 12.8582V13.9415H14.6257C14.482 13.9415 14.3442 13.9986 14.2426 14.1002C14.1411 14.2018 14.084 14.3395 14.084 14.4832C14.084 14.6269 14.1411 14.7646 14.2426 14.8662C14.3442 14.9678 14.482 15.0249 14.6257 15.0249H18.6448C18.5122 15.9451 18.0442 16.7839 17.3307 17.38C16.914 17.032 16.5772 16.5982 16.3433 16.1082C16.3138 16.0423 16.2715 15.9829 16.2188 15.9336C16.1661 15.8842 16.104 15.8459 16.0363 15.8209C15.9685 15.7959 15.8965 15.7847 15.8244 15.788C15.7522 15.7912 15.6815 15.8089 15.6163 15.8398C15.551 15.8708 15.4927 15.9145 15.4446 15.9684C15.3965 16.0223 15.3597 16.0852 15.3363 16.1535C15.3129 16.2218 15.3034 16.2941 15.3083 16.3661C15.3132 16.4382 15.3325 16.5085 15.365 16.5729C15.6167 17.0948 15.9608 17.5668 16.3807 17.9661C15.8993 18.1711 15.3812 18.2762 14.858 18.2749C14.7879 18.2752 14.7185 18.2896 14.654 18.3171C14.5895 18.3447 14.5311 18.3849 14.4824 18.4354C14.4337 18.4859 14.3956 18.5456 14.3703 18.6111C14.345 18.6766 14.3331 18.7464 14.3353 18.8165C14.3397 18.9622 14.4008 19.1004 14.5057 19.2016C14.6105 19.3028 14.7508 19.359 14.8965 19.3582C15.7573 19.3579 16.6025 19.1279 17.3448 18.6919C18.094 19.1261 18.9441 19.3558 19.8099 19.3582C19.8801 19.3579 19.9495 19.3435 20.014 19.3159C20.0785 19.2883 20.1369 19.2481 20.1856 19.1976C20.2343 19.1471 20.2724 19.0874 20.2977 19.022C20.3229 18.9565 20.3348 18.8867 20.3327 18.8165C20.3283 18.6709 20.2671 18.5327 20.1623 18.4315C20.0574 18.3303 19.9172 18.2741 19.7715 18.2749C19.2647 18.2729 18.7636 18.1686 18.2982 17.9683C19.105 17.1837 19.6145 16.1433 19.7395 15.0249H20.0423C20.186 15.0249 20.3238 14.9678 20.4253 14.8662C20.5269 14.7646 20.584 14.6269 20.584 14.4832C20.584 14.3395 20.5269 14.2018 20.4253 14.1002C20.3238 13.9986 20.186 13.9415 20.0423 13.9415Z" fill="#63AB45"/>
</svg>
