<svg width="26" height="27" viewBox="0 0 26 27" fill="none" xmlns="http://www.w3.org/2000/svg">
<g clip-path="url(#clip0_285_59633)">
<path d="M6.5 7.30615H4.875C4.76726 7.30615 4.66392 7.34895 4.58774 7.42514C4.51155 7.50133 4.46875 7.60466 4.46875 7.7124V10.1499C4.46875 10.2576 4.51155 10.361 4.58774 10.4372C4.66392 10.5134 4.76726 10.5562 4.875 10.5562H6.5C6.60774 10.5562 6.71108 10.5134 6.78726 10.4372C6.86345 10.361 6.90625 10.2576 6.90625 10.1499V7.7124C6.90625 7.60466 6.86345 7.50133 6.78726 7.42514C6.71108 7.34895 6.60774 7.30615 6.5 7.30615ZM6.09375 9.74365H5.28125V8.11865H6.09375V9.74365ZM6.5 11.7749H4.875C4.76726 11.7749 4.66392 11.8177 4.58774 11.8939C4.51155 11.9701 4.46875 12.0734 4.46875 12.1812V14.6187C4.46875 14.7264 4.51155 14.8297 4.58774 14.9059C4.66392 14.9821 4.76726 15.0249 4.875 15.0249H6.5C6.60774 15.0249 6.71108 14.9821 6.78726 14.9059C6.86345 14.8297 6.90625 14.7264 6.90625 14.6187V12.1812C6.90625 12.0734 6.86345 11.9701 6.78726 11.8939C6.71108 11.8177 6.60774 11.7749 6.5 11.7749ZM6.09375 14.2124H5.28125V12.5874H6.09375V14.2124ZM6.5 16.2437H4.875C4.76726 16.2437 4.66392 16.2865 4.58774 16.3626C4.51155 16.4388 4.46875 16.5422 4.46875 16.6499V19.0874C4.46875 19.1951 4.51155 19.2985 4.58774 19.3747C4.66392 19.4509 4.76726 19.4937 4.875 19.4937H6.5C6.60774 19.4937 6.71108 19.4509 6.78726 19.3747C6.86345 19.2985 6.90625 19.1951 6.90625 19.0874V16.6499C6.90625 16.5422 6.86345 16.4388 6.78726 16.3626C6.71108 16.2865 6.60774 16.2437 6.5 16.2437ZM6.09375 18.6812H5.28125V17.0562H6.09375V18.6812ZM6.5 20.7124H4.875C4.76726 20.7124 4.66392 20.7552 4.58774 20.8314C4.51155 20.9076 4.46875 21.0109 4.46875 21.1187V23.5562C4.46875 23.6639 4.51155 23.7672 4.58774 23.8434C4.66392 23.9196 4.76726 23.9624 4.875 23.9624H6.5C6.60774 23.9624 6.71108 23.9196 6.78726 23.8434C6.86345 23.7672 6.90625 23.6639 6.90625 23.5562V21.1187C6.90625 21.0109 6.86345 20.9076 6.78726 20.8314C6.71108 20.7552 6.60774 20.7124 6.5 20.7124ZM6.09375 23.1499H5.28125V21.5249H6.09375V23.1499Z" fill="#63AB45"/>
<path d="M25.5938 25.5874H23.9688V22.0876C23.9688 21.7252 24.141 21.401 24.4412 21.1975C24.586 21.0977 24.7534 21.0356 24.9283 21.0168C25.1031 20.998 25.2799 21.0231 25.4426 21.0898C25.5427 21.1298 25.6545 21.1285 25.7536 21.086C25.8526 21.0436 25.9307 20.9636 25.9708 20.8635C26.0108 20.7635 26.0094 20.6516 25.967 20.5526C25.9246 20.4536 25.8445 20.3754 25.7445 20.3354C25.4841 20.2316 25.2038 20.1872 24.9241 20.2055C24.6444 20.2238 24.3723 20.3042 24.1276 20.441L24.1341 20.3963C24.1788 20.0835 24.3482 19.8134 24.611 19.6367C24.8739 19.4599 25.1879 19.4051 25.495 19.4815C25.5469 19.4949 25.601 19.4979 25.654 19.4903C25.7071 19.4827 25.7581 19.4647 25.8042 19.4373C25.8502 19.4099 25.8904 19.3737 25.9224 19.3307C25.9544 19.2877 25.9776 19.2388 25.9906 19.1868C26.0037 19.1348 26.0063 19.0808 25.9983 19.0278C25.9904 18.9748 25.972 18.9239 25.9443 18.878C25.9166 18.8321 25.88 18.7922 25.8368 18.7605C25.7936 18.7288 25.7445 18.706 25.6925 18.6933C25.4321 18.6283 25.1609 18.6187 24.8965 18.665C24.6322 18.7113 24.3804 18.8126 24.1577 18.9623C23.9106 19.1313 23.7067 19.356 23.5625 19.6184C23.4183 19.356 23.2144 19.1313 22.9673 18.9623C22.7445 18.8127 22.4928 18.7114 22.2284 18.6651C21.9641 18.6188 21.6929 18.6284 21.4325 18.6933C21.3287 18.7201 21.2397 18.7869 21.1849 18.8791C21.1301 18.9713 21.1139 19.0814 21.14 19.1854C21.1661 19.2894 21.2322 19.3789 21.324 19.4344C21.4158 19.4899 21.5258 19.5068 21.63 19.4815C21.7799 19.4433 21.9362 19.4374 22.0886 19.4641C22.241 19.4909 22.386 19.5497 22.514 19.6367C22.6428 19.7223 22.752 19.8344 22.8342 19.9654C22.9164 20.0964 22.9698 20.2435 22.9909 20.3967L22.9974 20.4406C22.7527 20.304 22.4806 20.2236 22.2009 20.2053C21.9212 20.187 21.6409 20.2313 21.3805 20.335C21.2804 20.375 21.2003 20.4532 21.1579 20.5523C21.1154 20.6513 21.114 20.7632 21.154 20.8633C21.1941 20.9634 21.2722 21.0435 21.3713 21.086C21.4704 21.1285 21.5823 21.1298 21.6824 21.0898C21.8451 21.0232 22.0219 20.9982 22.1967 21.017C22.3715 21.0358 22.5389 21.0978 22.6838 21.1975C22.8302 21.295 22.95 21.4274 23.0325 21.5828C23.115 21.7382 23.1575 21.9116 23.1562 22.0876V25.5874H20.3125V8.93115C20.3125 8.82341 20.2697 8.72008 20.1935 8.64389C20.1173 8.5677 20.014 8.5249 19.9062 8.5249H16.6562V5.68115C16.6562 5.57341 16.6134 5.47008 16.5373 5.39389C16.4611 5.3177 16.3577 5.2749 16.25 5.2749H15.4375V3.24365C15.4375 3.13591 15.3947 3.03258 15.3185 2.95639C15.2423 2.8802 15.139 2.8374 15.0312 2.8374H6.90625V1.61865C6.90625 1.51091 6.86345 1.40758 6.78726 1.33139C6.71108 1.2552 6.60774 1.2124 6.5 1.2124C6.39226 1.2124 6.28892 1.2552 6.21274 1.33139C6.13655 1.40758 6.09375 1.51091 6.09375 1.61865V2.8374H5.28125V0.806152C5.28125 0.698408 5.23845 0.595077 5.16226 0.51889C5.08608 0.442704 4.98274 0.399902 4.875 0.399902C4.76726 0.399902 4.66392 0.442704 4.58774 0.51889C4.51155 0.595077 4.46875 0.698408 4.46875 0.806152V2.8374H3.65625C3.54851 2.8374 3.44517 2.8802 3.36899 2.95639C3.2928 3.03258 3.25 3.13591 3.25 3.24365V5.2749H2.4375C2.32976 5.2749 2.22642 5.3177 2.15024 5.39389C2.07405 5.47008 2.03125 5.57341 2.03125 5.68115V25.5874H0.40625C0.298506 25.5874 0.195175 25.6302 0.118988 25.7064C0.0428012 25.7826 0 25.8859 0 25.9937C0 26.1014 0.0428012 26.2047 0.118988 26.2809C0.195175 26.3571 0.298506 26.3999 0.40625 26.3999H25.5938C25.7015 26.3999 25.8048 26.3571 25.881 26.2809C25.9572 26.2047 26 26.1014 26 25.9937C26 25.8859 25.9572 25.7826 25.881 25.7064C25.8048 25.6302 25.7015 25.5874 25.5938 25.5874ZM4.0625 3.6499H14.625V5.2749H4.0625V3.6499ZM2.84375 6.0874H15.8438V8.5249H8.53125C8.42351 8.5249 8.32017 8.5677 8.24399 8.64389C8.1678 8.72008 8.125 8.82341 8.125 8.93115V25.5874H2.84375V6.0874ZM11.815 22.3374C12.0092 21.1861 13.0134 20.3062 14.2188 20.3062C15.4241 20.3062 16.4283 21.1861 16.6225 22.3374H11.815ZM12.5938 23.1499H13.8125V25.5874H12.5938V23.1499ZM14.625 25.5874V23.1499H15.8438V25.5874H14.625ZM16.6562 25.5874V23.1499H17.0625C17.1702 23.1499 17.2736 23.1071 17.3498 23.0309C17.4259 22.9547 17.4688 22.8514 17.4688 22.7437C17.4688 20.9517 16.0107 19.4937 14.2188 19.4937C12.4268 19.4937 10.9688 20.9517 10.9688 22.7437C10.9688 22.8514 11.0116 22.9547 11.0877 23.0309C11.1639 23.1071 11.2673 23.1499 11.375 23.1499H11.7812V25.5874H8.9375V9.3374H19.5V25.5874H16.6562Z" fill="#63AB45"/>
<path d="M11.7812 10.9624H10.1562C10.0485 10.9624 9.94517 11.0052 9.86899 11.0814C9.7928 11.1576 9.75 11.2609 9.75 11.3687V13.8062C9.75 13.9139 9.7928 14.0172 9.86899 14.0934C9.94517 14.1696 10.0485 14.2124 10.1562 14.2124H11.7812C11.889 14.2124 11.9923 14.1696 12.0685 14.0934C12.1447 14.0172 12.1875 13.9139 12.1875 13.8062V11.3687C12.1875 11.2609 12.1447 11.1576 12.0685 11.0814C11.9923 11.0052 11.889 10.9624 11.7812 10.9624ZM11.375 13.3999H10.5625V11.7749H11.375V13.3999ZM15.0312 10.9624H13.4062C13.2985 10.9624 13.1952 11.0052 13.119 11.0814C13.0428 11.1576 13 11.2609 13 11.3687V13.8062C13 13.9139 13.0428 14.0172 13.119 14.0934C13.1952 14.1696 13.2985 14.2124 13.4062 14.2124H15.0312C15.139 14.2124 15.2423 14.1696 15.3185 14.0934C15.3947 14.0172 15.4375 13.9139 15.4375 13.8062V11.3687C15.4375 11.2609 15.3947 11.1576 15.3185 11.0814C15.2423 11.0052 15.139 10.9624 15.0312 10.9624ZM14.625 13.3999H13.8125V11.7749H14.625V13.3999ZM18.2812 10.9624H16.6562C16.5485 10.9624 16.4452 11.0052 16.369 11.0814C16.2928 11.1576 16.25 11.2609 16.25 11.3687V13.8062C16.25 13.9139 16.2928 14.0172 16.369 14.0934C16.4452 14.1696 16.5485 14.2124 16.6562 14.2124H18.2812C18.389 14.2124 18.4923 14.1696 18.5685 14.0934C18.6447 14.0172 18.6875 13.9139 18.6875 13.8062V11.3687C18.6875 11.2609 18.6447 11.1576 18.5685 11.0814C18.4923 11.0052 18.389 10.9624 18.2812 10.9624ZM17.875 13.3999H17.0625V11.7749H17.875V13.3999ZM11.7812 15.0249H10.1562C10.0485 15.0249 9.94517 15.0677 9.86899 15.1439C9.7928 15.2201 9.75 15.3234 9.75 15.4312V17.8687C9.75 17.9764 9.7928 18.0797 9.86899 18.1559C9.94517 18.2321 10.0485 18.2749 10.1562 18.2749H11.7812C11.889 18.2749 11.9923 18.2321 12.0685 18.1559C12.1447 18.0797 12.1875 17.9764 12.1875 17.8687V15.4312C12.1875 15.3234 12.1447 15.2201 12.0685 15.1439C11.9923 15.0677 11.889 15.0249 11.7812 15.0249ZM11.375 17.4624H10.5625V15.8374H11.375V17.4624ZM15.0312 15.0249H13.4062C13.2985 15.0249 13.1952 15.0677 13.119 15.1439C13.0428 15.2201 13 15.3234 13 15.4312V17.8687C13 17.9764 13.0428 18.0797 13.119 18.1559C13.1952 18.2321 13.2985 18.2749 13.4062 18.2749H15.0312C15.139 18.2749 15.2423 18.2321 15.3185 18.1559C15.3947 18.0797 15.4375 17.9764 15.4375 17.8687V15.4312C15.4375 15.3234 15.3947 15.2201 15.3185 15.1439C15.2423 15.0677 15.139 15.0249 15.0312 15.0249ZM14.625 17.4624H13.8125V15.8374H14.625V17.4624ZM18.2812 15.0249H16.6562C16.5485 15.0249 16.4452 15.0677 16.369 15.1439C16.2928 15.2201 16.25 15.3234 16.25 15.4312V17.8687C16.25 17.9764 16.2928 18.0797 16.369 18.1559C16.4452 18.2321 16.5485 18.2749 16.6562 18.2749H18.2812C18.389 18.2749 18.4923 18.2321 18.5685 18.1559C18.6447 18.0797 18.6875 17.9764 18.6875 17.8687V15.4312C18.6875 15.3234 18.6447 15.2201 18.5685 15.1439C18.4923 15.0677 18.389 15.0249 18.2812 15.0249ZM17.875 17.4624H17.0625V15.8374H17.875V17.4624Z" fill="#63AB45"/>
</g>
<defs>
<clipPath id="clip0_285_59633">
<rect width="26" height="26" fill="white" transform="translate(0 0.399902)"/>
</clipPath>
</defs>
</svg>
