<svg width="26" height="27" viewBox="0 0 26 27" fill="none" xmlns="http://www.w3.org/2000/svg">
<path fill-rule="evenodd" clip-rule="evenodd" d="M17.8253 22.6271C17.8253 22.6824 17.8151 22.7372 17.7953 22.7883C17.7756 22.8394 17.7465 22.8859 17.71 22.925C17.6734 22.9641 17.6299 22.9951 17.5821 23.0163C17.5343 23.0375 17.4831 23.0483 17.4313 23.0483H8.28374C8.232 23.0483 8.18076 23.0375 8.13296 23.0163C8.08515 22.9951 8.04171 22.9641 8.00513 22.925C7.96854 22.8859 7.93953 22.8394 7.91974 22.7883C7.89995 22.7372 7.88979 22.6824 7.88982 22.6271C7.88981 22.5718 7.89999 22.517 7.91979 22.4659C7.93958 22.4148 7.9686 22.3684 8.00518 22.3293C8.04176 22.2901 8.08519 22.2591 8.13298 22.2379C8.18078 22.2168 8.23201 22.2059 8.28374 22.2059H17.4314C17.4831 22.2059 17.5344 22.2168 17.5821 22.238C17.6299 22.2591 17.6734 22.2902 17.7099 22.3293C17.7465 22.3684 17.7755 22.4148 17.7953 22.4659C17.8151 22.517 17.8253 22.5718 17.8253 22.6271ZM15.5384 24.9784C15.5384 25.0901 15.4969 25.1973 15.423 25.2764C15.3492 25.3554 15.2489 25.3999 15.1444 25.3999H10.5706C10.4675 25.3976 10.3694 25.3522 10.2972 25.2734C10.2251 25.1946 10.1847 25.0888 10.1847 24.9786C10.1847 24.8683 10.2251 24.7625 10.2972 24.6837C10.3694 24.6049 10.4675 24.5595 10.5706 24.5572H15.1444C15.2489 24.5573 15.349 24.6017 15.4229 24.6806C15.4968 24.7596 15.5383 24.8667 15.5384 24.9784ZM20.9895 16.9779C21.3272 16.3501 22.2136 16.4706 22.3902 17.175C22.5662 17.8775 21.8581 18.4584 21.2693 18.0952C20.9037 17.8697 20.7782 17.3685 20.9895 16.9779ZM20.3072 16.5567C19.706 17.67 20.4713 19.0475 21.6493 19.0475C22.6668 19.0475 23.4173 18.0176 23.1514 16.9573C22.7934 15.5301 20.9956 15.2806 20.3072 16.5567ZM22.2963 20.2801L24.3174 16.5372L21.0068 14.4936L18.9857 18.2365L22.2963 20.2801ZM18.3606 20.1584C18.3526 20.1531 18.3443 20.1481 18.3363 20.1431L18.8769 19.1418L21.617 20.834L20.8245 22.302C20.1079 21.4653 19.2781 20.7407 18.3606 20.1584ZM10.9379 18.7323C11.222 17.7082 11.4862 16.8313 12.5102 16.5461C12.7449 16.4809 12.9912 16.4811 13.2258 16.5467C14.297 16.8441 14.677 17.944 14.8866 18.7537C13.5814 18.4885 12.246 18.4801 10.9379 18.7323ZM4.11544 23.3183L2.12098 19.6248C2.05549 19.5032 2.09557 19.3445 2.20911 19.2737L5.7672 17.0775C5.87999 17.0078 6.03038 17.0509 6.09558 17.1711L7.60568 19.9674L7.57472 20.0229C7.50083 20.0672 7.42742 20.1124 7.35451 20.1585C6.08363 20.9649 4.98045 22.0448 4.11544 23.3183ZM1.90106 15.8201L2.98299 17.8238L4.20594 17.0683L3.12367 15.0652L2.04175 14.5708L1.90106 15.8201ZM10.4029 16.0047C10.016 17.0701 9.51998 18.1497 8.85728 19.368C9.2488 19.2016 9.64904 19.0597 10.056 18.9429C10.4227 17.671 10.6907 16.1825 12.3119 15.7311C12.6767 15.6298 13.0597 15.6298 13.4245 15.7311C15.1322 16.2062 15.5304 18.0639 15.7553 18.971C16.1506 19.0885 16.5394 19.2299 16.9197 19.3947C15.9247 17.3838 15.4406 16.6202 14.7942 14.3271H10.9416C10.7824 14.8935 10.6027 15.4532 10.4029 16.0047ZM11.4433 12.233C11.606 11.4187 11.7351 10.6003 11.8395 9.83221H13.8959C14.0627 11.0549 14.2715 12.2664 14.5726 13.4848H11.1638C11.2657 13.0698 11.3589 12.6524 11.4433 12.233ZM12.0771 7.85196C12.238 6.35386 12.3627 4.90361 12.5215 3.40513H13.2148C13.4124 5.28559 13.5601 7.10751 13.7877 8.98995H11.9479C11.9972 8.58542 12.0398 8.20233 12.0771 7.85196ZM22.8925 13.1219L24.4854 14.1055L24.5043 15.4867L24.4261 15.6312L21.6858 13.9397L21.764 13.7953L22.8925 13.1219ZM25.2103 10.7966L23.9139 11.5948L23.4338 12.4834L24.7323 13.2848L25.212 12.3965L25.2103 10.7966ZM25.9998 12.5087L25.9975 10.0674C25.9973 9.74428 25.6691 9.54143 25.4073 9.70309L23.4288 10.9214C23.3688 10.9583 23.3189 11.0115 23.2841 11.0755L22.6094 12.3262L21.2852 13.1162C21.1525 13.1957 21.0857 13.3669 21.0008 13.5242C20.8235 13.4527 20.6192 13.5264 20.5214 13.7071L18.1064 18.1799C18.0598 18.2663 18.0434 18.3676 18.0602 18.4657C18.0769 18.5638 18.1257 18.6524 18.1979 18.7156L17.819 19.4164C17.2255 18.1474 16.558 17.0498 16.0674 15.6998C15.9034 15.2478 15.7536 14.7899 15.6182 14.3271H15.9829C16.2001 14.3271 16.3768 14.1386 16.3768 13.906C16.3768 13.6733 16.2001 13.4848 15.9829 13.4848H15.3873C15.0772 12.2708 14.8639 11.0641 14.6923 9.83227H14.9828C15.0873 9.83227 15.1874 9.7879 15.2613 9.70892C15.3352 9.62993 15.3767 9.52281 15.3767 9.41111C15.3767 9.29941 15.3352 9.19229 15.2613 9.1133C15.1874 9.03432 15.0873 8.98995 14.9828 8.98995H14.5819C14.3313 6.9548 14.1794 4.97246 13.9574 2.93558C13.9341 2.7236 13.7658 2.5628 13.5662 2.5628H13.2514V1.82107C13.2514 1.70937 13.2099 1.60224 13.1361 1.52326C13.0622 1.44427 12.962 1.3999 12.8575 1.3999C12.7531 1.3999 12.6529 1.44427 12.579 1.52326C12.5051 1.60224 12.4636 1.70937 12.4636 1.82107V2.56274H12.1699C12.0732 2.56279 11.98 2.60079 11.9079 2.66952C11.8357 2.73824 11.7897 2.83291 11.7786 2.93552C11.5598 4.97369 11.4026 6.95684 11.1538 8.98988H10.7322C10.6278 8.98993 10.5276 9.03432 10.4538 9.11328C10.3799 9.19225 10.3384 9.29933 10.3383 9.41102C10.3384 9.52269 10.38 9.62976 10.4538 9.70872C10.5277 9.78768 10.6278 9.8321 10.7322 9.83221H11.0433C10.8737 11.0577 10.6567 12.2766 10.3489 13.4848H9.73216C9.62771 13.4848 9.52755 13.5292 9.45368 13.6082C9.37982 13.6871 9.33829 13.7942 9.33823 13.9059C9.33828 14.0176 9.3798 14.1247 9.45366 14.2037C9.52753 14.2826 9.6277 14.327 9.73216 14.3271H10.1174C9.61642 16.0337 9.01748 17.4228 8.06873 19.1407L6.77786 16.7498C6.49476 16.2255 5.86428 16.0445 5.37322 16.3479L4.88782 16.6471L3.74034 14.5227C3.69796 14.4437 3.6327 14.3815 3.55438 14.3456L1.98908 13.6309L0.735168 11.3091C0.62671 11.1075 0.385481 11.0384 0.196863 11.1548C0.152035 11.1824 0.112748 11.2193 0.0812532 11.2632C0.0497585 11.3071 0.0266741 11.3572 0.0133218 11.4107C-3.04341e-05 11.4641 -0.0033882 11.5199 0.00344077 11.5747C0.0102697 11.6296 0.0271512 11.6825 0.0531188 11.7303L1.30668 14.0521L1.10276 15.8588C1.09307 15.9493 1.11054 16.0407 1.15266 16.1199L2.30042 18.245L1.81536 18.5442C1.32418 18.8475 1.15474 19.5212 1.43841 20.046L3.62721 24.1001C3.575 24.1929 3.52274 24.2854 3.47214 24.3797C3.36467 24.5821 3.43022 24.8393 3.61953 24.9541C3.8078 25.0701 4.04839 24.9993 4.15679 24.7976C5.93671 21.4627 9.27026 19.391 12.8573 19.391C16.4443 19.391 19.7779 21.4627 21.5578 24.7976C21.5834 24.8456 21.6177 24.8878 21.6586 24.9217C21.6995 24.9556 21.7463 24.9805 21.7962 24.995C21.8462 25.0096 21.8983 25.0134 21.9496 25.0064C22.0009 24.9994 22.0505 24.9816 22.0954 24.9541C22.2844 24.8392 22.3499 24.582 22.2424 24.3797C21.9819 23.892 21.6871 23.4263 21.3648 22.9852L22.3023 21.2493C22.4843 21.3215 22.6843 21.2458 22.781 21.0665L25.1964 16.5933C25.2931 16.4147 25.2544 16.1902 25.1055 16.0579C25.1903 15.9005 25.2956 15.7521 25.2935 15.5909L25.2716 13.9699L25.9469 12.7191C25.9817 12.6552 25.9999 12.5826 25.9998 12.5087Z" fill="#63AB45"/>
</svg>
