<svg width="26" height="27" viewBox="0 0 26 27" fill="none" xmlns="http://www.w3.org/2000/svg">
<g clip-path="url(#clip0_285_59617)">
<path d="M10.0958 14.903L10.0626 14.9029C7.52625 14.884 5.46289 12.7807 5.46289 10.2145V7.3012C5.46289 6.77583 5.89033 6.34839 6.4157 6.34839H13.7793C14.3046 6.34839 14.732 6.77583 14.732 7.3012V10.2683C14.732 12.1839 13.5284 13.9263 11.7371 14.6041C11.214 14.8024 10.6619 14.903 10.0958 14.903ZM6.41565 7.04172C6.34686 7.04181 6.28091 7.06918 6.23227 7.11782C6.18363 7.16646 6.15626 7.23241 6.15617 7.3012V10.2145C6.15617 12.4013 7.91082 14.1935 10.0676 14.2096C10.5597 14.2118 11.0383 14.1276 11.4915 13.9557C13.0151 13.3792 14.0387 11.8974 14.0387 10.2683V7.30114C14.0386 7.23236 14.0112 7.16641 13.9626 7.11777C13.914 7.06912 13.848 7.04176 13.7793 7.04166H6.41565V7.04172Z" fill="#63AB45"/>
<path d="M19.2104 26.1688H0.983385C0.891444 26.1688 0.803268 26.1323 0.738255 26.0673C0.673242 26.0023 0.636719 25.9141 0.636719 25.8222V20.4388C0.636719 19.3316 1.24044 18.5145 2.2935 18.1959L7.62939 16.3231L8.29447 14.1896C8.30776 14.1458 8.32957 14.1051 8.35866 14.0698C8.38776 14.0345 8.42355 14.0053 8.46397 13.9839C8.5044 13.9625 8.54866 13.9493 8.59421 13.9451C8.63975 13.9409 8.68569 13.9457 8.72936 13.9593C8.77303 13.9729 8.81357 13.995 8.84865 14.0244C8.88373 14.0538 8.91266 14.0898 8.93376 14.1303C8.95487 14.1709 8.96773 14.2153 8.97161 14.2609C8.97549 14.3064 8.97031 14.3523 8.95637 14.3959L8.23947 16.6957C8.22339 16.7473 8.19547 16.7945 8.15794 16.8333C8.12041 16.8722 8.07431 16.9018 8.02332 16.9197L2.51571 18.8526C2.51068 18.8544 2.50554 18.8561 2.5004 18.8577C1.74571 19.0838 1.33005 19.6453 1.33005 20.4388V25.4755H19.2104C19.3024 25.4755 19.3905 25.512 19.4555 25.577C19.5206 25.6421 19.5571 25.7302 19.5571 25.8222C19.5571 25.9141 19.5205 26.0023 19.4555 26.0673C19.3905 26.1323 19.3023 26.1688 19.2104 26.1688Z" fill="#63AB45"/>
<path d="M19.1517 26.1109C19.0598 26.1109 18.9716 26.0744 18.9066 26.0094C18.8416 25.9444 18.805 25.8562 18.805 25.7643V20.3809C18.805 19.5875 18.3894 19.0259 17.6347 18.7997C17.6295 18.7982 17.6244 18.7966 17.6193 18.7948L12.1118 16.8618C12.0616 16.8442 12.0162 16.8153 11.9789 16.7773C11.9417 16.7393 11.9138 16.6933 11.8972 16.6428L11.1803 14.459C11.1527 14.372 11.1605 14.2775 11.2022 14.1962C11.2438 14.1149 11.3158 14.0533 11.4026 14.0249C11.4894 13.9964 11.5839 14.0033 11.6656 14.0441C11.7473 14.0849 11.8096 14.1563 11.839 14.2428L12.5026 16.2642L17.8415 18.138C18.8945 18.4567 19.4983 19.2738 19.4983 20.3809V25.7643C19.4983 25.8098 19.4893 25.8549 19.4719 25.8969C19.4545 25.939 19.429 25.9772 19.3968 26.0094C19.3646 26.0416 19.3264 26.0672 19.2844 26.0846C19.2423 26.102 19.1972 26.111 19.1517 26.1109Z" fill="#63AB45"/>
<path d="M10.0145 17.8034C9.15758 17.8034 8.30802 17.4823 7.66339 16.8378C7.6312 16.8056 7.60566 16.7674 7.58824 16.7253C7.57081 16.6832 7.56184 16.6382 7.56184 16.5926C7.56184 16.5471 7.5708 16.502 7.58822 16.46C7.60564 16.4179 7.63117 16.3797 7.66336 16.3475C7.72837 16.2825 7.81655 16.2459 7.90849 16.2459C7.95402 16.2459 7.9991 16.2549 8.04116 16.2723C8.08322 16.2897 8.12144 16.3153 8.15364 16.3475C9.19317 17.3871 10.9106 17.3609 11.9822 16.2895C12.0142 16.2565 12.0524 16.2303 12.0947 16.2123C12.1369 16.1943 12.1823 16.1849 12.2282 16.1846C12.2742 16.1843 12.3197 16.1931 12.3622 16.2105C12.4047 16.2279 12.4433 16.2536 12.4757 16.2861C12.5082 16.3186 12.5339 16.3571 12.5513 16.3996C12.5688 16.4421 12.5776 16.4876 12.5773 16.5336C12.577 16.5795 12.5675 16.6249 12.5495 16.6671C12.5315 16.7094 12.5053 16.7476 12.4724 16.7796C11.7909 17.4612 10.8988 17.8034 10.0145 17.8034ZM14.2358 4.7205C14.1538 4.72039 14.0745 4.69123 14.012 4.63821C13.9495 4.58518 13.9078 4.51172 13.8943 4.43086L13.7442 3.5323C13.531 2.25293 12.4351 1.32444 11.1384 1.32444H9.05543C7.75873 1.32444 6.66285 2.25293 6.44971 3.53218L6.2996 4.43086C6.28401 4.52113 6.23333 4.60156 6.15862 4.65457C6.08392 4.70758 5.99127 4.72888 5.90091 4.71379C5.81056 4.69871 5.72985 4.64847 5.67641 4.57407C5.62298 4.49966 5.60117 4.40713 5.61575 4.31669L5.76585 3.41813C6.03481 1.8033 7.41836 0.631104 9.05543 0.631104H11.1384C12.7755 0.631104 14.1589 1.8033 14.428 3.41825L14.5781 4.31669C14.5864 4.3664 14.5838 4.41731 14.5704 4.4659C14.557 4.51448 14.5332 4.55957 14.5006 4.59801C14.468 4.63645 14.4275 4.66732 14.3817 4.68847C14.336 4.70963 14.2862 4.72056 14.2358 4.7205Z" fill="#63AB45"/>
<path d="M14.3846 9.43195C14.3134 9.43191 14.2439 9.40997 14.1856 9.36908C14.1273 9.3282 14.083 9.27037 14.0587 9.20344C14.0273 9.11701 14.0316 9.02166 14.0705 8.93837C14.1095 8.85508 14.1799 8.79067 14.2663 8.7593L14.6694 8.613C16.0649 8.11837 16.8966 7.42036 16.8966 6.74488C16.8966 5.98053 15.8401 5.19949 14.1395 4.70665C12.9567 4.36403 11.5587 4.18295 10.0967 4.18295C8.63471 4.18295 7.23672 4.36403 6.05389 4.70665C4.35326 5.19949 3.29685 5.98048 3.29685 6.74488C3.29685 7.4203 4.1285 8.11831 5.52152 8.61208L5.92707 8.75924C5.96996 8.7747 6.00938 8.79846 6.04308 8.82917C6.07677 8.85989 6.10408 8.89694 6.12343 8.93823C6.14278 8.97951 6.1538 9.0242 6.15586 9.06974C6.15792 9.11529 6.15097 9.16079 6.13541 9.20365C6.11986 9.24651 6.096 9.28587 6.06521 9.3195C6.03442 9.35312 5.9973 9.38034 5.95598 9.3996C5.91465 9.41886 5.86993 9.42978 5.82438 9.43173C5.77883 9.43368 5.73335 9.42663 5.69052 9.41097L5.28747 9.26468C3.55754 8.65154 2.60352 7.75633 2.60352 6.74482C2.60352 5.62618 3.79079 4.64055 5.86097 4.04064C7.10562 3.68011 8.57034 3.4895 10.0967 3.4895C11.6231 3.4895 13.0878 3.68005 14.3324 4.04059C16.4026 4.64055 17.5899 5.62618 17.5899 6.74476C17.5899 7.75622 16.6358 8.65143 14.9035 9.26549L14.5028 9.41092C14.465 9.42484 14.4249 9.43196 14.3846 9.43195ZM11.8381 24.2533H8.35529C8.26335 24.2533 8.17518 24.2168 8.11016 24.1517C8.04515 24.0867 8.00863 23.9986 8.00863 23.9066V19.7272C8.00863 19.6353 8.04515 19.5471 8.11016 19.4821C8.17518 19.4171 8.26335 19.3805 8.35529 19.3805H11.8381C11.9301 19.3805 12.0183 19.4171 12.0833 19.4821C12.1483 19.5471 12.1848 19.6353 12.1848 19.7272V23.9066C12.1848 23.9986 12.1483 24.0867 12.0833 24.1517C12.0183 24.2168 11.9301 24.2533 11.8381 24.2533ZM8.7019 23.5599H11.4914V20.0739H8.7019V23.5599Z" fill="#63AB45"/>
<path d="M10.4447 21.467H9.74812C9.65617 21.467 9.568 21.4305 9.50298 21.3655C9.43797 21.3005 9.40145 21.2123 9.40145 21.1204C9.40145 21.0284 9.43797 20.9402 9.50298 20.8752C9.568 20.8102 9.65617 20.7737 9.74812 20.7737H10.4447C10.5366 20.7737 10.6248 20.8102 10.6898 20.8752C10.7548 20.9402 10.7914 21.0284 10.7914 21.1204C10.7914 21.2123 10.7548 21.3005 10.6898 21.3655C10.6248 21.4305 10.5366 21.467 10.4447 21.467ZM10.4447 22.8602H9.74812C9.65617 22.8602 9.568 22.8236 9.50298 22.7586C9.43797 22.6936 9.40145 22.6054 9.40145 22.5135C9.40145 22.4215 9.43797 22.3334 9.50298 22.2684C9.568 22.2033 9.65617 22.1668 9.74812 22.1668H10.4447C10.5366 22.1668 10.6248 22.2033 10.6898 22.2684C10.7548 22.3334 10.7914 22.4215 10.7914 22.5135C10.7914 22.6054 10.7548 22.6936 10.6898 22.7586C10.6248 22.8236 10.5366 22.8602 10.4447 22.8602ZM11.8379 20.0739C11.7693 20.074 11.7023 20.0536 11.6452 20.0156C11.5882 19.9775 11.5438 19.9233 11.5175 19.86C11.4913 19.7966 11.4844 19.7269 11.4978 19.6597C11.5112 19.5924 11.5442 19.5307 11.5927 19.4822L14.0308 17.0442C14.063 17.012 14.1012 16.9864 14.1432 16.969C14.1853 16.9516 14.2303 16.9426 14.2759 16.9426C14.3214 16.9426 14.3665 16.9516 14.4085 16.969C14.4506 16.9864 14.4888 17.012 14.521 17.0442C14.5532 17.0764 14.5787 17.1146 14.5961 17.1566C14.6136 17.1987 14.6225 17.2438 14.6225 17.2893C14.6225 17.3348 14.6136 17.3799 14.5961 17.4219C14.5787 17.464 14.5532 17.5022 14.521 17.5344L12.083 19.9724C12.0508 20.0046 12.0126 20.0302 11.9706 20.0476C11.9285 20.0651 11.8834 20.074 11.8379 20.0739ZM8.35498 20.0739C8.30944 20.074 8.26433 20.0651 8.22226 20.0476C8.18019 20.0302 8.14198 20.0046 8.10983 19.9724L5.67184 17.5344C5.63965 17.5022 5.61412 17.464 5.5967 17.4219C5.57928 17.3799 5.57031 17.3348 5.57031 17.2893C5.57031 17.2438 5.57928 17.1987 5.5967 17.1566C5.61412 17.1146 5.63965 17.0764 5.67184 17.0442C5.70402 17.012 5.74223 16.9864 5.78429 16.969C5.82635 16.9516 5.87143 16.9426 5.91696 16.9426C5.96248 16.9426 6.00757 16.9516 6.04963 16.969C6.09168 16.9864 6.1299 17.012 6.16208 17.0442L8.60007 19.4822C8.63226 19.5144 8.65779 19.5526 8.67521 19.5946C8.69263 19.6367 8.70159 19.6818 8.70159 19.7273C8.70159 19.7728 8.69263 19.8179 8.67521 19.8599C8.65779 19.902 8.63226 19.9402 8.60007 19.9724C8.56794 20.0046 8.52973 20.0302 8.48767 20.0476C8.44561 20.0651 8.40051 20.074 8.35498 20.0739ZM20.487 26.1681C20.395 26.1681 20.3069 26.1316 20.2419 26.0666C20.1768 26.0016 20.1403 25.9134 20.1403 25.8214V16.2444C20.1403 16.1524 20.1768 16.0643 20.2419 15.9992C20.3069 15.9342 20.395 15.8977 20.487 15.8977C20.5789 15.8977 20.6671 15.9342 20.7321 15.9992C20.7971 16.0643 20.8336 16.1524 20.8336 16.2444V25.8215C20.8336 25.9134 20.7971 26.0016 20.7321 26.0666C20.6671 26.1316 20.5789 26.1681 20.487 26.1681Z" fill="#63AB45"/>
<path d="M20.4873 17.6358C20.4418 17.6358 20.3967 17.6269 20.3546 17.6095C20.3126 17.592 20.2743 17.5665 20.2421 17.5343C20.21 17.5021 20.1844 17.4639 20.167 17.4218C20.1496 17.3798 20.1406 17.3347 20.1406 17.2892V11.7165C20.1406 11.656 20.1565 11.5965 20.1867 11.5439C20.2168 11.4914 20.2602 11.4477 20.3126 11.4172C20.3649 11.3866 20.4243 11.3703 20.4848 11.3699C20.5454 11.3694 20.605 11.3849 20.6578 11.4147L25.5916 14.201C25.6451 14.2312 25.6896 14.2751 25.7206 14.3281C25.7515 14.3811 25.7679 14.4415 25.7679 14.5029C25.7679 14.5643 25.7515 14.6246 25.7206 14.6777C25.6896 14.7307 25.6451 14.7746 25.5916 14.8048L20.6578 17.5911C20.6057 17.6204 20.547 17.6358 20.4873 17.6358ZM20.834 12.3105V16.6953L24.7161 14.5029L20.834 12.3105Z" fill="#63AB45"/>
</g>
<defs>
<clipPath id="clip0_285_59617">
<rect width="26" height="26" fill="white" transform="translate(0 0.399902)"/>
</clipPath>
</defs>
</svg>
