<svg width="26" height="27" viewBox="0 0 26 27" fill="none" xmlns="http://www.w3.org/2000/svg">
<g clip-path="url(#clip0_285_59655)">
<path d="M12.6822 16.1647H11.0831C9.23313 16.1647 7.72848 17.6699 7.72848 19.5194V21.7014C7.72848 22.3474 8.25356 22.8724 8.89949 22.8724H14.8663C15.5122 22.8724 16.0373 22.3474 16.0373 21.7014V19.5194C16.0373 17.6699 14.5321 16.1647 12.6822 16.1647ZM15.2238 21.7019C15.2238 21.899 15.0633 22.0594 14.8663 22.0594H13.7329V20.1282C13.7329 19.9038 13.5511 19.7215 13.3261 19.7215C13.1011 19.7215 12.9193 19.9033 12.9193 20.1282V22.0594H10.8464V20.1282C10.8464 19.9038 10.6646 19.7215 10.4397 19.7215C10.2147 19.7215 10.0329 19.9033 10.0329 20.1282V22.0594H8.89949C8.70246 22.0594 8.54199 21.899 8.54199 21.7019V19.5199C8.54199 18.1183 9.68203 16.9783 11.0836 16.9783H12.6827C14.0843 16.9783 15.2243 18.1183 15.2243 19.5199V21.7019H15.2238ZM9.33773 13.3631C9.33773 14.7667 10.4793 15.9088 11.8819 15.9088C13.2855 15.9088 14.4275 14.7667 14.4275 13.3631C14.4275 11.9601 13.2855 10.819 11.8819 10.819C10.4793 10.819 9.33773 11.9601 9.33773 13.3631ZM13.6145 13.3631C13.6145 14.3183 12.8376 15.0953 11.8819 15.0953C10.9272 15.0953 10.1507 14.3183 10.1507 13.3631C10.1507 12.4085 10.9272 11.632 11.8819 11.632C12.8371 11.632 13.6145 12.4085 13.6145 13.3631ZM4.27434 17.0433H2.91391C1.30617 17.0433 -0.00195312 18.3514 -0.00195312 19.9591V21.8162C-0.00195312 22.3992 0.472344 22.8735 1.05531 22.8735H6.13242C6.71539 22.8735 7.18969 22.3992 7.18969 21.8162V19.9591C7.1902 18.3509 5.88207 17.0433 4.27434 17.0433ZM6.37668 21.8157C6.37668 21.9503 6.26699 22.0594 6.13293 22.0594H5.22953V20.4766C5.22953 20.2521 5.04773 20.0698 4.82277 20.0698C4.59781 20.0698 4.41602 20.2516 4.41602 20.4766V22.0594H2.77375V20.4766C2.77375 20.2521 2.59195 20.0698 2.36699 20.0698C2.14203 20.0698 1.96023 20.2516 1.96023 20.4766V22.0594H1.05582C0.92125 22.0594 0.81207 21.9497 0.81207 21.8157V19.9586C0.81207 18.7993 1.75508 17.8563 2.91441 17.8563H4.27484C5.43418 17.8563 6.37719 18.7993 6.37719 19.9586V21.8157H6.37668ZM3.59488 16.9468C4.82227 16.9468 5.82113 15.9474 5.82113 14.719C5.82113 13.4916 4.82227 12.4927 3.59488 12.4927C2.36648 12.4927 1.36711 13.4916 1.36711 14.719C1.36762 15.9474 2.36699 16.9468 3.59488 16.9468ZM3.59488 13.3063C4.37387 13.3063 5.00762 13.94 5.00762 14.719C5.00762 15.499 4.37387 16.1333 3.59488 16.1333C2.81488 16.1333 2.18062 15.499 2.18062 14.719C2.18062 13.94 2.81539 13.3063 3.59488 13.3063ZM22.2057 15.2867H20.3674C18.2762 15.2867 16.5751 16.9884 16.5751 19.0806V21.5882C16.5751 22.2966 17.1514 22.8729 17.8598 22.8729H24.7148C25.4232 22.8729 25.9996 22.2966 25.9996 21.5882V19.0806C25.9996 16.9889 24.2979 15.2867 22.2057 15.2867ZM25.1866 21.5882C25.1866 21.8482 24.9753 22.0594 24.7153 22.0594H23.3513V19.7799C23.3513 19.5554 23.1695 19.3731 22.9446 19.3731C22.7196 19.3731 22.5378 19.5549 22.5378 19.7799V22.0594H20.0358V19.7799C20.0358 19.5554 19.854 19.3731 19.6291 19.3731C19.4041 19.3731 19.2223 19.5549 19.2223 19.7799V22.0594H17.8598C17.5998 22.0594 17.3886 21.8482 17.3886 21.5882V19.0806C17.3886 17.4373 18.7252 16.1002 20.3674 16.1002H22.2057C23.849 16.1002 25.1861 17.4373 25.1861 19.0806V21.5882H25.1866ZM18.4235 12.0073C18.4235 13.5866 19.7083 14.8713 21.2876 14.8713C22.8669 14.8713 24.1516 13.5866 24.1516 12.0073C24.1516 10.428 22.8669 9.14322 21.2876 9.14322C19.7083 9.14322 18.4235 10.428 18.4235 12.0073ZM21.2876 9.95673C22.4185 9.95673 23.3381 10.8764 23.3381 12.0073C23.3381 13.1382 22.4185 14.0578 21.2876 14.0578C20.1567 14.0578 19.237 13.1382 19.237 12.0073C19.237 10.8764 20.1567 9.95673 21.2876 9.95673ZM1.37879 10.0608C1.32648 9.84248 1.46105 9.6231 1.67941 9.57029L18.097 5.62865L16.4725 4.68462C16.2785 4.57189 16.2125 4.32306 16.3252 4.12857C16.438 3.93459 16.6868 3.86857 16.8813 3.9813L19.3833 5.43517C19.5773 5.54791 19.6433 5.79673 19.5305 5.99123L18.0767 8.49423C18.0226 8.58749 17.9337 8.65544 17.8295 8.68315C17.7253 8.71086 17.6144 8.69606 17.5211 8.64201C17.3266 8.52927 17.2611 8.28045 17.3739 8.08595L18.3509 6.40408L1.86883 10.3615C1.76398 10.3866 1.65346 10.369 1.56157 10.3126C1.46967 10.2562 1.40393 10.1657 1.37879 10.0608Z" fill="#63AB45"/>
</g>
<defs>
<clipPath id="clip0_285_59655">
<rect width="26" height="26" fill="white" transform="translate(0 0.399902)"/>
</clipPath>
</defs>
</svg>
