<svg width="24" height="16" viewBox="0 0 24 16" fill="none" xmlns="http://www.w3.org/2000/svg">
<path d="M20.481 8.58948C18.4044 8.58948 15.5155 8.4993 12.7161 8.40861C9.91725 8.40861 7.11837 8.31843 4.95176 8.31843H3.14598C3.23645 8.31843 3.23645 8.40861 3.3264 8.40861C4.52142 8.99802 5.61727 9.75953 6.57659 10.6672C6.84292 10.9166 7.08469 11.1895 7.29879 11.4824C7.5376 11.7323 7.74912 12.0055 7.93 12.2975L8.47179 13.1127C8.65221 13.3838 8.74268 13.6548 8.9231 13.9279C9.01357 14.199 9.19399 14.3798 9.19399 14.6509C9.29412 14.814 9.35657 14.9961 9.37704 15.1848C9.42736 15.339 9.48762 15.4899 9.55746 15.6367C9.34377 15.6384 9.13134 15.6687 8.92626 15.7269C8.70964 15.8059 8.498 15.897 8.29242 16C8.28448 15.846 8.25402 15.6938 8.20195 15.5481C8.20195 15.3672 8.11147 15.277 8.11147 15.006C8.11147 14.8251 7.93105 14.5541 7.93105 14.3737C7.84058 14.1027 7.75063 13.9218 7.66016 13.6507C7.54554 13.3618 7.39392 13.0879 7.20885 12.8356L6.66706 12.0204C6.48619 11.7283 6.27467 11.4552 6.03585 11.2052C5.20582 10.2698 4.19338 9.50232 3.05656 8.94663C2.67928 8.73946 2.28668 8.55963 1.88199 8.40861L0.888887 7.95669L1.97246 7.59547C2.34399 7.43486 2.70577 7.25386 3.05603 7.05337C4.16275 6.45283 5.16758 5.69108 6.03533 4.7948C6.27414 4.54484 6.48566 4.27167 6.66653 3.97962L7.20832 3.16444C7.38874 2.89339 7.47921 2.62234 7.65963 2.34926C7.77497 2.11777 7.86574 1.87554 7.93053 1.62629C8.02077 1.4247 8.08149 1.21188 8.11095 0.994014C8.18472 0.822726 8.21571 0.636993 8.20142 0.451917C8.25349 0.306181 8.28395 0.154026 8.29189 0C8.49667 0.102179 8.70743 0.192682 8.9231 0.271049C9.12818 0.329241 9.34061 0.359591 9.55431 0.361228C9.48447 0.508064 9.42421 0.658998 9.37389 0.813145C9.28341 0.994013 9.28341 1.17437 9.19347 1.35524C9.08819 1.59072 8.99773 1.83214 8.92257 2.07821C8.80795 2.36716 8.65633 2.64103 8.47126 2.89339C8.32332 3.18422 8.14154 3.45772 7.92947 3.70857C7.74858 4.00061 7.53706 4.27378 7.29827 4.52376C7.02737 4.7948 6.84695 5.06585 6.57606 5.33894C5.63392 6.26423 4.5354 7.02671 3.32798 7.59343C3.2375 7.59343 3.2375 7.68361 3.14756 7.68361H4.95176C7.02843 7.68361 9.91725 7.59343 12.7161 7.59343C15.515 7.50325 18.3139 7.50325 20.481 7.41256C22.5577 7.32493 24 7.32493 24 7.32493C23.9488 7.53236 23.9185 7.74411 23.9095 7.9572C23.9185 8.1703 23.9488 8.38204 24 8.58948C22.8278 8.6468 21.6533 8.6468 20.481 8.58948Z" fill="#63AB45"/>
</svg>
