<svg width="44" height="30" viewBox="0 0 44 30" fill="none" xmlns="http://www.w3.org/2000/svg">
<path d="M43.1321 28.2705H0.86785C0.388623 28.2705 0 28.6576 0 29.1352C0 29.6128 0.388623 30 0.86785 30H43.1321C43.6114 30 44 29.6128 44 29.1352C44 28.6576 43.6114 28.2705 43.1321 28.2705Z" fill="#63AB45"/>
<path d="M0.421178 14.8568L6.81749 19.2129C8.25795 20.1939 9.9513 20.6944 11.6519 20.6943C12.8829 20.6943 14.1178 20.4319 15.2625 19.8996L21.5643 16.9649C21.9985 16.7626 22.186 16.248 21.9831 15.8154C21.7802 15.3828 21.2637 15.1961 20.8294 15.3981L14.528 18.3327C12.3552 19.3429 9.77608 19.1331 7.79678 17.7851L2.50645 14.1822L4.88748 12.727L11.0151 14.7522C11.2264 14.8222 11.4567 14.8084 11.6582 14.7138L18.9594 11.2868C19.2315 11.1591 19.4177 10.9003 19.4518 10.6026C19.4859 10.3049 19.363 10.0108 19.1267 9.82535L11.0703 3.4996L14.2036 1.9066L28.6954 6.47496C28.9035 6.54059 29.1287 6.52555 29.3263 6.43319L39.0219 1.89362C40.1162 1.43722 41.4409 1.93591 41.9804 3.01008C42.2563 3.55935 42.2967 4.18127 42.0939 4.76133C41.8913 5.34139 41.472 5.80384 40.9132 6.06378L27.8882 12.1267C27.4539 12.3287 27.2664 12.8434 27.4692 13.2761C27.6721 13.7087 28.1886 13.8958 28.6228 13.6935L41.6476 7.63084C42.6344 7.17193 43.3751 6.35485 43.7331 5.33006C44.0913 4.30527 44.0201 3.20646 43.5326 2.23614C42.5879 0.355358 40.2529 -0.509372 38.328 0.308489C38.3184 0.312553 38.3087 0.316877 38.2993 0.321287L28.8954 4.72423L14.3879 0.150763C14.1707 0.082276 13.9348 0.101646 13.7317 0.204981L9.07434 2.57287C8.81086 2.70682 8.63399 2.96537 8.60509 3.25869C8.57619 3.552 8.69925 3.83987 8.93166 4.02233L16.9502 10.3182L11.2324 13.0019L5.05098 10.9589C4.80807 10.8788 4.54216 10.9093 4.32399 11.0425L0.457107 13.4058C0.206299 13.559 0.0505196 13.8285 0.0432297 14.1215C0.0360265 14.4146 0.178354 14.6914 0.421178 14.8568Z" fill="#63AB45"/>
<path d="M24.3512 13.75C23.9175 13.952 23.7301 14.466 23.9328 14.8981C24.1354 15.3303 24.6513 15.517 25.085 15.3151C25.5188 15.1132 25.7061 14.5992 25.5035 14.167C25.3008 13.7349 24.785 13.5482 24.3512 13.75Z" fill="#63AB45"/>
</svg>
