<svg width="39" height="30" viewBox="0 0 39 30" fill="none" xmlns="http://www.w3.org/2000/svg">
<path d="M4.14938 9.89642C4.86045 12.4294 6.90069 14.4299 9.4743 15.1173L15.4263 16.7036C15.8361 16.8128 16.2588 16.5738 16.3697 16.1695C16.4806 15.7653 16.238 15.3489 15.8279 15.2396L9.8763 13.6534C7.82522 13.1056 6.19892 11.511 5.63215 9.49201L4.11722 4.09563L6.56476 4.46295L9.55215 9.27431C9.65522 9.44022 9.81907 9.56079 10.0097 9.61099L16.921 11.4308C17.179 11.4988 17.4533 11.4302 17.6472 11.25C17.8411 11.0697 17.9266 10.8034 17.8731 10.546L16.0477 1.76605L19.0839 2.46505L26.2761 13.6954C26.3794 13.8566 26.5405 13.9736 26.7273 14.0229L35.8987 16.4472C36.9017 16.7584 37.5125 17.8391 37.2615 18.863C37.133 19.3865 36.8034 19.8259 36.3332 20.1003C35.8631 20.3747 35.3137 20.4481 34.7861 20.3072L22.4858 17.0267C22.0756 16.9171 21.6534 17.1565 21.5424 17.5607C21.4315 17.965 21.674 18.3814 22.0841 18.4907L34.3841 21.7711C34.6934 21.8538 35.007 21.8947 35.3184 21.8947C35.9448 21.8947 36.5621 21.7292 37.1169 21.4054C37.9476 20.9206 38.53 20.1443 38.7568 19.2194C39.1965 17.4267 38.1117 15.5311 36.3386 14.9938C36.3298 14.9911 36.3208 14.9886 36.3118 14.9862L27.4164 12.6349L20.2164 1.39243C20.1085 1.22394 19.9377 1.10413 19.7408 1.05886L15.2279 0.0199064C14.9725 -0.0389379 14.7045 0.0346174 14.5165 0.214866C14.3286 0.395114 14.2468 0.657335 14.2995 0.910608L16.1163 9.64913L10.7039 8.22398L7.6903 3.37047C7.57192 3.17975 7.37422 3.05031 7.14999 3.01664L3.17499 2.42016C2.91699 2.38172 2.65715 2.47415 2.48399 2.66646C2.31084 2.85869 2.24838 3.12432 2.31792 3.37206L4.14938 9.89642Z" fill="#63AB45"/>
<path d="M18.2158 16.6537C18.105 17.0575 18.3472 17.4734 18.7568 17.5826C19.1664 17.6919 19.5884 17.4531 19.6991 17.0493C19.81 16.6455 19.5678 16.2296 19.1581 16.1204C18.7486 16.0111 18.3267 16.2499 18.2158 16.6537Z" fill="#63AB45"/>
<path d="M38.2308 28.4834H0.769231C0.344462 28.4834 0 28.8229 0 29.2417C0 29.6605 0.344462 30 0.769231 30H38.2308C38.6555 30 39 29.6605 39 29.2417C39 28.8229 38.6555 28.4834 38.2308 28.4834Z" fill="#63AB45"/>
</svg>
