<svg width="30" height="30" viewBox="0 0 30 30" fill="none" xmlns="http://www.w3.org/2000/svg">
<path d="M23.7784 15.0364C23.5356 15.0364 23.3389 15.2331 23.3389 15.4758V28.3887C23.3389 28.7926 23.0104 29.1211 22.6065 29.1211H1.61133C1.20744 29.1211 0.878906 28.7926 0.878906 28.3887V19.779C0.878906 19.5362 0.682207 19.3395 0.439453 19.3395C0.196699 19.3395 0 19.5362 0 19.779V28.3887C0 29.2772 0.722871 30 1.61133 30H22.6065C23.495 30 24.2179 29.2772 24.2179 28.3887V15.4758C24.2179 15.2331 24.0212 15.0364 23.7784 15.0364Z" fill="#63AB45"/>
<path d="M8.93701 17.9235H10.5686C10.9725 17.9235 11.301 17.5949 11.301 17.1911V15.5594C11.301 15.1556 10.9725 14.827 10.5686 14.827H8.93701C8.53312 14.827 8.20459 15.1556 8.20459 15.5594V17.1911C8.20459 17.5949 8.53318 17.9235 8.93701 17.9235ZM9.0835 15.7059H10.4221V17.0446H9.0835V15.7059Z" fill="#63AB45"/>
<path d="M13.6494 17.9235H15.281C15.6848 17.9235 16.0134 17.5949 16.0134 17.1911V15.5594C16.0134 15.1556 15.6848 14.827 15.281 14.827H13.6494C13.2455 14.827 12.917 15.1556 12.917 15.5594V17.1911C12.917 17.5949 13.2456 17.9235 13.6494 17.9235ZM13.7959 15.7059H15.1345V17.0446H13.7959V15.7059Z" fill="#63AB45"/>
<path d="M18.3618 17.9235H19.9934C20.3973 17.9235 20.7258 17.5949 20.7258 17.1911V15.5594C20.7258 15.1556 20.3973 14.827 19.9934 14.827H18.3618C17.9579 14.827 17.6294 15.1556 17.6294 15.5594V17.1911C17.6294 17.5949 17.9579 17.9235 18.3618 17.9235ZM18.5083 15.7059H19.8469V17.0446H18.5083V15.7059Z" fill="#63AB45"/>
<path d="M3.49219 21.361C3.49219 21.7649 3.82072 22.0934 4.22461 22.0934H5.85621C6.2601 22.0934 6.58863 21.7649 6.58863 21.361V19.7294C6.58863 19.3255 6.2601 18.9969 5.85621 18.9969H4.22461C3.82072 18.9969 3.49219 19.3255 3.49219 19.7294V21.361ZM4.37109 19.8759H5.70973V21.2145H4.37109V19.8759Z" fill="#63AB45"/>
<path d="M8.20459 21.361C8.20459 21.7649 8.53312 22.0934 8.93701 22.0934H10.5686C10.9725 22.0934 11.301 21.7649 11.301 21.361V19.7294C11.301 19.3255 10.9725 18.9969 10.5686 18.9969H8.93701C8.53312 18.9969 8.20459 19.3255 8.20459 19.7294V21.361ZM9.0835 19.8759H10.4221V21.2145H9.0835V19.8759Z" fill="#63AB45"/>
<path d="M12.917 21.361C12.917 21.7649 13.2455 22.0934 13.6494 22.0934H15.281C15.6848 22.0934 16.0134 21.7649 16.0134 21.361V19.7294C16.0134 19.3255 15.6848 18.9969 15.281 18.9969H13.6494C13.2455 18.9969 12.917 19.3255 12.917 19.7294V21.361ZM13.7959 19.8759H15.1345V21.2145H13.7959V19.8759Z" fill="#63AB45"/>
<path d="M17.6294 21.361C17.6294 21.7649 17.9579 22.0934 18.3618 22.0934H19.9934C20.3973 22.0934 20.7258 21.7649 20.7258 21.361V19.7294C20.7258 19.3255 20.3973 18.9969 19.9934 18.9969H18.3618C17.9579 18.9969 17.6294 19.3255 17.6294 19.7294V21.361ZM18.5083 19.8759H19.8469V21.2145H18.5083V19.8759Z" fill="#63AB45"/>
<path d="M8.20459 25.5308C8.20459 25.9347 8.53312 26.2632 8.93701 26.2632H10.5686C10.9725 26.2632 11.301 25.9347 11.301 25.5308V23.8992C11.301 23.4953 10.9725 23.1667 10.5686 23.1667H8.93701C8.53312 23.1667 8.20459 23.4953 8.20459 23.8992V25.5308ZM9.0835 24.0457H10.4221V25.3843H9.0835V24.0457Z" fill="#63AB45"/>
<path d="M12.917 25.5308C12.917 25.9347 13.2455 26.2632 13.6494 26.2632H15.281C15.6848 26.2632 16.0134 25.9347 16.0134 25.5308V23.8992C16.0134 23.4953 15.6848 23.1667 15.281 23.1667H13.6494C13.2455 23.1667 12.917 23.4953 12.917 23.8992V25.5308ZM13.7959 24.0457H15.1345V25.3843H13.7959V24.0457Z" fill="#63AB45"/>
<path d="M4.22461 17.9235H5.85621C6.2601 17.9235 6.58863 17.5949 6.58863 17.1911V15.5594C6.58863 15.1556 6.2601 14.827 5.85621 14.827H4.22461C3.82072 14.827 3.49219 15.1556 3.49219 15.5594V17.1911C3.49219 17.5949 3.82072 17.9235 4.22461 17.9235ZM4.37109 15.7059H5.70973V17.0446H4.37109V15.7059Z" fill="#63AB45"/>
<path d="M3.49219 25.5308C3.49219 25.9347 3.82072 26.2632 4.22461 26.2632H5.85621C6.2601 26.2632 6.58863 25.9347 6.58863 25.5308V23.8992C6.58863 23.4953 6.2601 23.1667 5.85621 23.1667H4.22461C3.82072 23.1667 3.49219 23.4953 3.49219 23.8992V25.5308ZM4.37109 24.0457H5.70973V25.3843H4.37109V24.0457Z" fill="#63AB45"/>
<path d="M17.6294 25.5308C17.6294 25.9347 17.9579 26.2632 18.3618 26.2632H19.9934C20.3973 26.2632 20.7258 25.9347 20.7258 25.5308V23.8992C20.7258 23.4953 20.3973 23.1667 19.9934 23.1667H18.3618C17.9579 23.1667 17.6294 23.4953 17.6294 23.8992V25.5308ZM18.5083 24.0457H19.8469V25.3843H18.5083V24.0457Z" fill="#63AB45"/>
<path d="M26.7761 9.07383C26.5333 9.07383 26.3366 9.27053 26.3366 9.51328V12.659C26.3366 12.7398 26.2709 12.8055 26.1901 12.8055H19.028C18.9472 12.8055 18.8815 12.7398 18.8815 12.659V1.02539C18.8815 0.94459 18.9472 0.878906 19.028 0.878906H26.1901C26.2709 0.878906 26.3365 0.94459 26.3365 1.02539V3.80391C26.3365 4.04666 26.5332 4.24336 26.776 4.24336C27.0187 4.24336 27.2154 4.04666 27.2154 3.80391V1.02539C27.2154 0.46002 26.7554 0 26.1901 0H19.028C18.4627 0 18.0026 0.46002 18.0026 1.02539V6.82201H13.7117V5.72889C13.7117 4.84512 12.9927 4.12611 12.1089 4.12611C11.2252 4.12611 10.5062 4.84512 10.5062 5.72889V6.82195H7.45605V5.72889C7.45605 4.84512 6.73705 4.12611 5.85328 4.12611C4.96951 4.12611 4.25063 4.84512 4.25063 5.72889V6.82195H1.61133C0.722871 6.82195 0 7.54482 0 8.43328V11.5296V12.4805V17.484C0 17.7268 0.196699 17.9235 0.439453 17.9235C0.682207 17.9235 0.878906 17.7268 0.878906 17.484V12.4805V11.9691H18.0026V12.6589C18.0026 13.2243 18.4627 13.6843 19.028 13.6843H26.1901C26.7554 13.6843 27.2154 13.2243 27.2154 12.6589V9.51328C27.2155 9.27059 27.0187 9.07383 26.7761 9.07383ZM11.3851 5.72889C11.3851 5.32975 11.7098 5.00502 12.109 5.00502C12.5081 5.00502 12.8329 5.32975 12.8329 5.72889V8.5084C12.8329 8.90754 12.5081 9.23221 12.109 9.23221C11.7098 9.23221 11.3851 8.90754 11.3851 8.5084V5.72889ZM5.12953 5.72889C5.12953 5.32975 5.45426 5.00502 5.8534 5.00502C6.25254 5.00502 6.57727 5.32975 6.57727 5.72889V8.5084C6.57727 8.90754 6.25254 9.23221 5.8534 9.23221C5.45426 9.23221 5.12953 8.90754 5.12953 8.5084V5.72889ZM0.878906 11.0902V8.43328C0.878906 8.02939 1.20744 7.70086 1.61133 7.70086H4.25063V8.50834C4.25063 9.39205 4.96963 10.1111 5.8534 10.1111C6.73717 10.1111 7.45617 9.39205 7.45617 8.50834V7.70086H10.5063V8.50834C10.5063 9.39205 11.2253 10.1111 12.109 10.1111C12.9928 10.1111 13.7118 9.39205 13.7118 8.50834V7.70086H18.0028V11.0902H0.878906Z" fill="#63AB45"/>
<path d="M20.3906 6.26135C20.1479 6.26135 19.9512 6.45805 19.9512 6.70081C19.9512 6.94356 20.1479 7.14026 20.3906 7.14026H20.8523C21.0951 7.14026 21.2918 6.94356 21.2918 6.70081C21.2918 6.45805 21.0951 6.26135 20.8523 6.26135H20.3906Z" fill="#63AB45"/>
<path d="M29.204 5.30129H25.7427V4.98377C25.7427 4.6683 25.5644 4.39092 25.2775 4.2599C24.9905 4.12895 24.6641 4.17582 24.4258 4.38242L22.4441 6.0994C22.2696 6.25069 22.1694 6.46988 22.1694 6.70092C22.1694 6.93184 22.2695 7.1511 22.4441 7.30233L24.4257 9.01936C24.5746 9.14838 24.7579 9.21518 24.9444 9.21518C25.0565 9.21518 25.1698 9.19104 25.2775 9.14188C25.5645 9.01086 25.7427 8.73342 25.7427 8.41801V8.10049H29.204C29.6428 8.10049 29.9998 7.74348 29.9998 7.30473V6.09729C29.9998 5.65824 29.6428 5.30129 29.204 5.30129ZM29.1209 7.22141H25.4457C25.1248 7.22141 24.8637 7.4825 24.8637 7.80342V8.23584L23.0921 6.70086L24.8637 5.16582V5.59824C24.8637 5.91916 25.1248 6.18026 25.4457 6.18026H29.1209V7.22141Z" fill="#63AB45"/>
</svg>
