<svg width="37" height="30" viewBox="0 0 37 30" fill="none" xmlns="http://www.w3.org/2000/svg">
<path d="M36.2393 15.9247C36.6592 15.9247 37 15.5939 37 15.1864V11.1709C37 9.85524 35.8978 8.78251 34.5431 8.77882L30.7504 8.76701C30.7299 8.21478 30.8683 7.6714 31.1581 7.19595C31.5407 6.56841 32.1394 6.13651 32.843 5.97926C33.2522 5.88697 33.5078 5.49125 33.4135 5.09406L32.6072 1.69796C32.3303 0.530736 31.1612 -0.206807 30.0012 0.0515916L4.22775 5.7216C3.06242 5.98221 2.33903 7.14648 2.61439 8.3174L2.69958 8.68285L2.47214 8.68211C2.46986 8.68211 2.46682 8.68211 2.46454 8.68211C1.80809 8.68211 1.19043 8.92943 0.724909 9.37978C0.257103 9.83161 0 10.4333 0 11.0734V27.608C0 28.9273 1.106 30 2.46454 30H34.5355C35.8948 30 37 28.9265 37 27.608V23.4566C37 23.0491 36.6592 22.7183 36.2393 22.7183C34.3095 22.7183 32.7395 21.1945 32.7395 19.3215C32.7403 17.4485 34.3103 15.9247 36.2393 15.9247ZM4.09767 7.98886C4.00792 7.60938 4.21938 7.23729 4.56624 7.15977L30.3397 1.48976C30.6858 1.41298 31.0357 1.65514 31.1239 2.02871L31.775 4.77217C30.9794 5.10956 30.31 5.68616 29.8475 6.44364C29.4177 7.1487 29.2124 7.94899 29.2321 8.76184L4.26045 8.68654L4.09767 7.98886ZM31.219 19.3215C31.219 21.7578 33.0704 23.7822 35.4794 24.1388V27.608C35.4794 28.1129 35.0565 28.5234 34.5362 28.5234H8.08201V27.162C8.08201 26.7545 7.74123 26.4238 7.32135 26.4238C6.90146 26.4238 6.56069 26.7545 6.56069 27.162V28.5234H2.46454C1.94425 28.5234 1.52132 28.1129 1.52132 27.608V11.0734C1.52132 10.8283 1.61944 10.5979 1.79896 10.4252C1.97695 10.2532 2.21352 10.1579 2.46454 10.1579H2.46758L6.56069 10.1705V12.3964C6.56069 12.8039 6.90146 13.1347 7.32135 13.1347C7.74123 13.1347 8.08201 12.8039 8.08201 12.3964V10.1749L30.0772 10.2414C30.0803 10.2414 30.0826 10.2428 30.0848 10.2428C30.0886 10.2428 30.0924 10.2414 30.0963 10.2414L34.5385 10.2546C35.0573 10.2561 35.4787 10.6666 35.4787 11.1701V14.5035C33.0697 14.8615 31.219 16.8852 31.219 19.3215Z" fill="#63AB45"/>
<path d="M7.32121 20.5175C6.90132 20.5175 6.56055 20.8482 6.56055 21.2557V24.2089C6.56055 24.6164 6.90132 24.9471 7.32121 24.9471C7.74109 24.9471 8.08187 24.6164 8.08187 24.2089V21.2557C8.08187 20.8482 7.74109 20.5175 7.32121 20.5175Z" fill="#63AB45"/>
<path d="M7.32121 14.6112C6.90132 14.6112 6.56055 14.942 6.56055 15.3495V18.3026C6.56055 18.7101 6.90132 19.0409 7.32121 19.0409C7.74109 19.0409 8.08187 18.7101 8.08187 18.3026V15.3495C8.08187 14.942 7.74109 14.6112 7.32121 14.6112Z" fill="#63AB45"/>
<path d="M29.364 19.591C29.3609 19.5777 29.3655 19.5659 29.3617 19.5526C28.7129 17.1178 24.0941 17.3503 23.637 17.3828C23.5115 17.3806 23.3867 17.3267 23.3015 17.2411L20.9199 13.4463C20.7815 13.2263 20.5358 13.0919 20.2703 13.0919H18.1899C17.9503 13.0919 17.7251 13.2012 17.5814 13.3872C17.4376 13.5733 17.392 13.814 17.4597 14.0369L18.5299 17.5969L16.4799 17.7069L15.5413 16.3071C15.4006 16.0982 15.161 15.972 14.9038 15.972H11.5113C11.22 15.972 10.9537 16.1336 10.8267 16.3883C10.6997 16.6431 10.7332 16.9458 10.9142 17.168L13.006 19.7372L10.9142 22.3064C10.7332 22.5286 10.6997 22.8313 10.8267 23.086C10.9537 23.3407 11.22 23.5024 11.5113 23.5024H14.9038C15.161 23.5024 15.4006 23.3762 15.5413 23.1665L16.4799 21.7667L18.5299 21.8767L17.4597 25.4367C17.3927 25.6597 17.4376 25.9004 17.5814 26.0864C17.7244 26.2717 17.9503 26.3817 18.1899 26.3817H20.2703C20.5358 26.3817 20.7815 26.2474 20.9199 26.0274L23.3015 22.2326C23.3867 22.1469 23.5061 22.0931 23.5693 22.0894C24.0941 22.1241 28.7129 22.3559 29.3625 19.921C29.3663 19.9077 29.3617 19.8959 29.3647 19.8826C29.3746 19.8346 29.3731 19.7859 29.3731 19.7365C29.3724 19.687 29.3746 19.639 29.364 19.591ZM23.6043 20.6157C23.0231 20.6276 22.458 20.8956 22.0936 21.3326C22.0723 21.3585 22.0525 21.385 22.035 21.4131L19.8428 24.9059H19.2039L20.2581 21.3983C20.3228 21.182 20.2832 20.9487 20.1486 20.7649C20.014 20.581 19.801 20.4666 19.5697 20.4541L16.1239 20.2695C15.8471 20.2503 15.593 20.3825 15.4447 20.6039L14.4908 22.0259H13.0805L14.5714 20.1949C14.5851 20.1779 14.5882 20.158 14.6003 20.1403C14.6293 20.0975 14.6505 20.0539 14.6703 20.0067C14.6878 19.9631 14.7038 19.9218 14.7129 19.876C14.7221 19.8295 14.7236 19.7844 14.7236 19.7365C14.7236 19.6885 14.7221 19.6434 14.7129 19.5969C14.7038 19.5519 14.6878 19.5098 14.6703 19.4662C14.6513 19.419 14.63 19.3754 14.6003 19.3326C14.5882 19.3149 14.5851 19.295 14.5714 19.278L13.0805 17.447H14.4908L15.4447 18.869C15.593 19.0897 15.8478 19.2167 16.1239 19.2034L19.5697 19.0188C19.8017 19.0063 20.0147 18.8919 20.1486 18.708C20.2825 18.5242 20.3228 18.2909 20.2581 18.0746L19.2039 14.567H19.8428L22.035 18.0598C22.0525 18.0879 22.0723 18.1152 22.0936 18.1403C22.458 18.5766 23.0224 18.8446 23.6712 18.8549C25.1157 18.7619 27.2988 18.9878 27.8001 19.735C27.2988 20.4851 25.1134 20.7088 23.6043 20.6157Z" fill="#63AB45"/>
</svg>
