<svg width="18" height="15" viewBox="0 0 18 15" fill="none" xmlns="http://www.w3.org/2000/svg">
<path d="M17.7975 10.2483L13.1818 14.7835C13.1184 14.8503 13.042 14.9039 12.9571 14.9411C12.8721 14.9783 12.7805 14.9983 12.6875 14.9999C12.5945 15.0015 12.5022 14.9847 12.416 14.9505C12.3298 14.9163 12.2515 14.8653 12.1857 14.8008C12.12 14.7362 12.0681 14.6592 12.0333 14.5745C11.9985 14.4898 11.9814 14.3991 11.983 14.3077C11.9847 14.2164 12.005 14.1263 12.0429 14.0429C12.0807 13.9594 12.1353 13.8843 12.2033 13.822L15.6364 10.4479H3.46116C3.27754 10.4479 3.10144 10.3762 2.9716 10.2486C2.84175 10.121 2.76881 9.94801 2.76881 9.76758C2.76881 9.58716 2.84175 9.41413 2.9716 9.28656C3.10144 9.15898 3.27754 9.08731 3.46116 9.08731H17.3083C17.4451 9.08743 17.5788 9.12739 17.6926 9.20215C17.8063 9.27691 17.895 9.38311 17.9473 9.50734C17.9997 9.63157 18.0134 9.76825 17.9867 9.90014C17.9601 10.032 17.8942 10.1532 17.7975 10.2483ZM15.2312 5.23241C15.2312 5.05199 15.1582 4.87896 15.0284 4.75139C14.8986 4.62381 14.7225 4.55214 14.5388 4.55214H2.36355L5.79671 1.17797C5.86473 1.11569 5.91929 1.04059 5.95713 0.957144C5.99497 0.873698 6.01532 0.783617 6.01696 0.692276C6.0186 0.600936 6.0015 0.510206 5.96668 0.4255C5.93186 0.340793 5.88003 0.263846 5.81428 0.199248C5.74854 0.13465 5.67022 0.0837252 5.58401 0.049511C5.4978 0.0152967 5.40546 -0.00150573 5.3125 0.00010587C5.21954 0.00171747 5.12786 0.0217103 5.04293 0.0588914C4.958 0.0960725 4.88156 0.14968 4.81818 0.216517L0.202482 4.75169C0.105777 4.84682 0.0399348 4.96798 0.0132704 5.09986C-0.0133939 5.23175 0.00031602 5.36843 0.0526685 5.49266C0.105021 5.61689 0.193668 5.72309 0.307413 5.79785C0.421158 5.87261 0.5549 5.91257 0.691746 5.91269H14.5388C14.7225 5.91269 14.8986 5.84102 15.0284 5.71344C15.1582 5.58587 15.2312 5.41284 15.2312 5.23241Z" fill="#63AB45"/>
</svg>
