<svg width="63" height="55" viewBox="0 0 63 55" fill="none" xmlns="http://www.w3.org/2000/svg">
<path d="M59.3611 11.6888L57.368 11.3015C56.1472 11.0643 54.8882 11.2159 53.7643 11.7253C48.6793 4.36467 40.4 0 31.4131 0C24.1575 0 17.336 2.82556 12.2054 7.95604C7.07491 13.0868 4.24935 19.9081 4.24935 27.1639C4.24935 28.8076 4.39586 30.4285 4.67981 32.0131C0.732951 35.5529 -0.820636 39.0604 0.414896 41.683C1.37115 43.7126 3.82884 44.8076 7.38242 44.8075C7.67004 44.8075 7.96552 44.8003 8.26738 44.7858C9.00018 44.7507 9.7628 44.6723 10.5465 44.5561C11.0696 45.1815 11.6218 45.7881 12.2054 46.3716C17.336 51.5023 24.1574 54.3277 31.4131 54.3277C38.6689 54.3277 45.4904 51.5021 50.6209 46.3716C55.7515 41.241 58.577 34.4197 58.577 27.1639C58.577 25.1494 58.3551 23.1459 57.9182 21.1961L60.6851 19.5986C61.7875 18.962 62.5446 17.8777 62.7626 16.6233C63.1582 14.3438 61.6324 12.1302 59.3611 11.6888ZM8.15007 42.3345C5.26315 42.4731 3.20095 41.8381 2.63515 40.6371C2.01069 39.3117 3.05493 37.1042 5.32954 34.7853C6.10357 37.4484 7.28351 39.9748 8.84029 42.2879C8.60727 42.3075 8.37671 42.3237 8.15007 42.3345ZM46.7502 46.5234C44.828 43.5418 42.3435 40.9569 39.4433 38.9227C37.6702 37.6792 35.2656 37.8566 33.6837 39.3357C33.247 39.744 32.6714 39.9712 32.0735 39.9712C29.7073 39.9712 27.8305 41.9656 27.9744 44.3276C28.1064 46.4947 29.9024 48.1846 32.0735 48.1846C32.9789 48.1846 33.7128 48.9185 33.7128 49.8239V50.6855C33.7128 50.883 33.7843 51.0698 33.8967 51.2321C34.0057 51.3895 34.0545 51.5624 34.0562 51.7318C33.1876 51.8246 32.306 51.8734 31.413 51.8734C24.2868 51.8734 17.8568 48.8399 13.3429 43.9978C15.6884 43.4147 18.1526 42.5298 20.5883 41.3823C22.7467 40.3653 24.7604 39.2023 26.5731 37.9255C27.1271 37.5353 27.26 36.7697 26.8697 36.2157C26.4794 35.6616 25.7138 35.5288 25.1599 35.9191C23.4627 37.1145 21.5727 38.2057 19.5423 39.1623C16.8304 40.44 14.0991 41.3678 11.5787 41.8839C8.51733 37.7696 6.70336 32.6747 6.70336 27.1639C6.70336 24.5808 7.10252 22.0895 7.84109 19.7473H13.7428C14.7244 19.7473 15.5874 19.0969 15.8579 18.1532L17.7667 11.4937C17.9041 11.0144 18.5056 10.8588 18.8582 11.2113L22.9618 15.315C23.9756 16.3288 25.6728 16.1177 26.4073 14.8863C26.7664 14.2844 27.3907 13.8895 28.0884 13.823L29.6106 13.6781C30.8828 13.557 31.7844 12.3811 31.5714 11.121L30.6701 5.78819C30.5512 5.08471 30.7808 4.36737 31.286 3.86354L32.6655 2.48787C40.276 2.86765 47.2164 6.69217 51.613 12.9333L47.3214 15.411L39.1596 12.4485C38.8191 12.3248 38.4413 12.3578 38.1274 12.5393L32.4314 15.8278C32.045 16.0509 31.8101 16.4662 31.8181 16.9123C31.8259 17.3584 32.0755 17.7651 32.4698 17.9743L37.8949 20.8535L31.9486 24.2866L24.0799 21.26C23.734 21.127 23.3467 21.1573 23.0259 21.3426L19.2248 23.5372C18.8955 23.7273 18.6729 24.0593 18.6222 24.4361C18.5715 24.813 18.6984 25.192 18.9657 25.4625C18.9657 25.4625 25.2095 31.7681 25.2664 31.8087C26.5581 32.9439 28.2242 33.5754 29.947 33.5754C30.0621 33.5754 30.1776 33.5726 30.2931 33.567C34.7239 33.3498 39.0966 32.0626 42.9387 29.8444L44.5811 28.8962L44.2978 36.8332C44.2819 37.2791 44.5092 37.6985 44.8917 37.9286C45.0861 38.0455 45.305 38.104 45.524 38.104C45.7358 38.104 45.9476 38.0493 46.1375 37.9396L50.964 35.1532C51.2778 34.9721 51.4954 34.6615 51.5587 34.3047L53.4219 23.7922L55.6803 22.4883C55.9738 24.0226 56.1229 25.5895 56.1229 27.164C56.1229 34.999 52.4566 41.9932 46.7502 46.5234ZM44.5451 17.014L40.4021 19.4059L35.5773 16.8453L38.8596 14.9503L44.5451 17.014ZM29.2152 25.8647L25.1398 28.2176L21.8284 24.8678L23.7456 23.7609L29.2152 25.8647ZM46.8294 34.7066L47.1501 25.72L50.9797 23.5091L49.2419 33.3136L46.8294 34.7066ZM60.3445 16.2036C60.2515 16.7389 59.9284 17.2016 59.458 17.4733L53.8067 20.7361C53.7245 20.4937 53.5698 20.2771 53.3517 20.1244C52.961 19.8506 52.4472 19.8279 52.034 20.0666L45.3344 23.9345C44.9684 24.1459 44.7367 24.5309 44.7218 24.9534L44.6843 26.0029L41.7115 27.7192C38.2059 29.7431 34.2159 30.9176 30.1728 31.1159C28.9904 31.174 27.8323 30.775 26.9383 30.013L54.4703 14.1174C55.2048 13.6933 56.0679 13.549 56.8999 13.7107L58.893 14.098C59.8623 14.2862 60.5134 15.2309 60.3445 16.2036Z" fill="#1CA8CB"/>
</svg>
