<svg width="210" height="55" viewBox="0 0 210 55" fill="none" xmlns="http://www.w3.org/2000/svg">
<path d="M59.3611 11.6888L57.368 11.3015C56.1472 11.0643 54.8882 11.2159 53.7643 11.7253C48.6793 4.36467 40.4 0 31.4131 0C24.1575 0 17.336 2.82556 12.2054 7.95604C7.07491 13.0868 4.24935 19.9081 4.24935 27.1639C4.24935 28.8076 4.39586 30.4285 4.67981 32.0131C0.732951 35.5529 -0.820636 39.0604 0.414896 41.683C1.37115 43.7126 3.82884 44.8076 7.38242 44.8075C7.67004 44.8075 7.96552 44.8003 8.26738 44.7858C9.00018 44.7507 9.7628 44.6723 10.5465 44.5561C11.0696 45.1815 11.6218 45.7881 12.2054 46.3716C17.336 51.5023 24.1574 54.3277 31.4131 54.3277C38.6689 54.3277 45.4904 51.5021 50.6209 46.3716C55.7515 41.241 58.577 34.4197 58.577 27.1639C58.577 25.1494 58.3551 23.1459 57.9182 21.1961L60.6851 19.5986C61.7875 18.962 62.5446 17.8777 62.7626 16.6233C63.1582 14.3438 61.6324 12.1302 59.3611 11.6888ZM8.15007 42.3345C5.26315 42.4731 3.20095 41.8381 2.63515 40.6371C2.01069 39.3117 3.05493 37.1042 5.32954 34.7853C6.10357 37.4484 7.28351 39.9748 8.84029 42.2879C8.60727 42.3075 8.37671 42.3237 8.15007 42.3345ZM46.7502 46.5234C44.828 43.5418 42.3435 40.9569 39.4433 38.9227C37.6702 37.6792 35.2656 37.8566 33.6837 39.3357C33.247 39.744 32.6714 39.9712 32.0735 39.9712C29.7073 39.9712 27.8305 41.9656 27.9744 44.3276C28.1064 46.4947 29.9024 48.1846 32.0735 48.1846C32.9789 48.1846 33.7128 48.9185 33.7128 49.8239V50.6855C33.7128 50.883 33.7843 51.0698 33.8967 51.2321C34.0057 51.3895 34.0545 51.5624 34.0562 51.7318C33.1876 51.8246 32.306 51.8734 31.413 51.8734C24.2868 51.8734 17.8568 48.8399 13.3429 43.9978C15.6884 43.4147 18.1526 42.5298 20.5883 41.3823C22.7467 40.3653 24.7604 39.2023 26.5731 37.9255C27.1271 37.5353 27.26 36.7697 26.8697 36.2157C26.4794 35.6616 25.7138 35.5288 25.1599 35.9191C23.4627 37.1145 21.5727 38.2057 19.5423 39.1623C16.8304 40.44 14.0991 41.3678 11.5787 41.8839C8.51733 37.7696 6.70336 32.6747 6.70336 27.1639C6.70336 24.5808 7.10252 22.0895 7.84109 19.7473H13.7428C14.7244 19.7473 15.5874 19.0969 15.8579 18.1532L17.7667 11.4937C17.9041 11.0144 18.5056 10.8588 18.8582 11.2113L22.9618 15.315C23.9756 16.3288 25.6728 16.1177 26.4073 14.8863C26.7664 14.2844 27.3907 13.8895 28.0884 13.823L29.6106 13.6781C30.8828 13.557 31.7844 12.3811 31.5714 11.121L30.6701 5.78819C30.5512 5.08471 30.7808 4.36737 31.286 3.86354L32.6655 2.48787C40.276 2.86765 47.2164 6.69217 51.613 12.9333L47.3214 15.411L39.1596 12.4485C38.8191 12.3248 38.4413 12.3578 38.1274 12.5393L32.4314 15.8278C32.045 16.0509 31.8101 16.4662 31.8181 16.9123C31.8259 17.3584 32.0755 17.7651 32.4698 17.9743L37.8949 20.8535L31.9486 24.2866L24.0799 21.26C23.734 21.127 23.3467 21.1573 23.0259 21.3426L19.2248 23.5372C18.8955 23.7273 18.6729 24.0593 18.6222 24.4361C18.5715 24.813 18.6984 25.192 18.9657 25.4625C18.9657 25.4625 25.2095 31.7681 25.2664 31.8087C26.5581 32.9439 28.2242 33.5754 29.947 33.5754C30.0621 33.5754 30.1776 33.5726 30.2931 33.567C34.7239 33.3498 39.0966 32.0626 42.9387 29.8444L44.5811 28.8962L44.2978 36.8332C44.2819 37.2791 44.5092 37.6985 44.8917 37.9286C45.0861 38.0455 45.305 38.104 45.524 38.104C45.7358 38.104 45.9476 38.0493 46.1375 37.9396L50.964 35.1532C51.2778 34.9721 51.4954 34.6615 51.5587 34.3047L53.4219 23.7922L55.6803 22.4883C55.9738 24.0226 56.1229 25.5895 56.1229 27.164C56.1229 34.999 52.4566 41.9932 46.7502 46.5234ZM44.5451 17.014L40.4021 19.4059L35.5773 16.8453L38.8596 14.9503L44.5451 17.014ZM29.2152 25.8647L25.1398 28.2176L21.8284 24.8678L23.7456 23.7609L29.2152 25.8647ZM46.8294 34.7066L47.1501 25.72L50.9797 23.5091L49.2419 33.3136L46.8294 34.7066ZM60.3445 16.2036C60.2515 16.7389 59.9284 17.2016 59.458 17.4733L53.8067 20.7361C53.7245 20.4937 53.5698 20.2771 53.3517 20.1244C52.961 19.8506 52.4472 19.8279 52.034 20.0666L45.3344 23.9345C44.9684 24.1459 44.7367 24.5309 44.7218 24.9534L44.6843 26.0029L41.7115 27.7192C38.2059 29.7431 34.2159 30.9176 30.1728 31.1159C28.9904 31.174 27.8323 30.775 26.9383 30.013L54.4703 14.1174C55.2048 13.6933 56.0679 13.549 56.8999 13.7107L58.893 14.098C59.8623 14.2862 60.5134 15.2309 60.3445 16.2036Z" fill="#1CA8CB"/>
<path d="M74.4215 6.01292V1.4842H95.7585V6.01292H87.8047V27.4641H82.3753V6.01292H74.4215Z" fill="white"/>
<path d="M97.1476 27.4641V7.97917H102.387V11.3789H102.59C102.945 10.1695 103.541 9.25617 104.378 8.63881C105.216 8.013 106.18 7.70009 107.271 7.70009C107.541 7.70009 107.833 7.717 108.146 7.75083C108.459 7.78466 108.734 7.83117 108.97 7.89037V12.6855C108.717 12.6094 108.366 12.5417 107.918 12.4825C107.469 12.4233 107.059 12.3937 106.687 12.3937C105.892 12.3937 105.182 12.5671 104.556 12.9138C103.939 13.2521 103.448 13.7257 103.084 14.3346C102.729 14.9435 102.552 15.6454 102.552 16.4404V27.4641H97.1476Z" fill="white"/>
<path d="M111.764 27.4641V7.97917H117.168V27.4641H111.764ZM114.479 5.46744C113.676 5.46744 112.986 5.20105 112.411 4.66826C111.845 4.12701 111.561 3.48005 111.561 2.72738C111.561 1.98316 111.845 1.34466 112.411 0.811872C112.986 0.270624 113.676 0 114.479 0C115.283 0 115.968 0.270624 116.534 0.811872C117.109 1.34466 117.397 1.98316 117.397 2.72738C117.397 3.48005 117.109 4.12701 116.534 4.66826C115.968 5.20105 115.283 5.46744 114.479 5.46744Z" fill="white"/>
<path d="M121.497 34.7709V7.97917H126.825V11.252H127.066C127.303 10.7277 127.646 10.1949 128.094 9.65365C128.55 9.10395 129.142 8.64727 129.87 8.28362C130.606 7.91151 131.519 7.72546 132.61 7.72546C134.031 7.72546 135.341 8.09757 136.542 8.84178C137.743 9.57754 138.703 10.6896 139.422 12.1781C140.141 13.658 140.5 15.5143 140.5 17.747C140.5 19.9204 140.149 21.7556 139.447 23.2525C138.754 24.7409 137.807 25.8699 136.606 26.6395C135.413 27.4006 134.077 27.7812 132.597 27.7812C131.548 27.7812 130.656 27.6078 129.92 27.2611C129.193 26.9144 128.597 26.4788 128.132 25.9545C127.667 25.4217 127.312 24.8847 127.066 24.3434H126.901V34.7709H121.497ZM126.787 17.7216C126.787 18.8802 126.948 19.8908 127.269 20.7534C127.591 21.6161 128.056 22.2884 128.665 22.7704C129.274 23.244 130.014 23.4808 130.885 23.4808C131.764 23.4808 132.508 23.2398 133.117 22.7578C133.726 22.2673 134.187 21.5907 134.5 20.7281C134.821 19.857 134.982 18.8549 134.982 17.7216C134.982 16.5968 134.826 15.6074 134.513 14.7532C134.2 13.8991 133.739 13.231 133.13 12.7489C132.521 12.2669 131.773 12.0258 130.885 12.0258C130.005 12.0258 129.261 12.2584 128.652 12.7235C128.051 13.1887 127.591 13.8483 127.269 14.7025C126.948 15.5566 126.787 16.563 126.787 17.7216Z" fill="white"/>
<path d="M144.103 27.4641V7.97917H149.253V11.4169H149.482C149.887 10.2752 150.564 9.37457 151.511 8.71493C152.458 8.05528 153.592 7.72546 154.911 7.72546C156.247 7.72546 157.385 8.05951 158.323 8.72761C159.262 9.38726 159.888 10.2837 160.201 11.4169H160.404C160.801 10.3006 161.52 9.4084 162.56 8.7403C163.609 8.06374 164.848 7.72546 166.277 7.72546C168.095 7.72546 169.571 8.30476 170.704 9.46337C171.846 10.6135 172.417 12.2457 172.417 14.36V27.4641H167.026V15.4255C167.026 14.3431 166.738 13.5312 166.163 12.9899C165.588 12.4487 164.869 12.1781 164.006 12.1781C163.025 12.1781 162.26 12.491 161.71 13.1168C161.161 13.7341 160.886 14.5502 160.886 15.5651V27.4641H155.647V15.3114C155.647 14.3557 155.372 13.5946 154.822 13.028C154.281 12.4614 153.566 12.1781 152.678 12.1781C152.078 12.1781 151.537 12.3303 151.055 12.6347C150.581 12.9307 150.205 13.3494 149.925 13.8906C149.646 14.4234 149.507 15.0492 149.507 15.7681V27.4641H144.103Z" fill="white"/>
<path d="M185.565 27.8446C183.561 27.8446 181.836 27.4387 180.39 26.6268C178.952 25.8065 177.844 24.6479 177.066 23.151C176.288 21.6457 175.899 19.8655 175.899 17.8104C175.899 15.8061 176.288 14.0471 177.066 12.5333C177.844 11.0195 178.939 9.83971 180.352 8.99401C181.772 8.14831 183.438 7.72546 185.35 7.72546C186.635 7.72546 187.832 7.93266 188.94 8.34705C190.056 8.75298 191.029 9.36611 191.857 10.1864C192.695 11.0068 193.346 12.0385 193.811 13.2817C194.276 14.5164 194.509 15.9626 194.509 17.6201V19.1043H178.056V15.7554H189.422C189.422 14.9773 189.253 14.2881 188.914 13.6876C188.576 13.0872 188.107 12.6178 187.506 12.2795C186.914 11.9328 186.225 11.7594 185.439 11.7594C184.618 11.7594 183.891 11.9497 183.257 12.3303C182.631 12.7024 182.14 13.2056 181.785 13.8399C181.43 14.4657 181.248 15.1634 181.24 15.933V19.117C181.24 20.0811 181.417 20.9141 181.772 21.6161C182.136 22.318 182.648 22.8592 183.307 23.2398C183.967 23.6204 184.749 23.8106 185.654 23.8106C186.255 23.8106 186.804 23.7261 187.303 23.5569C187.802 23.3878 188.229 23.1341 188.585 22.7958C188.94 22.4575 189.21 22.0431 189.396 21.5526L194.394 21.8825C194.141 23.0833 193.621 24.132 192.834 25.0285C192.056 25.9164 191.05 26.6099 189.815 27.1089C188.589 27.5994 187.172 27.8446 185.565 27.8446Z" fill="white"/>
<path d="M208.399 7.97917V12.0385H196.665V7.97917H208.399ZM199.329 3.31091H204.733V21.4765C204.733 21.9755 204.809 22.3645 204.961 22.6436C205.114 22.9142 205.325 23.1045 205.596 23.2144C205.875 23.3244 206.196 23.3793 206.56 23.3793C206.814 23.3793 207.067 23.3582 207.321 23.3159C207.575 23.2652 207.769 23.2271 207.904 23.2017L208.754 27.223C208.484 27.3076 208.103 27.4049 207.613 27.5148C207.122 27.6332 206.526 27.7051 205.824 27.7305C204.522 27.7812 203.38 27.6078 202.399 27.2104C201.426 26.8129 200.67 26.1955 200.128 25.3583C199.587 24.521 199.321 23.4639 199.329 22.1869V3.31091Z" fill="white"/>
<path d="M74.4215 52.2231V42.3486H81.4229V43.4094H75.8263V46.7459H81.0604V47.8066H75.8263V51.1624H81.5135V52.2231H74.4215Z" fill="white"/>
<path d="M84.7706 44.8172L86.8552 47.8452L88.9397 44.8172H90.4805L87.6709 48.5202L90.4805 52.2231H88.9397L86.8552 49.3495L84.7706 52.2231H83.2299L85.9942 48.5202L83.2299 44.8172H84.7706Z" fill="white"/>
<path d="M92.388 55.0003V44.8172H93.6796V45.9937H93.8382C93.9363 45.8651 94.0723 45.7012 94.246 45.5019C94.4235 45.2994 94.6765 45.1194 95.0051 44.9619C95.3374 44.8012 95.7868 44.7208 96.3532 44.7208C97.0858 44.7208 97.7316 44.8767 98.2905 45.1885C98.8494 45.5003 99.2856 45.9423 99.599 46.5144C99.9124 47.0866 100.069 47.7616 100.069 48.5395C100.069 49.3238 99.9124 50.0036 99.599 50.579C99.2856 51.1511 98.8513 51.5947 98.2962 51.9097C97.741 52.2215 97.1009 52.3774 96.3759 52.3774C95.817 52.3774 95.3695 52.2986 95.0334 52.1411C94.6973 51.9804 94.4386 51.7988 94.2573 51.5963C94.0761 51.3906 93.9363 51.2202 93.8382 51.0852H93.7249V55.0003H92.388ZM93.7022 48.5202C93.7022 49.0795 93.7985 49.5729 93.9911 50.0004C94.1837 50.4247 94.465 50.7574 94.8351 50.9984C95.2052 51.2363 95.6584 51.3552 96.1946 51.3552C96.7535 51.3552 97.2199 51.2299 97.5938 50.9791C97.9714 50.7252 98.2546 50.3845 98.4434 49.957C98.636 49.5263 98.7323 49.0473 98.7323 48.5202C98.7323 47.9994 98.6379 47.5302 98.4491 47.1123C98.2641 46.6912 97.9827 46.3585 97.6051 46.1142C97.2312 45.8667 96.7611 45.743 96.1946 45.743C95.6508 45.743 95.1939 45.8603 94.8238 46.0949C94.4537 46.3264 94.1743 46.651 93.9854 47.0689C93.7966 47.4835 93.7022 47.9673 93.7022 48.5202Z" fill="white"/>
<path d="M103.445 42.3486V52.2231H102.108V42.3486H103.445Z" fill="white"/>
<path d="M109.428 52.3774C108.643 52.3774 107.954 52.2183 107.361 51.9001C106.772 51.5818 106.311 51.1366 105.979 50.5645C105.65 49.9923 105.486 49.3238 105.486 48.5587C105.486 47.7873 105.65 47.1139 105.979 46.5385C106.311 45.9632 106.772 45.5164 107.361 45.1981C107.954 44.8799 108.643 44.7208 109.428 44.7208C110.214 44.7208 110.901 44.8799 111.49 45.1981C112.083 45.5164 112.544 45.9632 112.872 46.5385C113.205 47.1139 113.371 47.7873 113.371 48.5587C113.371 49.3238 113.205 49.9923 112.872 50.5645C112.544 51.1366 112.083 51.5818 111.49 51.9001C110.901 52.2183 110.214 52.3774 109.428 52.3774ZM109.428 51.3552C110.025 51.3552 110.516 51.225 110.901 50.9647C111.286 50.7043 111.571 50.362 111.757 49.9377C111.942 49.5134 112.034 49.0538 112.034 48.5587C112.034 48.0637 111.942 47.6025 111.757 47.175C111.571 46.7475 111.286 46.4019 110.901 46.1383C110.516 45.8748 110.025 45.743 109.428 45.743C108.832 45.743 108.341 45.8748 107.956 46.1383C107.57 46.4019 107.285 46.7475 107.1 47.175C106.915 47.6025 106.823 48.0637 106.823 48.5587C106.823 49.0538 106.915 49.5134 107.1 49.9377C107.285 50.362 107.57 50.7043 107.956 50.9647C108.341 51.225 108.832 51.3552 109.428 51.3552Z" fill="white"/>
<path d="M115.412 52.2231V44.8172H116.703V45.9358H116.794C116.952 45.5694 117.239 45.2721 117.655 45.0439C118.07 44.8156 118.538 44.7015 119.06 44.7015C119.158 44.7015 119.28 44.7031 119.428 44.7064C119.575 44.7096 119.686 44.7144 119.762 44.7208V45.878C119.717 45.8683 119.613 45.8539 119.45 45.8346C119.292 45.8121 119.124 45.8008 118.946 45.8008C118.523 45.8008 118.146 45.8764 117.813 46.0274C117.485 46.1753 117.224 46.381 117.032 46.6446C116.843 46.905 116.748 47.2023 116.748 47.5366V52.2231H115.412Z" fill="white"/>
<path d="M124.73 52.3774C123.891 52.3774 123.168 52.2199 122.56 51.9049C121.956 51.5867 121.49 51.1431 121.161 50.5741C120.836 50.002 120.674 49.3366 120.674 48.578C120.674 47.8194 120.836 47.1509 121.161 46.5723C121.49 45.9905 121.947 45.5373 122.532 45.2126C123.121 44.8847 123.808 44.7208 124.594 44.7208C125.047 44.7208 125.494 44.7851 125.936 44.9137C126.378 45.0423 126.78 45.2512 127.143 45.5405C127.505 45.8266 127.794 46.2058 128.01 46.6784C128.225 47.1509 128.332 47.7327 128.332 48.4237V48.9059H121.626V47.9223H126.973C126.973 47.5044 126.875 47.1316 126.678 46.8037C126.486 46.4758 126.21 46.2171 125.851 46.0274C125.496 45.8378 125.077 45.743 124.594 45.743C124.061 45.743 123.601 45.8555 123.212 46.0805C122.826 46.3023 122.53 46.5916 122.322 46.9484C122.115 47.3051 122.011 47.6877 122.011 48.0959V48.7516C122.011 49.3109 122.124 49.785 122.351 50.174C122.581 50.5597 122.9 50.8538 123.308 51.0563C123.716 51.2556 124.19 51.3552 124.73 51.3552C125.081 51.3552 125.398 51.3134 125.681 51.2299C125.968 51.1431 126.216 51.0145 126.423 50.8441C126.631 50.6706 126.792 50.4552 126.905 50.1981L128.196 50.5066C128.061 50.8795 127.832 51.2074 127.511 51.4902C127.19 51.7699 126.794 51.9884 126.321 52.146C125.849 52.3002 125.319 52.3774 124.73 52.3774Z" fill="white"/>
<path d="M134.399 43.4094V42.3486H143.1V43.4094H139.452V52.2231H138.047V43.4094H134.399Z" fill="white"/>
<path d="M146.424 47.768V52.2231H145.087V42.3486H146.424V45.9744H146.537C146.741 45.5919 147.047 45.2881 147.455 45.0631C147.866 44.8349 148.414 44.7208 149.097 44.7208C149.69 44.7208 150.209 44.8221 150.655 45.0246C151.101 45.2239 151.446 45.5308 151.692 45.9455C151.941 46.3569 152.065 46.8809 152.065 47.5173V52.2231H150.729V47.5944C150.729 47.0062 150.549 46.5514 150.19 46.23C149.836 45.9053 149.343 45.743 148.712 45.743C148.274 45.743 147.881 45.8217 147.534 45.9792C147.19 46.1367 146.918 46.3666 146.718 46.6687C146.522 46.9709 146.424 47.3373 146.424 47.768Z" fill="white"/>
<path d="M158.159 52.3774C157.321 52.3774 156.598 52.2199 155.99 51.9049C155.385 51.5867 154.919 51.1431 154.59 50.5741C154.266 50.002 154.103 49.3366 154.103 48.578C154.103 47.8194 154.266 47.1509 154.59 46.5723C154.919 45.9905 155.376 45.5373 155.961 45.2126C156.55 44.8847 157.238 44.7208 158.023 44.7208C158.476 44.7208 158.924 44.7851 159.366 44.9137C159.807 45.0423 160.21 45.2512 160.572 45.5405C160.935 45.8266 161.224 46.2058 161.439 46.6784C161.654 47.1509 161.762 47.7327 161.762 48.4237V48.9059H155.055V47.9223H160.402C160.402 47.5044 160.304 47.1316 160.108 46.8037C159.915 46.4758 159.639 46.2171 159.281 46.0274C158.926 45.8378 158.507 45.743 158.023 45.743C157.491 45.743 157.03 45.8555 156.641 46.0805C156.256 46.3023 155.959 46.5916 155.752 46.9484C155.544 47.3051 155.44 47.6877 155.44 48.0959V48.7516C155.44 49.3109 155.553 49.785 155.78 50.174C156.01 50.5597 156.329 50.8538 156.737 51.0563C157.145 51.2556 157.619 51.3552 158.159 51.3552C158.51 51.3552 158.827 51.3134 159.111 51.2299C159.398 51.1431 159.645 51.0145 159.853 50.8441C160.06 50.6706 160.221 50.4552 160.334 50.1981L161.626 50.5066C161.49 50.8795 161.261 51.2074 160.94 51.4902C160.619 51.7699 160.223 51.9884 159.751 52.146C159.279 52.3002 158.748 52.3774 158.159 52.3774Z" fill="white"/>
<path d="M170.57 52.2231L167.398 42.3486H168.825L171.25 50.3909H171.363L173.833 42.3486H175.419L177.889 50.3909H178.002L180.426 42.3486H181.854L178.682 52.2231H177.232L174.671 44.3544H174.581L172.02 52.2231H170.57Z" fill="white"/>
<path d="M186.148 52.3774C185.362 52.3774 184.673 52.2183 184.08 51.9001C183.491 51.5818 183.03 51.1366 182.698 50.5645C182.369 49.9923 182.205 49.3238 182.205 48.5587C182.205 47.7873 182.369 47.1139 182.698 46.5385C183.03 45.9632 183.491 45.5164 184.08 45.1981C184.673 44.8799 185.362 44.7208 186.148 44.7208C186.933 44.7208 187.62 44.8799 188.21 45.1981C188.802 45.5164 189.263 45.9632 189.592 46.5385C189.924 47.1139 190.09 47.7873 190.09 48.5587C190.09 49.3238 189.924 49.9923 189.592 50.5645C189.263 51.1366 188.802 51.5818 188.21 51.9001C187.62 52.2183 186.933 52.3774 186.148 52.3774ZM186.148 51.3552C186.744 51.3552 187.235 51.225 187.62 50.9647C188.006 50.7043 188.291 50.362 188.476 49.9377C188.661 49.5134 188.753 49.0538 188.753 48.5587C188.753 48.0637 188.661 47.6025 188.476 47.175C188.291 46.7475 188.006 46.4019 187.62 46.1383C187.235 45.8748 186.744 45.743 186.148 45.743C185.551 45.743 185.06 45.8748 184.675 46.1383C184.29 46.4019 184.005 46.7475 183.819 47.175C183.634 47.6025 183.542 48.0637 183.542 48.5587C183.542 49.0538 183.634 49.5134 183.819 49.9377C184.005 50.362 184.29 50.7043 184.675 50.9647C185.06 51.225 185.551 51.3552 186.148 51.3552Z" fill="white"/>
<path d="M192.131 52.2231V44.8172H193.422V45.9358H193.513C193.672 45.5694 193.959 45.2721 194.374 45.0439C194.789 44.8156 195.258 44.7015 195.779 44.7015C195.877 44.7015 196 44.7031 196.147 44.7064C196.294 44.7096 196.406 44.7144 196.481 44.7208V45.878C196.436 45.8683 196.332 45.8539 196.17 45.8346C196.011 45.8121 195.843 45.8008 195.665 45.8008C195.243 45.8008 194.865 45.8764 194.533 46.0274C194.204 46.1753 193.943 46.381 193.751 46.6446C193.562 46.905 193.468 47.2023 193.468 47.5366V52.2231H192.131Z" fill="white"/>
<path d="M199.403 42.3486V52.2231H198.066V42.3486H199.403Z" fill="white"/>
<path d="M205.137 52.3774C204.412 52.3774 203.771 52.2215 203.216 51.9097C202.661 51.5947 202.227 51.1511 201.913 50.579C201.6 50.0036 201.443 49.3238 201.443 48.5395C201.443 47.7616 201.6 47.0866 201.913 46.5144C202.227 45.9423 202.663 45.5003 203.222 45.1885C203.781 44.8767 204.427 44.7208 205.159 44.7208C205.726 44.7208 206.173 44.8012 206.502 44.9619C206.834 45.1194 207.087 45.2994 207.261 45.5019C207.438 45.7012 207.576 45.8651 207.674 45.9937H207.788V42.3486H209.124V52.2231H207.833V51.0852H207.674C207.576 51.2202 207.436 51.3906 207.255 51.5963C207.074 51.7988 206.815 51.9804 206.479 52.1411C206.143 52.2986 205.695 52.3774 205.137 52.3774ZM205.318 51.3552C205.854 51.3552 206.307 51.2363 206.677 50.9984C207.047 50.7574 207.329 50.4247 207.521 50.0004C207.714 49.5729 207.81 49.0795 207.81 48.5202C207.81 47.9673 207.716 47.4835 207.527 47.0689C207.338 46.651 207.059 46.3264 206.689 46.0949C206.319 45.8603 205.862 45.743 205.318 45.743C204.751 45.743 204.279 45.8667 203.902 46.1142C203.528 46.3585 203.247 46.6912 203.058 47.1123C202.873 47.5302 202.78 47.9994 202.78 48.5202C202.78 49.0473 202.875 49.5263 203.063 49.957C203.256 50.3845 203.539 50.7252 203.913 50.9791C204.291 51.2299 204.759 51.3552 205.318 51.3552Z" fill="white"/>
</svg>
